<?xml version="1.0" standalone="no"?>
<!DOCTYPE svg PUBLIC "-//W3C//DTD SVG 1.1//EN" "http://www.w3.org/Graphics/SVG/1.1/DTD/svg11.dtd" >
<svg>
<metadata>
Created by FontForge 20090914 at Fri Oct  2 10:36:10 2020
 By www-data
</metadata>
<defs>
<font id="ProductSans-Italic" horiz-adv-x="836" >
  <font-face 
    font-family="Product Sans"
    font-weight="400"
    font-style="italic"
    font-stretch="normal"
    units-per-em="1000"
    panose-1="2 11 4 3 3 5 2 9 2 3"
    ascent="800"
    descent="-200"
    x-height="490"
    cap-height="716"
    bbox="-238 -253.002 3284 906"
    underline-thickness="84"
    underline-position="-76"
    slope="-10"
    unicode-range="U+000D-U+2215"
  />
<missing-glyph horiz-adv-x="570" 
d="M72 716h426v-716h-426v716zM136 60h298v596h-298v-596z" />
    <glyph glyph-name="f_i" unicode="fi" horiz-adv-x="584" 
d="M345 724c16 0 30.166 -1.83203 42.499 -5.49902s23.166 -8.5 32.499 -14.5l-38 -78c-5.33301 3.33301 -12 6.16602 -20 8.49902s-16.667 3.5 -26 3.5c-23.333 0 -43.666 -6.83301 -60.999 -20.5s-28.666 -35.5 -33.999 -65.5l-11 -62h312l-86 -490h-92l71 406h-220
l-71 -406h-92l71 406h-92l15 84h92l13 71c9.33301 52 31.5 92.167 66.5 120.5s77.5 42.5 127.5 42.5zM525.999 594.001c-18 0 -33.333 6.33301 -46 19s-19 28 -19 46s6.33301 33.333 19 46s28 19 46 19s33.333 -6.33301 46 -19s19 -28 19 -46s-6.33301 -33.333 -19 -46
s-28 -19 -46 -19z" />
    <glyph glyph-name="f_l" unicode="fl" horiz-adv-x="576" 
d="M364 0l112 636h-138c-54.667 0 -87 -28 -97 -84l-11 -62h119l-15 -84h-119l-71 -406h-92l71 406h-92l15 84h92l14 73c4 23.333 11.167 44.666 21.5 63.999s23.833 35.833 40.5 49.5s36.5 24.334 59.5 32.001s49.5 11.5 79.5 11.5h230l-127 -720h-92z" />
    <glyph glyph-name="f_b" unicode="fb" horiz-adv-x="947" 
d="M619 -16c-33.333 0 -63.5 7.99805 -90.5 23.998s-47.5 36 -61.5 60h-4l-12 -68h-87l112 636h-138c-54.667 0 -87 -28 -97 -84l-11 -62h119l-15 -84h-119l-71 -406h-92l71 406h-92l15 84h92l14 73c4 23.333 11.167 44.666 21.5 63.999s23.833 35.833 40.5 49.5
s36.5 24.334 59.5 32.001s49.5 11.5 79.5 11.5h230l-41 -230l-16 -68h4c16.667 22.667 38.667 42.334 66 59.001s62 25 104 25c28.667 0 55.334 -5.33301 80.001 -16s46.167 -25.834 64.5 -45.501s32.666 -43.667 42.999 -72s15.5 -60.166 15.5 -95.499
c0 -38 -7.16699 -74.5 -21.5 -109.5s-34.166 -66.167 -59.499 -93.5s-55.333 -49.166 -90 -65.499s-72.334 -24.5 -113.001 -24.5zM626 67.998c25.333 0 49.167 5.16699 71.5 15.5s41.666 24.666 57.999 42.999s29.333 39.833 39 64.5s14.5 51.334 14.5 80.001
c0 47.333 -11.5 84.333 -34.5 111s-56.5 40 -100.5 40c-26 0 -50.333 -5.83301 -73 -17.5s-42.167 -27.167 -58.5 -46.5s-29.166 -41.5 -38.499 -66.5s-14 -50.833 -14 -77.5c0 -48 13 -84.333 39 -109s58.333 -37 97 -37z" />
    <glyph glyph-name="f_f" unicode="ff" horiz-adv-x="680" 
d="M657 724c16 0 30.165 -1.83105 42.498 -5.49805s23.166 -8.5 32.499 -14.5l-38 -78c-5.33301 3.33301 -12 6.16602 -20 8.49902s-16.667 3.5 -26 3.5c-23.333 0 -43.666 -6.83301 -60.999 -20.5s-28.666 -35.5 -33.999 -65.5l-11 -62h128l-15 -84h-128l-71 -406h-92
l71 406h-220l-71 -406h-92l71 406h-92l15 84h92l13 71c9.33301 52 31.5 92.167 66.5 120.5s77.5 42.5 127.5 42.5c16 0 30.167 -1.83301 42.5 -5.5s23.166 -8.5 32.499 -14.5l-38 -78c-5.33301 3.33301 -12 6.16602 -20 8.49902s-16.667 3.5 -26 3.5
c-23.333 0 -43.666 -6.83301 -60.999 -20.5s-28.666 -35.5 -33.999 -65.5l-11 -62h220l13 71c9.33301 52 31.5 92.167 66.5 120.5s77.5 42.5 127.5 42.5z" />
    <glyph glyph-name="f_f_b" unicode="ffb" horiz-adv-x="1259" 
d="M931 -16c-33.333 0 -63.501 7.99902 -90.501 23.999s-47.5 36 -61.5 60h-4l-12 -68h-87l112 636h-138c-54.667 0 -87 -28 -97 -84l-11 -62h119l-15 -84h-119l-71 -406h-92l71 406h-220l-71 -406h-92l71 406h-92l15 84h92l13 71c9.33301 52 31.5 92.167 66.5 120.5
s77.5 42.5 127.5 42.5c16 0 30.167 -1.83301 42.5 -5.5s23.166 -8.5 32.499 -14.5l-38 -78c-5.33301 3.33301 -12 6.16602 -20 8.49902s-16.667 3.5 -26 3.5c-23.333 0 -43.666 -6.83301 -60.999 -20.5s-28.666 -35.5 -33.999 -65.5l-11 -62h220l14 73
c4 23.333 11.167 44.666 21.5 63.999s23.833 35.833 40.5 49.5s36.5 24.334 59.5 32.001s49.5 11.5 79.5 11.5h230l-41 -230l-16 -68h4c16.667 22.667 38.667 42.334 66 59.001s62 25 104 25c28.667 0 55.334 -5.33301 80.001 -16s46.167 -25.834 64.5 -45.501
s32.666 -43.667 42.999 -72s15.5 -60.166 15.5 -95.499c0 -38 -7.16699 -74.5 -21.5 -109.5s-34.166 -66.167 -59.499 -93.5s-55.333 -49.166 -90 -65.499s-72.334 -24.5 -113.001 -24.5zM937.999 67.999c25.333 0 49.167 5.16699 71.5 15.5s41.666 24.666 57.999 42.999
s29.333 39.833 39 64.5s14.5 51.334 14.5 80.001c0 47.333 -11.5 84.333 -34.5 111s-56.5 40 -100.5 40c-26 0 -50.333 -5.83301 -73 -17.5s-42.167 -27.167 -58.5 -46.5s-29.166 -41.5 -38.499 -66.5s-14 -50.833 -14 -77.5c0 -48 13 -84.333 39 -109s58.333 -37 97 -37z
" />
    <glyph glyph-name="f_f_h" unicode="ffh" horiz-adv-x="1225" 
d="M854 490l-16.001 -67.998h4c18 24 42 44 72 60s62.667 24 98 24c27.333 0 51 -3.83301 71 -11.5s36.333 -18.167 49 -31.5s22 -28.833 28 -46.5s9 -36.5 9 -56.5c0 -8 -0.5 -16.833 -1.5 -26.5s-2.83301 -22.167 -5.5 -37.5l-53 -296h-92l52 294
c1.33301 6.66699 2.33301 13.167 3 19.5s1 12.166 1 17.499c0 30 -8.83301 52.667 -26.5 68s-41.5 23 -71.5 23c-20.667 0 -40 -4.33301 -58 -13s-34 -20.167 -48 -34.5s-25.833 -30.833 -35.5 -49.5s-16.167 -38 -19.5 -58l-46 -267h-92l112 636h-138
c-54.667 0 -87 -28 -97 -84l-11 -62h119l-15 -84h-119l-71 -406h-92l71 406h-220l-71 -406h-92l71 406h-92l15 84h92l13 71c9.33301 52 31.5 92.167 66.5 120.5s77.5 42.5 127.5 42.5c16 0 30.167 -1.83301 42.5 -5.5s23.166 -8.5 32.499 -14.5l-38 -78
c-5.33301 3.33301 -12 6.16602 -20 8.49902s-16.667 3.5 -26 3.5c-23.333 0 -43.666 -6.83301 -60.999 -20.5s-28.666 -35.5 -33.999 -65.5l-11 -62h220l14 73c4 23.333 11.167 44.666 21.5 63.999s23.833 35.833 40.5 49.5s36.5 24.334 59.5 32.001s49.5 11.5 79.5 11.5
h230z" />
    <glyph glyph-name="f_f_i" unicode="ffi" horiz-adv-x="896" 
d="M657 724c16 0 30.165 -1.83105 42.498 -5.49805s23.166 -8.5 32.499 -14.5l-38 -78c-5.33301 3.33301 -12 6.16602 -20 8.49902s-16.667 3.5 -26 3.5c-23.333 0 -43.666 -6.83301 -60.999 -20.5s-28.666 -35.5 -33.999 -65.5l-11 -62h312l-86 -490h-92l71 406h-220
l-71 -406h-92l71 406h-220l-71 -406h-92l71 406h-92l15 84h92l13 71c9.33301 52 31.5 92.167 66.5 120.5s77.5 42.5 127.5 42.5c16 0 30.167 -1.83301 42.5 -5.5s23.166 -8.5 32.499 -14.5l-38 -78c-5.33301 3.33301 -12 6.16602 -20 8.49902s-16.667 3.5 -26 3.5
c-23.333 0 -43.666 -6.83301 -60.999 -20.5s-28.666 -35.5 -33.999 -65.5l-11 -62h220l13 71c9.33301 52 31.5 92.167 66.5 120.5s77.5 42.5 127.5 42.5zM837.998 594.002c-18 0 -33.333 6.33301 -46 19s-19 28 -19 46s6.33301 33.333 19 46s28 19 46 19
s33.333 -6.33301 46 -19s19 -28 19 -46s-6.33301 -33.333 -19 -46s-28 -19 -46 -19z" />
    <glyph glyph-name="f_f_j" unicode="ffj" horiz-adv-x="896" 
d="M657 724c16 0 30.1641 -1.83008 42.4971 -5.49707s23.166 -8.5 32.499 -14.5l-38 -78c-5.33301 3.33301 -12 6.16602 -20 8.49902s-16.667 3.5 -26 3.5c-23.333 0 -43.666 -6.83301 -60.999 -20.5s-28.666 -35.5 -33.999 -65.5l-11 -62h312l-100 -568
c-4.66699 -27.333 -12 -50.333 -22 -69s-22.167 -33.834 -36.5 -45.501s-30.5 -20.167 -48.5 -25.5s-37.667 -8 -59 -8s-39.666 3.33301 -54.999 10l35 80c8 -4 18 -6 30 -6c34.667 0 56 21.667 64 65l85 483h-220l-71 -406h-92l71 406h-220l-71 -406h-92l71 406h-92l15 84
h92l13 71c9.33301 52 31.5 92.167 66.5 120.5s77.5 42.5 127.5 42.5c16 0 30.167 -1.83301 42.5 -5.5s23.166 -8.5 32.499 -14.5l-38 -78c-5.33301 3.33301 -12 6.16602 -20 8.49902s-16.667 3.5 -26 3.5c-23.333 0 -43.666 -6.83301 -60.999 -20.5
s-28.666 -35.5 -33.999 -65.5l-11 -62h220l13 71c9.33301 52 31.5 92.167 66.5 120.5s77.5 42.5 127.5 42.5zM837.997 594.003c-18 0 -33.333 6.33301 -46 19s-19 28 -19 46s6.33301 33.333 19 46s28 19 46 19s33.333 -6.33301 46 -19s19 -28 19 -46
s-6.33301 -33.333 -19 -46s-28 -19 -46 -19z" />
    <glyph glyph-name="f_f_k" unicode="ffk" horiz-adv-x="1166" 
d="M817 278l245.999 212.001h121l-1 -4l-225 -190l149 -292l-1 -4h-108l-114 233l-88 -75l-28 -158h-92l112 636h-138c-54.667 0 -87 -28 -97 -84l-11 -62h119l-15 -84h-119l-71 -406h-92l71 406h-220l-71 -406h-92l71 406h-92l15 84h92l13 71
c9.33301 52 31.5 92.167 66.5 120.5s77.5 42.5 127.5 42.5c16 0 30.167 -1.83301 42.5 -5.5s23.166 -8.5 32.499 -14.5l-38 -78c-5.33301 3.33301 -12 6.16602 -20 8.49902s-16.667 3.5 -26 3.5c-23.333 0 -43.666 -6.83301 -60.999 -20.5s-28.666 -35.5 -33.999 -65.5
l-11 -62h220l14 73c4 23.333 11.167 44.666 21.5 63.999s23.833 35.833 40.5 49.5s36.5 24.334 59.5 32.001s49.5 11.5 79.5 11.5h230z" />
    <glyph glyph-name="f_f_l" unicode="ffl" horiz-adv-x="888" 
d="M676 0l111.999 636.001h-138c-54.667 0 -87 -28 -97 -84l-11 -62h119l-15 -84h-119l-71 -406h-92l71 406h-220l-71 -406h-92l71 406h-92l15 84h92l13 71c9.33301 52 31.5 92.167 66.5 120.5s77.5 42.5 127.5 42.5c16 0 30.167 -1.83301 42.5 -5.5
s23.166 -8.5 32.499 -14.5l-38 -78c-5.33301 3.33301 -12 6.16602 -20 8.49902s-16.667 3.5 -26 3.5c-23.333 0 -43.666 -6.83301 -60.999 -20.5s-28.666 -35.5 -33.999 -65.5l-11 -62h220l14 73c4 23.333 11.167 44.666 21.5 63.999s23.833 35.833 40.5 49.5
s36.5 24.334 59.5 32.001s49.5 11.5 79.5 11.5h230l-127 -720h-92z" />
    <glyph glyph-name="f_f_t" unicode="fft" horiz-adv-x="983" 
d="M818 -8c-16.667 0 -32.334 2.66895 -47.001 8.00195s-27.334 12.833 -38.001 22.5s-19.167 21.5 -25.5 35.5s-9.5 29.667 -9.5 47c0 5.33301 0.333008 12.333 1 21s2 18.334 4 29.001l44 251h-220l-71 -406h-92l71 406h-220l-71 -406h-92l71 406h-92l15 84h92l13 71
c9.33301 52 31.5 92.167 66.5 120.5s77.5 42.5 127.5 42.5c16 0 30.167 -1.83301 42.5 -5.5s23.166 -8.5 32.499 -14.5l-38 -78c-5.33301 3.33301 -12 6.16602 -20 8.49902s-16.667 3.5 -26 3.5c-23.333 0 -43.666 -6.83301 -60.999 -20.5s-28.666 -35.5 -33.999 -65.5
l-11 -62h220l13 71c9.33301 52 31.5 92.167 66.5 120.5s77.5 42.5 127.5 42.5c16 0 30.167 -1.83301 42.5 -5.5s23.166 -8.5 32.499 -14.5l-38 -78c-5.33301 3.33301 -12 6.16602 -20 8.49902s-16.667 3.5 -26 3.5c-23.333 0 -43.666 -6.83301 -60.999 -20.5
s-28.666 -35.5 -33.999 -65.5l-11 -62h220l27 150h92l-27 -150h120l-15 -84h-120l-42 -238c-1.33301 -8.66699 -2.33301 -16 -3 -22c-1.33301 -6.66699 -2 -12.667 -2 -18c0 -14.667 4 -26.667 12 -36s20.333 -14 37 -14c11.333 0 19.833 0.666992 25.5 2
s12.167 3.66602 19.5 6.99902l15 -82c-13.333 -4.66699 -26.5 -8 -39.5 -10s-27.5 -3 -43.5 -3z" />
    <glyph glyph-name="f_h" unicode="fh" horiz-adv-x="913" 
d="M542 490l-16 -67.999h4c18 24 42 44 72 60s62.667 24 98 24c27.333 0 51 -3.83301 71 -11.5s36.333 -18.167 49 -31.5s22 -28.833 28 -46.5s9 -36.5 9 -56.5c0 -8 -0.5 -16.833 -1.5 -26.5s-2.83301 -22.167 -5.5 -37.5l-53 -296h-92l52 294
c1.33301 6.66699 2.33301 13.167 3 19.5s1 12.166 1 17.499c0 30 -8.83301 52.667 -26.5 68s-41.5 23 -71.5 23c-20.667 0 -40 -4.33301 -58 -13s-34 -20.167 -48 -34.5s-25.833 -30.833 -35.5 -49.5s-16.167 -38 -19.5 -58l-46 -267h-92l112 636h-138
c-54.667 0 -87 -28 -97 -84l-11 -62h119l-15 -84h-119l-71 -406h-92l71 406h-92l15 84h92l14 73c4 23.333 11.167 44.666 21.5 63.999s23.833 35.833 40.5 49.5s36.5 24.334 59.5 32.001s49.5 11.5 79.5 11.5h230z" />
    <glyph glyph-name="f_j" unicode="fj" horiz-adv-x="584" 
d="M144 0l-92.002 0.00195312l71 406h-92l15 84h92l13 71c9.33301 52 31.5 92.167 66.5 120.5s77.5 42.5 127.5 42.5c16 0 30.167 -1.83301 42.5 -5.5s23.166 -8.5 32.499 -14.5l-38 -78c-5.33301 3.33301 -12 6.16602 -20 8.49902s-16.667 3.5 -26 3.5
c-23.333 0 -43.666 -6.83301 -60.999 -20.5s-28.666 -35.5 -33.999 -65.5l-11 -62h312l-100 -568c-4.66699 -27.333 -12 -50.333 -22 -69s-22.167 -33.834 -36.5 -45.501s-30.5 -20.167 -48.5 -25.5s-37.667 -8 -59 -8s-39.666 3.33301 -54.999 10l35 80c8 -4 18 -6 30 -6
c34.667 0 56 21.667 64 65l85 483h-220zM525.998 594.002c-18 0 -33.333 6.33301 -46 19s-19 28 -19 46s6.33301 33.333 19 46s28 19 46 19s33.333 -6.33301 46 -19s19 -28 19 -46s-6.33301 -33.333 -19 -46s-28 -19 -46 -19z" />
    <glyph glyph-name="f_k" unicode="fk" horiz-adv-x="854" 
d="M505 278l246 212h121l-1 -4l-225 -190l149 -292l-1 -4h-108l-114 233l-88 -75l-28 -158h-92l112 636h-138c-54.667 0 -87 -28 -97 -84l-11 -62h119l-15 -84h-119l-71 -406h-92l71 406h-92l15 84h92l14 73c4 23.333 11.167 44.666 21.5 63.999s23.833 35.833 40.5 49.5
s36.5 24.334 59.5 32.001s49.5 11.5 79.5 11.5h230z" />
    <glyph glyph-name="f_t" unicode="ft" horiz-adv-x="671" 
d="M345 724c16 0 30.168 -1.83203 42.501 -5.49902s23.166 -8.5 32.499 -14.5l-38 -78c-5.33301 3.33301 -12 6.16602 -20 8.49902s-16.667 3.5 -26 3.5c-23.333 0 -43.666 -6.83301 -60.999 -20.5s-28.666 -35.5 -33.999 -65.5l-11 -62h220l27 150h92l-27 -150h120l-15 -84
h-120l-42 -238c-1.33301 -8.66699 -2.33301 -16 -3 -22c-1.33301 -6.66699 -2 -12.667 -2 -18c0 -14.667 4 -26.667 12 -36s20.333 -14 37 -14c11.333 0 19.833 0.666992 25.5 2s12.167 3.66602 19.5 6.99902l15 -82c-13.333 -4.66699 -26.5 -8 -39.5 -10s-27.5 -3 -43.5 -3
c-16.667 0 -32.334 2.66699 -47.001 8s-27.334 12.833 -38.001 22.5s-19.167 21.5 -25.5 35.5s-9.5 29.667 -9.5 47c0 5.33301 0.333008 12.333 1 21s2 18.334 4 29.001l44 251h-220l-71 -406h-92l71 406h-92l15 84h92l13 71c9.33301 52 31.5 92.167 66.5 120.5
s77.5 42.5 127.5 42.5z" />
    <glyph glyph-name="r_f" unicode="rf" horiz-adv-x="748" 
d="M725 724c16 0 30.166 -1.83203 42.499 -5.49902s23.166 -8.5 32.499 -14.5l-38 -78c-5.33301 3.33301 -12 6.16602 -20 8.49902s-16.667 3.5 -26 3.5c-23.333 0 -43.666 -6.83301 -60.999 -20.5s-28.666 -35.5 -33.999 -65.5l-11 -62h128l-15 -84h-128l-71 -406h-92
l71 406h-92l15 84h92l13 71c9.33301 52 31.5 92.167 66.5 120.5s77.5 42.5 127.5 42.5zM152.999 410.001l4 0.000976562c14.667 31.333 37.834 54.833 69.501 70.5s65.834 23.5 102.501 23.5c9.33301 0 16 -0.166992 20 -0.5s8.33301 -0.833008 13 -1.5l-17 -96
c-4.66699 1.33301 -10.334 2.33301 -17.001 3s-14.667 1 -24 1c-20.667 0 -40.5 -3.5 -59.5 -10.5s-36.333 -17.167 -52 -30.5s-28.834 -29.333 -39.501 -48s-18 -39.334 -22 -62.001l-46 -259h-92l86 490h88z" />
    <glyph glyph-name="r_f_f" unicode="rff" horiz-adv-x="1060" 
d="M153 410l4 0.000976562c14.667 31.333 37.834 54.833 69.501 70.5s65.834 23.5 102.501 23.5c9.33301 0 16 -0.166992 20 -0.5s8.33301 -0.833008 13 -1.5l-17 -96c-4.66699 1.33301 -10.334 2.33301 -17.001 3s-14.667 1 -24 1c-20.667 0 -40.5 -3.5 -59.5 -10.5
s-36.333 -17.167 -52 -30.5s-28.834 -29.333 -39.501 -48s-18 -39.334 -22 -62.001l-46 -259h-92l86 490h88zM1037 724.001c16 0 30.165 -1.83105 42.498 -5.49805s23.166 -8.5 32.499 -14.5l-38 -78c-5.33301 3.33301 -12 6.16602 -20 8.49902s-16.667 3.5 -26 3.5
c-23.333 0 -43.666 -6.83301 -60.999 -20.5s-28.666 -35.5 -33.999 -65.5l-11 -62h128l-15 -84h-128l-71 -406h-92l71 406h-220l-71 -406h-92l71 406h-92l15 84h92l13 71c9.33301 52 31.5 92.167 66.5 120.5s77.5 42.5 127.5 42.5c16 0 30.167 -1.83301 42.5 -5.5
s23.166 -8.5 32.499 -14.5l-38 -78c-5.33301 3.33301 -12 6.16602 -20 8.49902s-16.667 3.5 -26 3.5c-23.333 0 -43.666 -6.83301 -60.999 -20.5s-28.666 -35.5 -33.999 -65.5l-11 -62h220l13 71c9.33301 52 31.5 92.167 66.5 120.5s77.5 42.5 127.5 42.5z" />
    <glyph glyph-name="r_t" unicode="rt" horiz-adv-x="734" 
d="M569 -8c-16.667 0 -32.332 2.66699 -46.999 8s-27.334 12.833 -38.001 22.5s-19.167 21.5 -25.5 35.5s-9.5 29.667 -9.5 47c0 5.33301 0.333008 12.333 1 21s2 18.334 4 29.001l44 251h-86l15 84h86l27 150h92l-27 -150h120l-15 -84h-120l-42 -238
c-1.33301 -8.66699 -2.33301 -16 -3 -22c-1.33301 -6.66699 -2 -12.667 -2 -18c0 -14.667 4 -26.667 12 -36s20.333 -14 37 -14c11.333 0 19.833 0.666992 25.5 2s12.167 3.66602 19.5 6.99902l15 -82c-13.333 -4.66699 -26.5 -8 -39.5 -10s-27.5 -3 -43.5 -3zM153.002 410
l4 0.000976562c14.667 31.333 37.834 54.833 69.501 70.5s65.834 23.5 102.501 23.5c9.33301 0 16 -0.166992 20 -0.5s8.33301 -0.833008 13 -1.5l-17 -96c-4.66699 1.33301 -10.334 2.33301 -17.001 3s-14.667 1 -24 1c-20.667 0 -40.5 -3.5 -59.5 -10.5
s-36.333 -17.167 -52 -30.5s-28.834 -29.333 -39.501 -48s-18 -39.334 -22 -62.001l-46 -259h-92l86 490h88z" />
    <glyph glyph-name="t_f" unicode="tf" horiz-adv-x="675" 
d="M168 168c-1.33301 -8.66699 -2.33203 -15.999 -2.99902 -21.999c-1.33301 -6.66699 -2 -12.667 -2 -18c0 -14.667 4 -26.667 12 -36s20.333 -14 37 -14c11.333 0 19.833 0.666992 25.5 2s12.167 3.66602 19.5 6.99902l15 -82c-13.333 -4.66699 -26.5 -8 -39.5 -10
s-27.5 -3 -43.5 -3c-16.667 0 -32.334 2.66699 -47.001 8s-27.334 12.833 -38.001 22.5s-19.167 21.5 -25.5 35.5s-9.5 29.667 -9.5 47c0 5.33301 0.333008 12.333 1 21s2 18.334 4 29.001l44 251h-86l15 84h86l27 150h92l-27 -150h220l13 71
c9.33301 52 31.5 92.167 66.5 120.5s77.5 42.5 127.5 42.5c16 0 30.167 -1.83301 42.5 -5.5s23.166 -8.5 32.499 -14.5l-38 -78c-5.33301 3.33301 -12 6.16602 -20 8.49902s-16.667 3.5 -26 3.5c-23.333 0 -43.666 -6.83301 -60.999 -20.5s-28.666 -35.5 -33.999 -65.5
l-11 -62h128l-15 -84h-128l-71 -406h-92l71 406h-220z" />
    <glyph glyph-name="t_t" unicode="tt" horiz-adv-x="674" 
d="M509 -8c-16.667 0 -32.3301 2.66699 -46.9971 8s-27.334 12.833 -38.001 22.5s-19.167 21.5 -25.5 35.5s-9.5 29.667 -9.5 47c0 5.33301 0.333008 12.333 1 21s2 18.334 4 29.001l44 251h-228l-42 -238c-1.33301 -8.66699 -2.33301 -16 -3 -22
c-1.33301 -6.66699 -2 -12.667 -2 -18c0 -14.667 4 -26.667 12 -36s20.333 -14 37 -14c11.333 0 19.833 0.666992 25.5 2s12.167 3.66602 19.5 6.99902l15 -82c-13.333 -4.66699 -26.5 -8 -39.5 -10s-27.5 -3 -43.5 -3c-16.667 0 -32.334 2.66699 -47.001 8
s-27.334 12.833 -38.001 22.5s-19.167 21.5 -25.5 35.5s-9.5 29.667 -9.5 47c0 5.33301 0.333008 12.333 1 21s2 18.334 4 29.001l44 251h-86l15 84h86l27 150h92l-27 -150h228l27 150h92l-27 -150h120l-15 -84h-120l-42 -238c-1.33301 -8.66699 -2.33301 -16 -3 -22
c-1.33301 -6.66699 -2 -12.667 -2 -18c0 -14.667 4 -26.667 12 -36s20.333 -14 37 -14c11.333 0 19.833 0.666992 25.5 2s12.167 3.66602 19.5 6.99902l15 -82c-13.333 -4.66699 -26.5 -8 -39.5 -10s-27.5 -3 -43.5 -3z" />
    <glyph glyph-name=".notdef" horiz-adv-x="570" 
d="M72 716h426v-716h-426v716zM136 60h298v596h-298v-596z" />
    <glyph glyph-name="NULL" horiz-adv-x="0" 
d="M0 0z" />
    <glyph glyph-name="NULL" horiz-adv-x="0" 
d="M0 0z" />
    <glyph glyph-name="uni000D" unicode="&#xd;" horiz-adv-x="0" 
d="M0 0z" />
    <glyph glyph-name="space" unicode=" " horiz-adv-x="220" 
d="M0 0z" />
    <glyph glyph-name="exclam" unicode="!" horiz-adv-x="232" 
d="M65 -6c-19.333 0 -35.5 6.5 -48.5 19.5s-19.5 29.167 -19.5 48.5s6.5 35.5 19.5 48.5s29.167 19.5 48.5 19.5s35.5 -6.5 48.5 -19.5s19.5 -29.167 19.5 -48.5s-6.5 -35.5 -19.5 -48.5s-29.167 -19.5 -48.5 -19.5zM93 490l40 226h92l-40 -226l-57 -268h-72z" />
    <glyph glyph-name="quotedbl" unicode="&#x22;" horiz-adv-x="320" 
d="M215 490l40 226h84l-40 -226h-84zM67 490l40 226h84l-40 -226h-84z" />
    <glyph glyph-name="numbersign" unicode="#" horiz-adv-x="632" 
d="M107 0l35 203h-123l15 76h121l24 135h-125l14 76h124l34 194h80l-34 -194h136l34 194h80l-34 -194h123l-14 -76h-122l-24 -135h126l-14 -76h-125l-35 -203h-80l35 203h-136l-35 -203h-80zM235 279h136l24 135h-136z" />
    <glyph glyph-name="dollar" unicode="$" horiz-adv-x="533" 
d="M170 -12c-20.667 4 -40.8369 10.6689 -60.5039 20.002s-37.5 21.5 -53.5 36.5s-29.5 33 -40.5 54s-18.167 44.5 -21.5 70.5l87 33c2.66699 -30.667 12.834 -57.334 30.501 -80.001s42.5 -37.667 74.5 -45l42 240c-21.333 9.33301 -41.166 20 -59.499 32
s-34.333 25.667 -48 41s-24.5 32.666 -32.5 51.999s-12 41.333 -12 66s5 48 15 70s24.333 41.5 43 58.5s41.5 31 68.5 42s57.833 17.833 92.5 20.5l15 85h76l-16 -88c40.667 -8 72.834 -24.667 96.501 -50s40.167 -53.333 49.5 -84l-88 -35
c-5.33301 18 -13.666 34 -24.999 48s-27.333 24 -48 30l-40 -227c22.667 -11.333 43.5 -23 62.5 -35s35 -25.333 48 -40s23.167 -31.167 30.5 -49.5s11 -38.833 11 -61.5c0 -30.667 -5.66699 -58 -17 -82s-26.833 -44.833 -46.5 -62.5s-43 -31.667 -70 -42
s-56.167 -16.833 -87.5 -19.5l-15 -86h-76zM372.997 184.002c0 25.333 -6.66797 45.5 -20.001 60.5s-31.666 28.5 -54.999 40.5l-37 -211c15.333 2 29.833 5.66699 43.5 11s25.5 12.5 35.5 21.5s18 19.833 24 32.5s9 27.667 9 45zM169.996 506.002
c0 -38 24.667 -70.002 74 -96.002l35 200c-32 -3.33301 -58.167 -13.166 -78.5 -29.499s-30.5 -41.166 -30.5 -74.499z" />
    <glyph glyph-name="percent" unicode="%" horiz-adv-x="814" 
d="M98 33l562 659l50 -42l-561 -658zM208 358c-22 0 -42 3.66406 -60 10.9971s-33.5 17.666 -46.5 30.999s-23.167 29 -30.5 47s-11 38 -11 60c0 26.667 5 51.834 15 75.501s24 44.167 42 61.5s39.167 31 63.5 41s50.5 15 78.5 15c22 0 42 -3.66699 60 -11
s33.5 -17.666 46.5 -30.999s23.167 -29 30.5 -47s11 -38 11 -60c0 -27.333 -5 -52.666 -15 -75.999s-24 -43.666 -42 -60.999s-39.167 -31 -63.5 -41s-50.5 -15 -78.5 -15zM217 424.997c33.333 0 60.833 11.333 82.5 34s32.5 51.334 32.5 86.001
c0 27.333 -7.83301 48.833 -23.5 64.5s-35.167 23.5 -58.5 23.5c-34 0 -61.667 -11.333 -83 -34s-32 -51.334 -32 -86.001c0 -27.333 7.83301 -48.833 23.5 -64.5s35.167 -23.5 58.5 -23.5zM551 -16.0029c-22 0 -42 3.66406 -60 10.9971s-33.5 17.666 -46.5 30.999
s-23.167 29 -30.5 47s-11 38 -11 60c0 26.667 5 51.834 15 75.501s24 44.167 42 61.5s39.167 31 63.5 41s50.5 15 78.5 15c22 0 42 -3.66699 60 -11s33.5 -17.666 46.5 -30.999s23.167 -29 30.5 -47s11 -38 11 -60c0 -27.333 -5 -52.666 -15 -75.999
s-24 -43.666 -42 -60.999s-39.167 -31 -63.5 -41s-50.5 -15 -78.5 -15zM560 50.9941c33.333 0 60.833 11.333 82.5 34s32.5 51.334 32.5 86.001c0 27.333 -7.83301 48.833 -23.5 64.5s-35.167 23.5 -58.5 23.5c-34 0 -61.667 -11.333 -83 -34s-32 -51.334 -32 -86.001
c0 -27.333 7.83301 -48.833 23.5 -64.5s35.167 -23.5 58.5 -23.5z" />
    <glyph glyph-name="ampersand" unicode="&#x26;" horiz-adv-x="618" 
d="M469 121l55 -93.0029l-81 -44l-38 65c-52 -43.333 -111.667 -65 -179 -65c-30 0 -58.5 5 -85.5 15s-50.5 24.5 -70.5 43.5s-35.833 42 -47.5 69s-17.5 57.5 -17.5 91.5c0 52 13.167 99.333 39.5 142s68.166 77.667 125.499 105c-9.33301 16.667 -17.166 34 -23.499 52
s-9.5 37.333 -9.5 58s4 41.334 12 62.001s19.833 39.167 35.5 55.5s35 29.5 58 39.5s49.5 15 79.5 15c46 0 82 -11.5 108 -34.5s44.333 -53.833 55 -92.5l-91 -36c-2 8 -4.66699 16.333 -8 25s-8.33301 16.834 -15 24.501s-14.667 13.834 -24 18.501s-21 7 -35 7
c-22 0 -41 -7.5 -57 -22.5s-24 -35.5 -24 -61.5c0 -13.333 2.16699 -26 6.5 -38s9.83301 -23.667 16.5 -35l174 -296l75 109l60 -44zM235 67.9971c28 0 52.334 4.16895 73.001 12.502s39.667 20.5 57 36.5l-155 265c-16.667 -8 -32.334 -17.5 -47.001 -28.5
s-27.334 -23.833 -38.001 -38.5s-19.167 -30.834 -25.5 -48.501s-9.5 -37.167 -9.5 -58.5c0 -18.667 3.5 -36.334 10.5 -53.001s16.833 -31.5 29.5 -44.5s27.834 -23.333 45.501 -31s37.5 -11.5 59.5 -11.5z" />
    <glyph glyph-name="quotesingle" unicode="'" horiz-adv-x="172" 
d="M67 490l40 226h84l-40 -226h-84z" />
    <glyph glyph-name="parenleft" unicode="(" horiz-adv-x="330" 
d="M375 732c-35.333 -33.333 -67.001 -67.8311 -95.001 -103.498s-51.667 -73.834 -71 -114.501s-34.333 -83.834 -45 -129.501s-16 -94.834 -16 -147.501c0 -67.333 8.83301 -127.666 26.5 -180.999s39.5 -101.333 65.5 -144l-66 -48
c-14.667 20.667 -29.167 44.5 -43.5 71.5s-27 57 -38 90s-20 68.5 -27 106.5s-10.5 78.667 -10.5 122c0 52 6.66699 103 20 153s31.833 97.5 55.5 142.5s51.834 87.167 84.501 126.5s68.667 74 108 104z" />
    <glyph glyph-name="parenright" unicode=")" horiz-adv-x="330" 
d="M-43 -88c34.667 32.667 66.1689 66.999 94.502 102.999s52.166 74.333 71.499 115s34.333 83.834 45 129.501s16 94.834 16 147.501c0 67.333 -8.83301 127.666 -26.5 180.999s-39.5 101.333 -65.5 144l66 48c14.667 -20.667 29.167 -44.5 43.5 -71.5s27 -57 38 -90
s20 -68.667 27 -107s10.5 -78.833 10.5 -121.5c0 -52 -6.66699 -103 -20 -153s-31.833 -97.5 -55.5 -142.5s-51.834 -87.167 -84.501 -126.5s-68.667 -74 -108 -104z" />
    <glyph glyph-name="asterisk" unicode="*" horiz-adv-x="436" 
d="M111 635l104 -40l5 2l21 119h76l-21 -119l5 -2l105 37l24 -70l-117 -43l-3 -7l57 -99l-70 -45l-57 102h-6l-92 -102l-57 49l99 105l-1 7l-101 38z" />
    <glyph glyph-name="plus" unicode="+" horiz-adv-x="550" 
d="M304 309h181l-13 -76h-181l-32 -181h-76l32 181h-181l13 76h181l32 181h76z" />
    <glyph glyph-name="comma" unicode="," horiz-adv-x="232" 
d="M-22 -81l67 81.001c-3.33301 1.33301 -7.33301 3.5 -12 6.5s-9 7 -13 12s-7.5 11.167 -10.5 18.5s-4.5 15.666 -4.5 24.999c0 19.333 6.83301 35.5 20.5 48.5s29.167 19.5 46.5 19.5c19.333 0 35.666 -6.5 48.999 -19.5s20 -29.167 20 -48.5
c0 -11.333 -4.16699 -23 -12.5 -35s-18.166 -25 -29.499 -39l-84 -100z" />
    <glyph glyph-name="hyphen" unicode="-" horiz-adv-x="432" 
d="M53 348h320l-13 -76h-320z" />
    <glyph glyph-name="period" unicode="." horiz-adv-x="232" 
d="M64 -6c-19.333 0 -35.5 6.5 -48.5 19.5s-19.5 29.167 -19.5 48.5s6.5 35.5 19.5 48.5s29.167 19.5 48.5 19.5s35.5 -6.5 48.5 -19.5s19.5 -29.167 19.5 -48.5s-6.5 -35.5 -19.5 -48.5s-29.167 -19.5 -48.5 -19.5z" />
    <glyph glyph-name="slash" unicode="/" horiz-adv-x="437" 
d="M-38 0l423 716h88l-424 -716h-87z" />
    <glyph glyph-name="zero" unicode="0" horiz-adv-x="638" 
d="M267 -16c-35.333 0 -67.333 6.99805 -96 20.998s-53 33.833 -73 59.5s-35.333 56.834 -46 93.501s-16 78 -16 124c0 56.667 8.5 110.334 25.5 161.001s40.5 95 70.5 133s65.333 68.167 106 90.5s84.667 33.5 132 33.5c73.333 0 130.333 -26 171 -78s61 -124.667 61 -218
c0 -57.333 -8.5 -111.5 -25.5 -162.5s-40.5 -95.5 -70.5 -133.5s-65.333 -68.167 -106 -90.5s-85 -33.5 -133 -33.5zM275 71.998c30 0 58.8311 8.33203 86.498 24.999s52.334 39.5 74.001 68.5s39 63.333 52 103s19.5 82.167 19.5 127.5c0 66 -12.167 118.5 -36.5 157.5
s-61.5 58.5 -111.5 58.5c-28.667 0 -56.667 -8.66699 -84 -26s-51.666 -40.833 -72.999 -70.5s-38.5 -64 -51.5 -103s-19.5 -80.5 -19.5 -124.5c0 -69.333 13 -122.666 39 -159.999s61 -56 105 -56z" />
    <glyph glyph-name="one" unicode="1" horiz-adv-x="384" 
d="M143 0l100 567l-134 -54l-30 77l218 94h59l-121 -684h-92z" />
    <glyph glyph-name="two" unicode="2" horiz-adv-x="520" 
d="M-20 0l15.9971 91.999l122 106l50 43l48 42l42.5 37l32.5 29l42 38.5c13.333 12.333 24.833 24.833 34.5 37.5s17.334 26 23.001 40s8.5 29.333 8.5 46c0 30.667 -9.66699 55.167 -29 73.5s-46.666 27.5 -81.999 27.5c-18.667 0 -35.167 -3.33301 -49.5 -10
s-27 -15 -38 -25s-20 -20.667 -27 -32s-12.5 -22 -16.5 -32l-82 37c6.66699 17.333 16 35 28 53s27.333 34.167 46 48.5s40.5 26 65.5 35s53.5 13.5 85.5 13.5c28 0 53.833 -4.33301 77.5 -13s44.334 -20.834 62.001 -36.501s31.334 -34.167 41.001 -55.5
s14.5 -44.333 14.5 -69c0 -25.333 -4 -48.666 -12 -69.999s-18.833 -41.5 -32.5 -60.5s-29.334 -37.167 -47.001 -54.5s-36.5 -34.666 -56.5 -51.999l-22 -19c-9.33301 -8.66699 -20 -18 -32 -28l-38 -32l-40 -35l-101 -87h316l-15 -88h-435z" />
    <glyph glyph-name="three" unicode="3" horiz-adv-x="531" 
d="M211 -16c-24 0 -47.668 3.50488 -71.001 10.5049s-44.666 17.5 -63.999 31.5s-35.666 31.667 -48.999 53s-21.666 46.666 -24.999 75.999l90 35c4 -37.333 17.667 -66.333 41 -87s53 -31 89 -31c20 0 39 2.83301 57 8.5s33.833 14.167 47.5 25.5s24.5 25.166 32.5 41.499
s12 35.166 12 56.499c0 36 -11.5 63.5 -34.5 82.5s-51.833 28.5 -86.5 28.5h-59l15 86h52c44 0 79 10 105 30s39 49 39 87c0 28.667 -10.333 51.5 -31 68.5s-46 25.5 -76 25.5c-17.333 0 -32.833 -2.83301 -46.5 -8.5s-25.667 -12.834 -36 -21.501
s-19.333 -18.334 -27 -29.001s-13.834 -21.334 -18.501 -32.001l-82 38c8 18 18.333 35.5 31 52.5s28 32 46 45s39 23.5 63 31.5s51 12 81 12c27.333 0 52.666 -4.16699 75.999 -12.5s43.5 -20 60.5 -35s30.333 -32.667 40 -53s14.5 -42.5 14.5 -66.5
c0 -44 -11.167 -79.5 -33.5 -106.5s-50.833 -47.833 -85.5 -62.5v-4c23.333 -10.667 43.833 -28.667 61.5 -54s26.5 -56 26.5 -92c0 -35.333 -6.83301 -67.166 -20.5 -95.499s-32.167 -52.5 -55.5 -72.5s-50.5 -35.333 -81.5 -46s-63.5 -16 -97.5 -16z" />
    <glyph glyph-name="four" unicode="4" horiz-adv-x="589" 
d="M301 0l26 144h-325l12 70l395 470h105l-80 -454h88l-15 -86h-88l-26 -144h-92zM398 549h-4l-262 -319h210z" />
    <glyph glyph-name="five" unicode="5" horiz-adv-x="555" 
d="M216 -16c-23.333 0 -46.667 3.83203 -70 11.499s-44.833 19.167 -64.5 34.5s-36.167 34.5 -49.5 57.5s-21.333 50.167 -24 81.5l88 33c3.33301 -37.333 15.333 -68.333 36 -93s50 -37 88 -37c24 0 46.333 3.66699 67 11s38.667 17.833 54 31.5s27.5 30 36.5 49
s13.5 40.5 13.5 64.5c0 38 -10.833 68.833 -32.5 92.5s-51.5 35.5 -89.5 35.5c-23.333 0 -46 -5.33301 -68 -16s-41 -25 -57 -43l-86 40l105 347h359l-15 -88h-284l-60 -196l4 -1c17.333 12.667 36.833 22.667 58.5 30s44.167 11 67.5 11c28.667 0 54.667 -4.66699 78 -14
s43.5 -22.666 60.5 -39.999s30.167 -38.5 39.5 -63.5s14 -53.167 14 -84.5c0 -34 -6.5 -66.5 -19.5 -97.5s-31.333 -58 -55 -81s-52 -41.333 -85 -55s-69.5 -20.5 -109.5 -20.5z" />
    <glyph glyph-name="six" unicode="6" horiz-adv-x="549" 
d="M304 434c26 0 50.3311 -5.16504 72.998 -15.498s42.167 -24.5 58.5 -42.5s29.333 -39.667 39 -65s14.5 -53 14.5 -83c0 -38 -7.16699 -72.167 -21.5 -102.5s-33.333 -56 -57 -77s-51 -37 -82 -48s-63.5 -16.5 -97.5 -16.5c-30 0 -58.333 5.16699 -85 15.5
s-49.667 24.666 -69 42.999s-34.666 40.333 -45.999 66s-17 54.167 -17 85.5c0 22 2.5 42.667 7.5 62s12.5 38.166 22.5 56.499s22.333 37 37 56s31.667 39.5 51 61.5l237 270l65 -51l-201 -230l2 -2c10 5.33301 20.333 9.5 31 12.5s23.334 4.5 38.001 4.5zM237.998 72.002
c22 0 42.499 3.5 61.499 10.5s35.667 17 50 30s25.5 28.667 33.5 47s12 38.833 12 61.5c0 38.667 -12.167 70.167 -36.5 94.5s-56.166 36.5 -95.499 36.5c-23.333 0 -44.5 -4 -63.5 -12s-35.333 -19 -49 -33s-24.167 -30.5 -31.5 -49.5s-11 -39.5 -11 -61.5
c0 -18 3.5 -34.667 10.5 -50s16.5 -28.5 28.5 -39.5s25.833 -19.5 41.5 -25.5s32.167 -9 49.5 -9z" />
    <glyph glyph-name="seven" unicode="7" horiz-adv-x="523" 
d="M16 37l409 559h-342l17 88h441l-16 -94l-439 -606z" />
    <glyph glyph-name="eight" unicode="8" horiz-adv-x="544" 
d="M214 -16c-31.333 0 -59.6689 4.66797 -85.002 14.001s-47 22.166 -65 38.499s-31.833 35.5 -41.5 57.5s-14.5 45.333 -14.5 70c0 45.333 13.5 85 40.5 119s61.5 59 103.5 75l1 4c-17.333 14 -32.666 31.167 -45.999 51.5s-20 46.166 -20 77.499c0 28 6 54.667 18 80
s28.667 47.5 50 66.5s46.5 34.167 75.5 45.5s60.5 17 94.5 17c56 0 100.833 -15.167 134.5 -45.5s50.5 -71.5 50.5 -123.5c0 -23.333 -3.66699 -44 -11 -62s-16.666 -34 -27.999 -48s-24 -25.833 -38 -35.5s-27.333 -17.5 -40 -23.5l-1 -4c23.333 -12 43.5 -31 60.5 -57
s25.5 -55 25.5 -87c0 -35.333 -7.33301 -67.166 -22 -95.499s-34.167 -52.5 -58.5 -72.5s-52.5 -35.333 -84.5 -46s-65 -16 -99 -16zM284.997 401.001c18.667 0 36.168 3 52.501 9s30.166 14.333 41.499 25s20.333 22.667 27 36s10 27.666 10 42.999
c0 32 -9.5 56.333 -28.5 73s-43.167 25 -72.5 25c-18.667 0 -36.167 -2.83301 -52.5 -8.5s-30.5 -13.5 -42.5 -23.5s-21.333 -22.167 -28 -36.5s-10 -30.166 -10 -47.499c0 -29.333 9.66699 -52.5 29 -69.5s44 -25.5 74 -25.5zM221.998 72.001
c18.667 0 37.668 3.16699 57.001 9.5s36.666 15.333 51.999 27s27.833 26 37.5 43s14.5 36.167 14.5 57.5c0 16 -3.16699 30.5 -9.5 43.5s-15 24.167 -26 33.5s-24 16.5 -39 21.5s-31.167 7.5 -48.5 7.5c-20 0 -39.5 -3.33301 -58.5 -10s-35.667 -16.167 -50 -28.5
s-26 -27.333 -35 -45s-13.5 -37.167 -13.5 -58.5c0 -30.667 11.333 -55.167 34 -73.5s51 -27.5 85 -27.5z" />
    <glyph glyph-name="nine" unicode="9" horiz-adv-x="549" 
d="M248 250c-26 0 -50.499 5.16504 -73.499 15.498s-43 24.5 -60 42.5s-30.5 39.667 -40.5 65s-15 53 -15 83c0 38 7.16699 72.167 21.5 102.5s33.333 56 57 77s51 37 82 48s63.5 16.5 97.5 16.5c30 0 58.333 -5.16699 85 -15.5s49.667 -24.666 69 -42.999
s34.666 -40.5 45.999 -66.5s17 -54.333 17 -85c0 -22 -2.5 -42.667 -7.5 -62s-12.5 -38.166 -22.5 -56.499s-22.333 -37 -37 -56s-31.667 -39.5 -51 -61.5l-237 -270l-65 51l201 230l-2 2c-10 -5.33301 -20.333 -9.5 -31 -12.5s-22 -4.5 -34 -4.5zM310.001 611.998
c-22 0 -42.499 -3.5 -61.499 -10.5s-35.667 -17 -50 -30s-25.5 -28.667 -33.5 -47s-12 -38.833 -12 -61.5c0 -38.667 12.167 -70.167 36.5 -94.5s56.166 -36.5 95.499 -36.5c23.333 0 44.5 4 63.5 12s35.333 19 49 33s24.167 30.5 31.5 49.5s11 39.5 11 61.5
c0 18 -3.5 34.5 -10.5 49.5s-16.5 28 -28.5 39s-25.833 19.667 -41.5 26s-32.167 9.5 -49.5 9.5z" />
    <glyph glyph-name="colon" unicode=":" horiz-adv-x="232" 
d="M64 -6c-19.333 0 -35.5 6.5 -48.5 19.5s-19.5 29.167 -19.5 48.5s6.5 35.5 19.5 48.5s29.167 19.5 48.5 19.5s35.5 -6.5 48.5 -19.5s19.5 -29.167 19.5 -48.5s-6.5 -35.5 -19.5 -48.5s-29.167 -19.5 -48.5 -19.5zM129 360c-19.333 0 -35.5 6.5 -48.5 19.5
s-19.5 29.167 -19.5 48.5s6.5 35.5 19.5 48.5s29.167 19.5 48.5 19.5s35.5 -6.5 48.5 -19.5s19.5 -29.167 19.5 -48.5s-6.5 -35.5 -19.5 -48.5s-29.167 -19.5 -48.5 -19.5z" />
    <glyph glyph-name="semicolon" unicode=";" horiz-adv-x="232" 
d="M129 360c-19.333 0 -35.5 6.5 -48.5 19.5s-19.5 29.167 -19.5 48.5s6.5 35.5 19.5 48.5s29.167 19.5 48.5 19.5s35.5 -6.5 48.5 -19.5s19.5 -29.167 19.5 -48.5s-6.5 -35.5 -19.5 -48.5s-29.167 -19.5 -48.5 -19.5zM-22 -62l67 81.001
c-3.33301 1.33301 -7.33301 3.5 -12 6.5s-9 7 -13 12s-7.5 11.167 -10.5 18.5s-4.5 15.666 -4.5 24.999c0 19.333 6.83301 35.5 20.5 48.5s29.167 19.5 46.5 19.5c19.333 0 35.666 -6.5 48.999 -19.5s20 -29.167 20 -48.5c0 -11.333 -4.16699 -23 -12.5 -35
s-18.166 -25 -29.499 -39l-84 -100z" />
    <glyph glyph-name="less" unicode="&#x3c;" horiz-adv-x="506" 
d="M35 237l11 68l423 185l-15 -88l-316 -132l-1 -4l269 -135l-14 -79z" />
    <glyph glyph-name="equal" unicode="=" horiz-adv-x="562" 
d="M72 452h450l-13 -76h-450zM39 262h450l-14 -76h-450z" />
    <glyph glyph-name="greater" unicode="&#x3e;" horiz-adv-x="506" 
d="M440 305l-11 -68l-423 -185l15 88l316 132l1 4l-269 135l14 79z" />
    <glyph glyph-name="question" unicode="?" horiz-adv-x="493" 
d="M167 222l7.99805 47.001c2.66699 15.333 6.33398 29.166 11.001 41.499s11.334 24.333 20.001 36s19.5 23.667 32.5 36s29.5 25.833 49.5 40.5l34.5 27c11.667 9.33301 22 19.5 31 30.5s16.333 22.667 22 35s8.5 25.5 8.5 39.5c0 26 -9 47.333 -27 64s-43 25 -75 25
c-17.333 0 -33 -2.66699 -47 -8s-26.333 -12.5 -37 -21.5s-19.667 -19.167 -27 -30.5s-13 -23.333 -17 -36l-80 36c6.66699 20 16.334 39 29.001 57s28.167 33.667 46.5 47s39.666 24 63.999 32s51.5 12 81.5 12c26.667 0 51.334 -4.33301 74.001 -13
s42.167 -20.334 58.5 -35.001s29 -32 38 -52s13.5 -41.333 13.5 -64c0 -22 -3.66699 -42.167 -11 -60.5s-17 -35.333 -29 -51s-25.833 -30.334 -41.5 -44.001s-32.167 -27.167 -49.5 -40.5c-22.667 -17.333 -40.834 -34.666 -54.501 -51.999s-22.167 -36.666 -25.5 -57.999
l-7 -40h-94zM184.998 -5.99902c-19.333 0 -35.5 6.5 -48.5 19.5s-19.5 29.167 -19.5 48.5s6.5 35.5 19.5 48.5s29.167 19.5 48.5 19.5s35.5 -6.5 48.5 -19.5s19.5 -29.167 19.5 -48.5s-6.5 -35.5 -19.5 -48.5s-29.167 -19.5 -48.5 -19.5z" />
    <glyph glyph-name="at" unicode="@" horiz-adv-x="868" 
d="M482 690c46.667 0 90.8301 -7.83398 132.497 -23.501s78.334 -37.834 110.001 -66.501s56.834 -63.167 75.501 -103.5s28 -85.166 28 -134.499c0 -34 -4.16699 -66.833 -12.5 -98.5s-20.333 -60 -36 -85s-34.834 -45 -57.501 -60s-48.334 -22.5 -77.001 -22.5
c-26 0 -48.167 6.5 -66.5 19.5s-31.166 30.833 -38.499 53.5c-17.333 -23.333 -39 -41.333 -65 -54s-53.333 -19 -82 -19c-22 0 -43.333 4.33301 -64 13s-39 20.667 -55 36s-28.833 34 -38.5 56s-14.5 46.667 -14.5 74c0 26.667 4.83301 53.667 14.5 81s24 52 43 74
s42.333 39.833 70 53.5s59.834 20.5 96.501 20.5c30 0 55.5 -6 76.5 -18s36.5 -25.667 46.5 -41h4l8 45h72l-46 -261c-0.666992 -3.33301 -1.16699 -6.83301 -1.5 -10.5s-0.5 -7.16699 -0.5 -10.5c0 -10.667 3.66699 -21.167 11 -31.5s20 -15.5 38 -15.5
c15.333 0 29.333 6 42 18s23.5 27.5 32.5 46.5s15.833 40.333 20.5 64s7 47.167 7 70.5c0 39.333 -7 74.833 -21 106.5s-33.5 58.834 -58.5 81.501s-55.333 40 -91 52s-74.834 18 -117.501 18c-51.333 0 -98.666 -8.83301 -141.999 -26.5s-80.666 -42 -111.999 -73
s-55.833 -67.833 -73.5 -110.5s-26.5 -88.667 -26.5 -138c0 -41.333 7.33301 -79 22 -113s34.5 -63.5 59.5 -88.5s54 -44.333 87 -58s68.167 -20.5 105.5 -20.5c50.667 0 96 9.33301 136 28l23 -67c-26 -11.333 -52.667 -19.666 -80 -24.999s-56 -8 -86 -8
c-50 0 -96 9.16699 -138 27.5s-78.333 43.333 -109 75s-54.5 68.667 -71.5 111s-25.5 87.166 -25.5 134.499c0 59.333 11.167 114.833 33.5 166.5s53.166 96.5 92.499 134.5s86.333 68 141 90s114.334 33 179.001 33zM412.996 171.999c18.667 0 36.333 3.66699 53 11
s31.167 17.5 43.5 30.5s22 28.167 29 45.5s10.5 36.333 10.5 57c0 34 -9.66699 61.167 -29 81.5s-46 30.5 -80 30.5c-21.333 0 -40.333 -4 -57 -12s-31 -18.833 -43 -32.5s-21.167 -29.5 -27.5 -47.5s-9.5 -37.333 -9.5 -58c0 -36 10.833 -62.667 32.5 -80
s47.5 -26 77.5 -26z" />
    <glyph glyph-name="A" unicode="A" horiz-adv-x="668" 
d="M345 716h104l143 -716h-99l-34 194h-301l-105 -194h-104zM442 280l-60 323h-4l-174 -323h238z" />
    <glyph glyph-name="B" unicode="B" horiz-adv-x="594" 
d="M135 716l245.002 -0.000976562c30 0 56.667 -4.66699 80 -14s43.166 -22 59.499 -38s28.666 -34.667 36.999 -56s12.5 -43.666 12.5 -66.999c0 -22.667 -3.5 -43.167 -10.5 -61.5s-16.333 -34.5 -28 -48.5s-25.167 -25.833 -40.5 -35.5s-31 -17.5 -47 -23.5l-1 -4
c28.667 -15.333 51.667 -34.833 69 -58.5s26 -53.834 26 -90.501c0 -31.333 -6.66699 -60.333 -20 -87s-31.5 -49.667 -54.5 -69s-50 -34.666 -81 -45.999s-64.5 -17 -100.5 -17h-273zM339.002 408.999c19.333 0 37.333 2.5 54 7.5s31.167 12.5 43.5 22.5s22 22.333 29 37
s10.5 31.667 10.5 51c0 27.333 -8.83301 51 -26.5 71s-43.5 30 -77.5 30h-161l-39 -219h167zM301.002 87.999c16 0 32.5 2.66895 49.5 8.00195s32.167 13.166 45.5 23.499s24.333 23.666 33 39.999s13 35.5 13 57.5c0 32 -10.333 57.667 -31 77s-48.667 29 -84 29h-170
l-41 -235h185z" />
    <glyph glyph-name="C" unicode="C" horiz-adv-x="729" 
d="M652 111c-22.667 -21.333 -45.335 -39.998 -68.002 -55.998s-46.167 -29.333 -70.5 -40s-50.166 -18.5 -77.499 -23.5s-57 -7.5 -89 -7.5c-46 0 -88.333 7.66699 -127 23s-72 37 -100 65s-49.833 61.667 -65.5 101s-23.5 83.333 -23.5 132
c0 55.333 10.833 108.666 32.5 159.999s51.834 96.833 90.501 136.5s84.5 71.334 137.5 95.001s110.833 35.5 173.5 35.5c28 0 54.333 -3.16699 79 -9.5s47.5 -14.833 68.5 -25.5s39.833 -23.334 56.5 -38.001s30.334 -30.334 41.001 -47.001l-74 -61
c-22 32 -47.333 55.5 -76 70.5s-63.667 22.5 -105 22.5c-46 0 -89.167 -9.33301 -129.5 -28s-75.333 -43.5 -105 -74.5s-53 -66.5 -70 -106.5s-25.5 -81.667 -25.5 -125c0 -36 5.83301 -68.667 17.5 -98s28 -54.333 49 -75s45.667 -36.667 74 -48s59.166 -17 92.499 -17
c50 0 93.333 9.5 130 28.5s71.667 44.833 105 77.5z" />
    <glyph glyph-name="D" unicode="D" horiz-adv-x="691" 
d="M135 716l219.001 0.000976562c50 0 94.167 -8 132.5 -24s70.333 -37.833 96 -65.5s45.167 -60.334 58.5 -98.001s20 -78.167 20 -121.5c0 -53.333 -9.5 -104.5 -28.5 -153.5s-46.5 -92.333 -82.5 -130s-80.333 -67.667 -133 -90s-112.334 -33.5 -179.001 -33.5h-230z
M243.001 88.001c46 0 88.667 8 128 24s73.5 38.167 102.5 66.5s51.667 61.5 68 99.5s24.5 79 24.5 123c0 74 -20 130.333 -60 169s-96 58 -168 58h-127l-95 -540h127z" />
    <glyph glyph-name="E" unicode="E" horiz-adv-x="542" 
d="M211 628l-40 -227h294l-15 -86h-294l-40 -227h326l-16 -88h-418l127 716h418l-16 -88h-326z" />
    <glyph glyph-name="F" unicode="F" horiz-adv-x="522" 
d="M135 716h418l-16 -88h-326l-41 -235h294l-15 -86h-294l-55 -307h-92z" />
    <glyph glyph-name="G" unicode="G" horiz-adv-x="801" 
d="M413 383l347.003 -0.00195312c0 -8.66699 -0.5 -17.167 -1.5 -25.5l-3.5 -28.5c-8 -49.333 -21.5 -92.666 -40.5 -129.999s-42.5 -70.666 -70.5 -99.999c-73.333 -76.667 -170.666 -115 -291.999 -115c-41.333 0 -81.333 7.5 -120 22.5s-72.834 36.667 -102.501 65
s-53.5 62.833 -71.5 103.5s-27 86.667 -27 138c0 56 10.5 109.333 31.5 160s50.667 95.167 89 133.5s84.333 68.833 138 91.5s113.5 34 179.5 34c26 0 51.333 -2.66699 76 -8s47.667 -12.666 69 -21.999s40.666 -20.833 57.999 -34.5s31.666 -28.834 42.999 -45.501l-75 -63
c-16.667 26.667 -41.834 47.5 -75.501 62.5s-70.5 22.5 -110.5 22.5c-46 0 -89 -8.33301 -129 -25s-74.833 -39.667 -104.5 -69s-52.834 -64 -69.501 -104s-25 -83.333 -25 -130c0 -39.333 6.5 -74.166 19.5 -104.499s30.5 -55.833 52.5 -76.5s47.333 -36.334 76 -47.001
s58.667 -16 90 -16c44 0 83.833 7.5 119.5 22.5s66.834 36.5 93.501 64.5c34.667 36 59.667 82 75 138h-254z" />
    <glyph glyph-name="H" unicode="H" horiz-adv-x="686" 
d="M135 716h92l-55 -307h358l55 307h92l-127 -716h-92l57 323h-358l-57 -323h-92z" />
    <glyph glyph-name="I" unicode="I" horiz-adv-x="236" 
d="M135 716h92l-127 -716h-92z" />
    <glyph glyph-name="J" unicode="J" horiz-adv-x="524" 
d="M185 -16c-26 0 -50.3311 3.83398 -72.998 11.501s-42.667 18.834 -60 33.501s-31.5 32.167 -42.5 52.5s-17.833 43.166 -20.5 68.499l90 35c2 -21.333 6.5 -39.166 13.5 -53.499s15.833 -25.833 26.5 -34.5s22.667 -15 36 -19s27.333 -6 42 -6
c19.333 0 37.333 3.66699 54 11s31.667 17.5 45 30.5s24.5 28.167 33.5 45.5s15.167 35.666 18.5 54.999l88 502h92l-87 -494c-7.33301 -41.333 -18.833 -76.833 -34.5 -106.5s-34.834 -54.334 -57.501 -74.001s-47.834 -34.167 -75.501 -43.5s-57.167 -14 -88.5 -14z" />
    <glyph glyph-name="K" unicode="K" horiz-adv-x="622" 
d="M664 712l-320 -307l213 -401l-1 -4h-109l-176 334l-134 -127l-37 -207h-92l127 716h92l-64 -366h4l376 366h122z" />
    <glyph glyph-name="L" unicode="L" horiz-adv-x="498" 
d="M135 716h92l-111 -628h310l-16 -88h-402z" />
    <glyph glyph-name="M" unicode="M" horiz-adv-x="830" 
d="M135 716h88l172 -436h4l323 436h99l-127 -716h-92l75 425l25 120h-4l-293 -393h-54l-155 393h-4l-17 -120l-75 -425h-92z" />
    <glyph glyph-name="N" unicode="N" horiz-adv-x="696" 
d="M135 716h105l256 -557h4l21 138l74 419h92l-127 -716h-88l-269 584h-4l-20 -138l-79 -446h-92z" />
    <glyph glyph-name="O" unicode="O" horiz-adv-x="810" 
d="M358 -16c-46 0 -88.8301 7.83301 -128.497 23.5s-74.334 37.834 -104.001 66.501s-52.834 62.834 -69.501 102.501s-25 83.5 -25 131.5c0 54.667 10.167 107.5 30.5 158.5s49 96.167 86 135.5s81.5 70.833 133.5 94.5s109.667 35.5 173 35.5
c45.333 0 87.833 -7.83301 127.5 -23.5s74.167 -37.834 103.5 -66.501s52.333 -62.834 69 -102.501s25 -83.5 25 -131.5c0 -54.667 -10.167 -107.5 -30.5 -158.5s-49 -96.167 -86 -135.5s-81.333 -70.833 -133 -94.5s-108.834 -35.5 -171.501 -35.5zM367.003 72
c44.667 0 86.167 9.33203 124.5 27.999s71.833 43.334 100.5 74.001s51.167 65.834 67.5 105.501s24.5 80.167 24.5 121.5c0 38 -6.33301 72 -19 102s-29.834 55.5 -51.501 76.5s-47.167 37 -76.5 48s-60.666 16.5 -93.999 16.5c-44.667 0 -86.334 -9.33301 -125.001 -28
s-72.167 -43.334 -100.5 -74.001s-50.666 -65.667 -66.999 -105s-24.5 -80 -24.5 -122c0 -38 6.33301 -72 19 -102s29.834 -55.5 51.501 -76.5s47.167 -37 76.5 -48s60.666 -16.5 93.999 -16.5z" />
    <glyph glyph-name="P" unicode="P" horiz-adv-x="564" 
d="M8 0l126.998 716.002h238c28 0 54 -4.5 78 -13.5s44.667 -21.667 62 -38s30.833 -36 40.5 -59s14.5 -48.167 14.5 -75.5c0 -38 -6.66699 -71.833 -20 -101.5s-31.666 -54.834 -54.999 -75.501s-51.166 -36.334 -83.499 -47.001s-67.5 -16 -105.5 -16h-152l-52 -290h-92z
M320.998 378.002c20.667 0 40.168 2.66699 58.501 8s34.5 13.666 48.5 24.999s25 25.833 33 43.5s12 38.834 12 63.501c0 34 -10.333 60.833 -31 80.5s-46.334 29.5 -77.001 29.5h-154l-44 -250h154z" />
    <glyph glyph-name="Q" unicode="Q" horiz-adv-x="810" 
d="M358 -16c-46 0 -88.832 7.83301 -128.499 23.5s-74.334 37.834 -104.001 66.501s-52.834 62.834 -69.501 102.501s-25 83.5 -25 131.5c0 54.667 10.167 107.5 30.5 158.5s49 96.167 86 135.5s81.5 70.833 133.5 94.5s109.667 35.5 173 35.5
c45.333 0 87.833 -7.83301 127.5 -23.5s74.167 -37.834 103.5 -66.501s52.333 -62.834 69 -102.501s25 -83.5 25 -131.5c0 -68 -15.5 -132.333 -46.5 -193s-73.5 -111 -127.5 -151l34 -70l-82 -42l-33 66c-25.333 -10.667 -51.666 -19 -78.999 -25s-56.333 -9 -87 -9z
M367.001 72c21.333 0 41.499 2.16797 60.499 6.50098s37.833 10.5 56.5 18.5l-63 129l83 44l60 -122c36.667 32 65.834 70.167 87.501 114.5s32.5 90.5 32.5 138.5c0 38 -6.33301 72 -19 102s-29.834 55.5 -51.501 76.5s-47.167 37 -76.5 48s-60.666 16.5 -93.999 16.5
c-44.667 0 -86.334 -9.33301 -125.001 -28s-72.167 -43.334 -100.5 -74.001s-50.666 -65.667 -66.999 -105s-24.5 -80 -24.5 -122c0 -38 6.33301 -72 19 -102s29.834 -55.5 51.501 -76.5s47.167 -37 76.5 -48s60.666 -16.5 93.999 -16.5z" />
    <glyph glyph-name="R" unicode="R" horiz-adv-x="578" 
d="M135 716l236.999 0.00195312c28 0 54 -4.5 78 -13.5s44.833 -21.833 62.5 -38.5s31.334 -36.834 41.001 -60.501s14.5 -50.167 14.5 -79.5s-5 -56.5 -15 -81.5s-24 -47.333 -42 -67s-39.833 -36.334 -65.5 -50.001s-54.167 -23.5 -85.5 -29.5l-3 -3l148 -289l-1 -4h-104
l-144 290h-104l-52 -290h-92zM314.999 376.002c21.333 0 41.6689 3.16797 61.002 9.50098s36.166 15.666 50.499 27.999s25.666 27.666 33.999 45.999s12.5 39.5 12.5 63.5c0 28.667 -9.83301 53.334 -29.5 74.001s-48.5 31 -86.5 31h-146l-44 -252h148z" />
    <glyph glyph-name="S" unicode="S" horiz-adv-x="553" 
d="M224 -16c-28.667 0 -55.6709 4.16797 -81.0039 12.501s-48.166 20.833 -68.499 37.5s-37.166 37 -50.499 61s-22.333 51.667 -27 83l89 36c2 -20 6.5 -38.5 13.5 -55.5s16.833 -32 29.5 -45s27.834 -23.167 45.501 -30.5s37.834 -11 60.501 -11
c19.333 0 38.5 3.16699 57.5 9.5s35.833 15.333 50.5 27s26.5 25.667 35.5 42s13.5 34.833 13.5 55.5c0 30 -10 54.167 -30 72.5s-52.333 36.166 -97 53.499l-43 16c-18 6.66699 -35.5 15 -52.5 25s-32.167 22.167 -45.5 36.5s-24.166 31 -32.499 50
s-12.5 41.167 -12.5 66.5c0 30 6.5 57.667 19.5 83s30.5 47 52.5 65s47.667 32.167 77 42.5s60.333 15.5 93 15.5c35.333 0 65.666 -5 90.999 -15s46.333 -22.5 63 -37.5s29.334 -31.167 38.001 -48.5s14 -33 16 -47l-89 -33c-1.33301 9.33301 -4.33301 19.5 -9 30.5
s-12 21.167 -22 30.5s-22.667 17 -38 23s-34.333 9 -57 9c-18.667 0 -36.5 -2.5 -53.5 -7.5s-31.833 -12.167 -44.5 -21.5s-22.667 -20.833 -30 -34.5s-11 -29.167 -11 -46.5c0 -28 9.5 -50.333 28.5 -67s45.833 -31.334 80.5 -44.001l43 -16
c22 -8 42.833 -17.833 62.5 -29.5s36.667 -25 51 -40s25.833 -32.333 34.5 -52s13 -41.5 13 -65.5c0 -36.667 -6.83301 -69.667 -20.5 -99s-32.334 -54.166 -56.001 -74.499s-51.667 -35.833 -84 -46.5s-66.833 -16 -103.5 -16z" />
    <glyph glyph-name="T" unicode="T" horiz-adv-x="540" 
d="M160 0l111 628h-200l16 88h492l-16 -88h-200l-111 -628h-92z" />
    <glyph glyph-name="U" unicode="U" horiz-adv-x="642" 
d="M258 -16c-29.333 0 -57.333 5.00098 -84 15.001s-50.167 24.167 -70.5 42.5s-36.5 40.833 -48.5 67.5s-18 56.667 -18 90c0 10 0.333008 22.167 1 36.5s3.33398 34.833 8.00098 61.5l74 419h92l-78 -442c-2.66699 -14.667 -4.33398 -26.5 -5.00098 -35.5
s-1 -17.167 -1 -24.5c0 -42 11.667 -76.167 35 -102.5s60 -39.5 110 -39.5c28.667 0 54.5 4.83301 77.5 14.5s43.167 23 60.5 40s31.666 37 42.999 60s19.333 48.167 24 75.5l80 454h92l-82 -465c-15.333 -84.667 -49.166 -150.334 -101.499 -197.001
s-121.833 -70 -208.5 -70z" />
    <glyph glyph-name="V" unicode="V" horiz-adv-x="632" 
d="M75 716h100l93 -581h4l307 581h104l-387 -716h-96z" />
    <glyph glyph-name="W" unicode="W" horiz-adv-x="922" 
d="M652 0h-94l-71 472h-4l-238 -472h-94l-72 716h94l52 -563h4l235 467h88l72 -467h4l245 563h96z" />
    <glyph glyph-name="X" unicode="X" horiz-adv-x="632" 
d="M260 375l-167 341h108l126 -272h4l221 272h113l-288 -348l182 -368h-109l-142 293h-4l-243 -293h-108z" />
    <glyph glyph-name="Y" unicode="Y" horiz-adv-x="594" 
d="M189 0l59 333l-173 383h105l125 -291h4l225 291h111l-305 -383l-59 -333h-92z" />
    <glyph glyph-name="Z" unicode="Z" horiz-adv-x="564" 
d="M-14 96l472 532h-363l16 88h472l-17 -96l-473 -532h383l-16 -88h-491z" />
    <glyph glyph-name="bracketleft" unicode="[" horiz-adv-x="308" 
d="M152 792h204l-13 -76h-121l-134 -764h120l-13 -76h-203z" />
    <glyph glyph-name="backslash" unicode="\" horiz-adv-x="437" 
d="M261 0l-170 716h84l170 -716h-84z" />
    <glyph glyph-name="bracketright" unicode="]" horiz-adv-x="308" 
d="M155 -124h-203l13 76h119l134 764h-119l13 76h204z" />
    <glyph glyph-name="asciicircum" unicode="^" horiz-adv-x="470" 
d="M375 410l-88 218h-4l-161 -218h-101l241 306h72l133 -306h-92z" />
    <glyph glyph-name="underscore" unicode="_" horiz-adv-x="480" 
d="M-68 -140h479l-14 -76h-479z" />
    <glyph glyph-name="grave" unicode="`" horiz-adv-x="400" 
d="M209 588l-49 128h98l29 -128h-78z" />
    <glyph glyph-name="a" unicode="a" horiz-adv-x="510" 
d="M287 506c63.333 0 111.168 -14.666 143.501 -43.999s48.5 -69 48.5 -119c0 -8 -0.5 -16.5 -1.5 -25.5s-2.16699 -18.167 -3.5 -27.5l-52 -290h-88l12 68h-4c-16 -23.333 -38 -43.166 -66 -59.499s-59.333 -24.5 -94 -24.5c-24 0 -46.333 3.5 -67 10.5
s-38.5 17.167 -53.5 30.5s-26.833 29.166 -35.5 47.499s-13 39.166 -13 62.499c0 28 6.16699 53.333 18.5 76s29.166 41.834 50.499 57.501s46.5 27.834 75.5 36.501s60.5 13 94.5 13c27.333 0 51.5 -2.83301 72.5 -8.5s41.167 -12.834 60.5 -21.501l4 21
c1.33301 5.33301 2 12 2 20c0 28.667 -10.333 51.667 -31 69s-48 26 -82 26c-26 0 -49.167 -5 -69.5 -15s-40.166 -26.667 -59.499 -50l-72 51c23.333 31.333 53.166 55.166 89.499 71.499s76.5 24.5 120.5 24.5zM201.002 66.001c20.667 0 40.502 3.66895 59.502 11.002
s36 17.5 51 30.5s27.833 28.333 38.5 46s17.667 36.5 21 56.5c-8 6 -18 11.667 -30 17c-10.667 4 -23.834 7.83301 -39.501 11.5s-34.5 5.5 -56.5 5.5c-16.667 0 -33.167 -2 -49.5 -6s-30.833 -10.333 -43.5 -19s-23 -19.334 -31 -32.001s-12 -27.334 -12 -44.001
c0 -12.667 2.66699 -23.834 8 -33.501s12.166 -17.667 20.499 -24s18 -11.166 29 -14.499s22.5 -5 34.5 -5z" />
    <glyph glyph-name="b" unicode="b" horiz-adv-x="576" 
d="M248 -16c-33.333 0 -63.5 7.99805 -90.5 23.998s-47.5 36 -61.5 60h-4l-12 -68h-87l126 716h92l-40 -226l-16 -68h4c16.667 22.667 38.667 42.334 66 59.001s62 25 104 25c28.667 0 55.334 -5.33301 80.001 -16s46.167 -25.834 64.5 -45.501s32.666 -43.667 42.999 -72
s15.5 -60.166 15.5 -95.499c0 -38 -7.16699 -74.5 -21.5 -109.5s-34.166 -66.167 -59.499 -93.5s-55.333 -49.166 -90 -65.499s-72.334 -24.5 -113.001 -24.5zM255 67.998c25.333 0 49.167 5.16699 71.5 15.5s41.666 24.666 57.999 42.999s29.333 39.833 39 64.5
s14.5 51.334 14.5 80.001c0 47.333 -11.5 84.333 -34.5 111s-56.5 40 -100.5 40c-26 0 -50.333 -5.83301 -73 -17.5s-42.167 -27.167 -58.5 -46.5s-29.166 -41.5 -38.499 -66.5s-14 -50.833 -14 -77.5c0 -48 13 -84.333 39 -109s58.333 -37 97 -37z" />
    <glyph glyph-name="c" unicode="c" horiz-adv-x="522" 
d="M218 -16c-32 0 -61.167 5.83105 -87.5 17.498s-48.666 27.667 -66.999 48s-32.666 44.333 -42.999 72s-15.5 57.167 -15.5 88.5c0 42.667 7.66699 82.167 23 118.5s36.166 67.666 62.499 93.999s57.333 46.833 93 61.5s73.834 22 114.501 22
c30 0 56.333 -4.16699 79 -12.5s42.167 -19.166 58.5 -32.499s29.5 -28.5 39.5 -45.5s17.333 -33.833 22 -50.5l-86 -33c-8 28 -22.167 50 -42.5 66s-47.5 24 -81.5 24c-26.667 0 -51.5 -5.16699 -74.5 -15.5s-42.833 -24.666 -59.5 -42.999s-29.834 -40 -39.501 -65
s-14.5 -52.167 -14.5 -81.5c0 -20 3 -39.167 9 -57.5s14.667 -34.166 26 -47.499s25.666 -24 42.999 -32s37 -12 59 -12c31.333 0 59.5 8.33301 84.5 25s46.167 39.334 63.5 68.001l74 -35c-15.333 -24 -30.833 -45 -46.5 -63s-33 -32.833 -52 -44.5
s-40 -20.334 -63 -26.001s-49.167 -8.5 -78.5 -8.5z" />
    <glyph glyph-name="d" unicode="d" horiz-adv-x="576" 
d="M208 -16c-28.667 0 -55.333 5.33496 -80 16.002s-46.167 25.834 -64.5 45.501s-32.666 43.667 -42.999 72s-15.5 60.166 -15.5 95.499c0 38 7.16699 74.5 21.5 109.5s34.166 66.167 59.499 93.5s55.333 49.166 90 65.499s72.334 24.5 113.001 24.5
c33.333 0 63.5 -8 90.5 -24s47.5 -36 61.5 -60h4l8 68l40 226h92l-126 -716h-88l12 68h-4c-16.667 -22.667 -38.834 -42.334 -66.501 -59.001s-62.5 -25 -104.5 -25zM282.001 422.002c-25.333 0 -49.166 -5.16699 -71.499 -15.5s-41.833 -24.666 -58.5 -42.999
s-29.667 -39.833 -39 -64.5s-14 -51.334 -14 -80.001c0 -47.333 11.5 -84.333 34.5 -111s56.5 -40 100.5 -40c26 0 50.333 5.83301 73 17.5s42.167 27.167 58.5 46.5s29.166 41.5 38.499 66.5s14 50.833 14 77.5c0 48 -13 84.333 -39 109s-58.333 37 -97 37z" />
    <glyph glyph-name="e" unicode="e" horiz-adv-x="536" 
d="M459 116c-26 -43.333 -59.332 -76.1631 -99.999 -98.4961s-84.334 -33.5 -131.001 -33.5c-36 0 -67.833 6 -95.5 18s-51 28.167 -70 48.5s-33.333 44 -43 71s-14.5 55.833 -14.5 86.5c0 38 6.5 74.833 19.5 110.5s31.833 67.5 56.5 95.5s54.5 50.333 89.5 67
s74.167 25 117.5 25c34 0 64 -5.33301 90 -16s47.667 -25.334 65 -44.001s30.333 -40.334 39 -65.001s13 -51.334 13 -80.001c0 -12 -0.666992 -24.667 -2 -38s-3.66602 -25 -6.99902 -35h-386c-0.666992 -6.66699 -1 -12 -1 -16v-13c0 -22 3.83301 -41.333 11.5 -58
s17.834 -30.334 30.501 -41.001s27 -18.667 43 -24s32.333 -8 49 -8c33.333 0 63.166 8 89.499 24s48.166 37.333 65.499 64zM402.001 304.003l-0.00195312 11c0 14 -2.5 27.5 -7.5 40.5s-12.667 24.333 -23 34s-23.166 17.5 -38.499 23.5s-33.333 9 -54 9
c-40 0 -74.167 -10.833 -102.5 -32.5s-48.166 -50.167 -59.499 -85.5h285z" />
    <glyph glyph-name="f" unicode="f" horiz-adv-x="368" 
d="M345 724c16 0 30.166 -1.83203 42.499 -5.49902s23.166 -8.5 32.499 -14.5l-38 -78c-5.33301 3.33301 -12 6.16602 -20 8.49902s-16.667 3.5 -26 3.5c-23.333 0 -43.666 -6.83301 -60.999 -20.5s-28.666 -35.5 -33.999 -65.5l-11 -62h128l-15 -84h-128l-71 -406h-92
l71 406h-92l15 84h92l13 71c9.33301 52 31.5 92.167 66.5 120.5s77.5 42.5 127.5 42.5z" />
    <glyph glyph-name="g" unicode="g" horiz-adv-x="576" 
d="M195 -232c-30.667 0 -57.8369 4.66699 -81.5039 14s-43.667 21.166 -60 35.499s-29.5 30 -39.5 47s-16.667 33.167 -20 48.5l89 34c4.66699 -27.333 17.334 -50 38.001 -68s48.334 -27 83.001 -27c51.333 0 93.333 15.167 126 45.5s53.667 71.5 63 123.5l8 47h-4
c-15.333 -24.667 -37.666 -44.834 -66.999 -60.501s-64 -23.5 -104 -23.5c-28 0 -54.167 5.16699 -78.5 15.5s-45.666 25.333 -63.999 45s-32.833 43.834 -43.5 72.501s-16 61.667 -16 99c0 34 6.5 68.333 19.5 103s31.667 65.834 56 93.501s53.833 50.167 88.5 67.5
s74 26 118 26c38 0 70.167 -8.5 96.5 -25.5s45.5 -36.5 57.5 -58.5h4l12 68h88l-87 -490c-7.33301 -41.333 -20 -76.666 -38 -105.999s-39.5 -53.333 -64.5 -72s-53 -32.334 -84 -41.001s-62.833 -13 -95.5 -13zM249.997 68c26 0 50.3311 5.66699 72.998 17
s42.334 26.833 59.001 46.5s29.834 42.334 39.501 68.001s14.5 53.167 14.5 82.5c0 22.667 -3.5 42.667 -10.5 60s-16.333 32 -28 44s-25.5 21 -41.5 27s-33 9 -51 9c-30 0 -56.667 -6 -80 -18s-43 -27.833 -59 -47.5s-28.167 -41.834 -36.5 -66.501
s-12.5 -49.667 -12.5 -75c0 -48 12.667 -84.5 38 -109.5s57 -37.5 95 -37.5z" />
    <glyph glyph-name="h" unicode="h" horiz-adv-x="542" 
d="M171 490l-16 -67.999h4c18 24 42 44 72 60s62.667 24 98 24c27.333 0 51 -3.83301 71 -11.5s36.333 -18.167 49 -31.5s22 -28.833 28 -46.5s9 -36.5 9 -56.5c0 -8 -0.5 -16.833 -1.5 -26.5s-2.83301 -22.167 -5.5 -37.5l-53 -296h-92l52 294
c1.33301 6.66699 2.33301 13.167 3 19.5s1 12.166 1 17.499c0 30 -8.83301 52.667 -26.5 68s-41.5 23 -71.5 23c-20.667 0 -40 -4.33301 -58 -13s-34 -20.167 -48 -34.5s-25.833 -30.833 -35.5 -49.5s-16.167 -38 -19.5 -58l-46 -267h-92l126 716h92z" />
    <glyph glyph-name="i" unicode="i" horiz-adv-x="220" 
d="M0 0l86 490h92l-86 -490h-92zM162 594c-18 0 -33.333 6.33301 -46 19s-19 28 -19 46s6.33301 33.333 19 46s28 19 46 19s33.333 -6.33301 46 -19s19 -28 19 -46s-6.33301 -33.333 -19 -46s-28 -19 -46 -19z" />
    <glyph glyph-name="j" unicode="j" horiz-adv-x="220" 
d="M-88 -226c-21.333 0 -39.667 3.33398 -55 10.001l35 80c8 -4 18 -6 30 -6c34.667 0 56 21.667 64 65l100 567h92l-100 -568c-4.66699 -27.333 -12 -50.333 -22 -69s-22.167 -33.834 -36.5 -45.501s-30.5 -20.167 -48.5 -25.5s-37.667 -8 -59 -8zM161.999 594.001
c-18 0 -33.333 6.33301 -46 19s-19 28 -19 46s6.33301 33.333 19 46s28 19 46 19s33.333 -6.33301 46 -19s19 -28 19 -46s-6.33301 -33.333 -19 -46s-28 -19 -46 -19z" />
    <glyph glyph-name="k" unicode="k" horiz-adv-x="483" 
d="M135 282l240 208h126l-1 -4l-225 -190l149 -292l-1 -4h-108l-114 233l-88 -75l-28 -158h-92l126 716h92z" />
    <glyph glyph-name="l" unicode="l" horiz-adv-x="204" 
d="M-7 0l126 716h92l-126 -716h-92z" />
    <glyph glyph-name="m" unicode="m" horiz-adv-x="852" 
d="M79 490l88.001 0.000976562l-12 -68h4c17.333 26 39.666 46.5 66.999 61.5s59.333 22.5 96 22.5s67.167 -8.33301 91.5 -25s41.166 -39.667 50.499 -69c18 28.667 42.5 51.5 73.5 68.5s66.833 25.5 107.5 25.5c50.667 0 88.5 -13.333 113.5 -40
s37.5 -60.334 37.5 -101.001c0 -11.333 -0.666992 -23 -2 -35s-3.66602 -26.333 -6.99902 -43l-50 -287h-92l51 292c1.33301 9.33301 2.5 17.833 3.5 25.5s1.5 15.167 1.5 22.5c0 26 -7.33301 46.167 -22 60.5s-37.667 21.5 -69 21.5c-20 0 -38.333 -4.33301 -55 -13
s-31.5 -20 -44.5 -34s-24 -30 -33 -48s-15.167 -36.667 -18.5 -56l-48 -271h-92l51 292c1.33301 9.33301 2.5 17.833 3.5 25.5s1.5 15.167 1.5 22.5c0 26 -7.83301 46.167 -23.5 60.5s-38.167 21.5 -67.5 21.5c-20 0 -38.5 -4.33301 -55.5 -13s-32 -20.167 -45 -34.5
s-23.833 -30.5 -32.5 -48.5s-14.667 -36.333 -18 -55l-48 -271h-92z" />
    <glyph glyph-name="n" unicode="n" horiz-adv-x="542" 
d="M155 422l3.99805 0.000976562c16.667 24 39.334 44 68.001 60s61.334 24 98.001 24c48 0 86.5 -13.667 115.5 -41s43.5 -64 43.5 -110c0 -10 -0.5 -21.333 -1.5 -34s-2.83301 -25.667 -5.5 -39l-50 -282h-92l52 294c2.66699 13.333 4 26.666 4 39.999
c0 30 -9.16699 52.167 -27.5 66.5s-42.833 21.5 -73.5 21.5c-20 0 -38.833 -4 -56.5 -12s-33.334 -18.833 -47.001 -32.5s-25.167 -29.667 -34.5 -48s-15.666 -37.833 -18.999 -58.5l-48 -271h-92l86 490h88z" />
    <glyph glyph-name="o" unicode="o" horiz-adv-x="560" 
d="M298 506c34 0 65.167 -6.16699 93.5 -18.5s52.5 -29.166 72.5 -50.499s35.5 -46.166 46.5 -74.499s16.5 -58.5 16.5 -90.5c0 -40.667 -7.33301 -78.5 -22 -113.5s-35 -65.5 -61 -91.5s-57 -46.333 -93 -61s-75 -22 -117 -22c-34 0 -65.167 6.16699 -93.5 18.5
s-52.5 29.166 -72.5 50.499s-35.5 46.166 -46.5 74.499s-16.5 58.5 -16.5 90.5c0 40.667 7.33301 78.5 22 113.5s35 65.5 61 91.5s57 46.333 93 61s75 22 117 22zM243 68c29.333 0 55.833 5.5 79.5 16.5s43.667 25.667 60 44s28.833 39.333 37.5 63s13 48.5 13 74.5
c0 22.667 -3.83301 43.5 -11.5 62.5s-18 35.5 -31 49.5s-28.333 24.833 -46 32.5s-36.167 11.5 -55.5 11.5c-29.333 0 -55.833 -5.5 -79.5 -16.5s-43.667 -25.667 -60 -44s-28.833 -39.333 -37.5 -63s-13 -48.5 -13 -74.5c0 -22.667 3.83301 -43.5 11.5 -62.5
s18 -35.5 31 -49.5s28.333 -24.833 46 -32.5s36.167 -11.5 55.5 -11.5z" />
    <glyph glyph-name="p" unicode="p" horiz-adv-x="572" 
d="M336 506c28.667 0 55.333 -5.33496 80 -16.002s46.167 -25.834 64.5 -45.501s32.666 -43.667 42.999 -72s15.5 -60.166 15.5 -95.499c0 -38 -7.16699 -74.5 -21.5 -109.5s-34.166 -66.167 -59.499 -93.5s-55.333 -49.166 -90 -65.499s-72.334 -24.5 -113.001 -24.5
c-33.333 0 -63.5 8 -90.5 24s-47.5 36 -61.5 60h-4l-8 -68l-39 -216h-92l125 706h88l-12 -68h4c16.667 22.667 38.834 42.334 66.501 59.001s62.5 25 104.5 25zM261.999 67.998c25.333 0 49.167 5.16699 71.5 15.5s41.666 24.666 57.999 42.999s29.333 39.833 39 64.5
s14.5 51.334 14.5 80.001c0 47.333 -11.5 84.333 -34.5 111s-56.5 40 -100.5 40c-26 0 -50.333 -5.83301 -73 -17.5s-42.167 -27.167 -58.5 -46.5s-29.166 -41.5 -38.499 -66.5s-14 -50.833 -14 -77.5c0 -48 13 -84.333 39 -109s58.333 -37 97 -37z" />
    <glyph glyph-name="q" unicode="q" horiz-adv-x="572" 
d="M329 -216l38.001 216.002l16 68h-4c-16.667 -22.667 -38.834 -42.334 -66.501 -59.001s-62.5 -25 -104.5 -25c-28.667 0 -55.334 5.33301 -80.001 16s-46.167 25.834 -64.5 45.501s-32.666 43.667 -42.999 72s-15.5 60.166 -15.5 95.499c0 38 7.16699 74.5 21.5 109.5
s34.166 66.167 59.499 93.5s55.333 49.166 90 65.499s72.334 24.5 113.001 24.5c33.333 0 63.5 -8 90.5 -24s47.5 -36 61.5 -60h4l12 68h87l-123 -706h-92zM282.001 422.002c-25.333 0 -49.166 -5.16699 -71.499 -15.5s-41.833 -24.666 -58.5 -42.999
s-29.667 -39.833 -39 -64.5s-14 -51.334 -14 -80.001c0 -47.333 11.5 -84.333 34.5 -111s56.5 -40 100.5 -40c26 0 50.333 5.83301 73 17.5s42.167 27.167 58.5 46.5s29.166 41.5 38.499 66.5s14 50.833 14 77.5c0 48 -13 84.333 -39 109s-58.333 37 -97 37z" />
    <glyph glyph-name="r" unicode="r" horiz-adv-x="363" 
d="M-7 0l86.002 490h88l-14 -80h4c15.333 28 37.5 50.667 66.5 68s60.167 26 93.5 26c15.333 0 27.166 -1 35.499 -3s16.833 -5 25.5 -9l-39 -89c-8.66699 2.66699 -16.834 4.5 -24.501 5.5s-17.167 1.5 -28.5 1.5c-18 0 -35.5 -3.66699 -52.5 -11s-32.5 -17.5 -46.5 -30.5
s-25.833 -28.667 -35.5 -47s-16.5 -38.5 -20.5 -60.5l-46 -261h-92z" />
    <glyph glyph-name="s" unicode="s" horiz-adv-x="455" 
d="M186 -16c-28.667 0 -53.999 3.6748 -75.999 11.0078s-41.167 17.166 -57.5 29.499s-29.833 27 -40.5 44s-18.667 35.5 -24 55.5l88 35c6.66699 -30.667 21 -53.834 43 -69.501s47.333 -23.5 76 -23.5c32 0 57.333 6.66699 76 20s28 29.666 28 48.999
c0 18.667 -6 33.667 -18 45s-32 20.666 -60 27.999l-56 15c-35.333 9.33301 -64.5 24.166 -87.5 44.499s-34.5 49.166 -34.5 86.499c0 22 5.33301 42.333 16 61s25 34.667 43 48s39 23.833 63 31.5s49.667 11.5 77 11.5c46.667 0 86.334 -10.833 119.001 -32.5
s54.667 -49.5 66 -83.5l-88 -34c-7.33301 18.667 -19.5 34.667 -36.5 48s-39.167 20 -66.5 20c-28.667 0 -52 -5.5 -70 -16.5s-27 -26.5 -27 -46.5c0 -12.667 5 -24.334 15 -35.001s27.333 -19.334 52 -26.001l63 -17c40 -11.333 71 -28.5 93 -51.5s33 -51.5 33 -85.5
c0 -24.667 -5 -47 -15 -67s-24.333 -37 -43 -51s-40.834 -24.833 -66.501 -32.5s-53.834 -11.5 -84.501 -11.5z" />
    <glyph glyph-name="t" unicode="t" horiz-adv-x="354" 
d="M189 -8c-16.667 0 -32.332 2.66699 -46.999 8s-27.334 12.833 -38.001 22.5s-19.167 21.5 -25.5 35.5s-9.5 29.667 -9.5 47c0 5.33301 0.333008 12.333 1 21s2 18.334 4 29.001l44 251h-86l15 84h86l27 150h92l-27 -150h120l-15 -84h-120l-42 -238
c-1.33301 -8.66699 -2.33301 -16 -3 -22c-1.33301 -6.66699 -2 -12.667 -2 -18c0 -14.667 4 -26.667 12 -36s20.333 -14 37 -14c11.333 0 19.833 0.666992 25.5 2s12.167 3.66602 19.5 6.99902l15 -82c-13.333 -4.66699 -26.5 -8 -39.5 -10s-27.5 -3 -43.5 -3z" />
    <glyph glyph-name="u" unicode="u" horiz-adv-x="542" 
d="M348 68l-3.99805 -0.000976562c-16.667 -24 -39.334 -44 -68.001 -60s-61.334 -24 -98.001 -24c-48 0 -86.5 13.667 -115.5 41s-43.5 64 -43.5 110c0 10 0.5 21.333 1.5 34s2.83301 25.667 5.5 39l50 282h92l-52 -294c-2.66699 -13.333 -4 -26.666 -4 -39.999
c0 -30 9.16699 -52.167 27.5 -66.5s42.833 -21.5 73.5 -21.5c20 0 38.833 4 56.5 12s33.334 18.833 47.001 32.5s25.167 29.667 34.5 48s15.666 37.833 18.999 58.5l48 271h92l-86 -490h-88z" />
    <glyph glyph-name="v" unicode="v" horiz-adv-x="498" 
d="M27 490h98l77 -380h2l213 380h100l-287 -490h-92z" />
    <glyph glyph-name="w" unicode="w" horiz-adv-x="754" 
d="M434 0l-55 376l-188 -376h-93l-71 490h94l43 -370h1l187 370h95l55 -370h1l174 370h96l-245 -490h-94z" />
    <glyph glyph-name="x" unicode="x" horiz-adv-x="472" 
d="M294 0l-90 182h-1l-149 -182h-111l216 252l-124 238h104l86 -172h1l143 172h112l-213 -243l130 -247h-104z" />
    <glyph glyph-name="y" unicode="y" horiz-adv-x="498" 
d="M5 -216l158 247l-121 459h97l86 -353h2l205 353h102l-432 -706h-97z" />
    <glyph glyph-name="z" unicode="z" horiz-adv-x="460" 
d="M-18 80l334 326h-268l15 84h384l-14 -80l-334 -326h280l-15 -84h-395z" />
    <glyph glyph-name="braceleft" unicode="{" horiz-adv-x="318" 
d="M183 -124c-20 0 -38.6689 3.00391 -56.002 9.00391s-32.166 14.5 -44.499 25.5s-22 24.167 -29 39.5s-10.5 32.666 -10.5 51.999c0 14 1 27 3 39l30 171c0.666992 3.33301 1.16699 6.83301 1.5 10.5s0.5 7.16699 0.5 10.5c0 21.333 -5.5 37.166 -16.5 47.499
s-25.833 15.5 -44.5 15.5l13 76c20 0 38.5 6.5 55.5 19.5s28.167 34.5 33.5 64.5l30 171c9.33301 54 29.166 95 59.499 123s74.166 42 131.499 42h26l-13 -76h-22c-25.333 0 -46.666 -7.83301 -63.999 -23.5s-28.666 -38.5 -33.999 -68.5l-31 -171
c-6 -34 -16.167 -59.833 -30.5 -77.5s-33.833 -30.834 -58.5 -39.501l-1 -4c17.333 -6.66699 30.5 -16.334 39.5 -29.001s13.5 -29.667 13.5 -51c0 -12 -1.33301 -24.333 -4 -37l-31 -171c-2 -12 -3 -20.667 -3 -26c0 -22 6.83301 -38.5 20.5 -49.5
s29.834 -16.5 48.501 -16.5h22l-13 -76h-22z" />
    <glyph glyph-name="bar" unicode="|" horiz-adv-x="228" 
d="M152 792h84l-161 -912h-83z" />
    <glyph glyph-name="braceright" unicode="}" horiz-adv-x="318" 
d="M134 792c20 0 38.6689 -3.00195 56.002 -9.00195s32.166 -14.5 44.499 -25.5s22 -24.333 29 -40s10.5 -32.834 10.5 -51.501c0 -14 -1 -27 -3 -39l-30 -171c-0.666992 -3.33301 -1.16699 -6.83301 -1.5 -10.5s-0.5 -7.16699 -0.5 -10.5
c0 -21.333 5.5 -37.166 16.5 -47.499s25.833 -15.5 44.5 -15.5l-13 -76c-20 0 -38.5 -6.5 -55.5 -19.5s-28.167 -34.5 -33.5 -64.5l-30 -171c-9.33301 -54 -29.166 -95 -59.499 -123s-74.166 -42 -131.499 -42h-26l13 76h22c25.333 0 46.666 7.83301 63.999 23.5
s28.666 38.5 33.999 68.5l31 171c6 34 16.167 59.833 30.5 77.5s33.833 30.834 58.5 39.501l1 4c-17.333 6.66699 -30.5 16.334 -39.5 29.001s-13.5 29.667 -13.5 51c0 12 1.33301 24.333 4 37l31 171c2 12 3 20.667 3 26c0 22 -6.83301 38.5 -20.5 49.5
s-29.834 16.5 -48.501 16.5h-22l13 76h22z" />
    <glyph glyph-name="asciitilde" unicode="~" horiz-adv-x="530" 
d="M356 234c-19.333 0 -38.334 3.33301 -57.001 10s-37 14.334 -55 23.001c-18 8 -35.5 15.333 -52.5 22s-33.5 10 -49.5 10c-17.333 0 -31 -5.5 -41 -16.5s-16.667 -22.5 -20 -34.5h-72c4.66699 42 18.5 74.833 41.5 98.5s55.833 35.5 98.5 35.5
c18.667 0 37.334 -3.33301 56.001 -10s37 -14 55 -22c18 -8.66699 35.667 -16.334 53 -23.001s34 -10 50 -10c17.333 0 31 5.5 41 16.5s16.667 22.5 20 34.5h72c-4.66699 -42 -18.5 -74.833 -41.5 -98.5s-55.833 -35.5 -98.5 -35.5z" />
    <glyph glyph-name="uni00A0" unicode="&#xa0;" horiz-adv-x="220" 
d="M0 0z" />
    <glyph glyph-name="exclamdown" unicode="&#xa1;" horiz-adv-x="232" 
d="M139 506c19.333 0 35.5 -6.5 48.5 -19.5s19.5 -29.167 19.5 -48.5s-6.5 -35.5 -19.5 -48.5s-29.167 -19.5 -48.5 -19.5s-35.5 6.5 -48.5 19.5s-19.5 29.167 -19.5 48.5s6.5 35.5 19.5 48.5s29.167 19.5 48.5 19.5zM111 10l-40 -226h-92l40 226l57 268h72z" />
    <glyph glyph-name="cent" unicode="&#xa2;" horiz-adv-x="522" 
d="M194 86c-25.333 4.66699 -48.4961 13.4951 -69.4961 26.4951s-39 29.5 -54 49.5s-26.667 42.667 -35 68s-12.5 52.333 -12.5 81c0 39.333 6.5 75.833 19.5 109.5s31.167 63.167 54.5 88.5s51 45.833 83 61.5s67 25.167 105 28.5l15 85h76l-16 -87
c22 -4 41.5 -10.667 58.5 -20s31.667 -20.166 44 -32.499s22.5 -25.666 30.5 -39.999s14 -28.833 18 -43.5l-87 -34c-6 21.333 -15.333 39.333 -28 54s-29.334 25.334 -50.001 32.001l-61 -345c25.333 6 46.666 16.833 63.999 32.5s33 34.834 47 57.501l76 -35
c-26.667 -43.333 -55.334 -76.166 -86.001 -98.499s-69.334 -35.833 -116.001 -40.5l-15 -84h-76zM116.004 317.995c0 -36 8.00098 -67.332 24.001 -93.999s39 -45 69 -55l61 347c-23.333 -4 -44.333 -11.833 -63 -23.5s-34.834 -26.167 -48.501 -43.5
s-24.167 -37.333 -31.5 -60s-11 -46.334 -11 -71.001z" />
    <glyph glyph-name="sterling" unicode="&#xa3;" horiz-adv-x="519" 
d="M383 523c-3.33301 11.333 -7.50098 22.334 -12.501 33.001s-11.667 20.167 -20 28.5s-18.5 15 -30.5 20s-26.667 7.5 -44 7.5c-18 0 -34.833 -3.33301 -50.5 -10s-29.167 -16 -40.5 -28s-20.166 -26 -26.499 -42s-9.5 -33.333 -9.5 -52c0 -26.667 5.33301 -53 16 -79
c10 -26 19 -52 27 -78h138l-13 -77h-115c-1.33301 -30.667 -9.83301 -59 -25.5 -85s-35.834 -49 -60.501 -69l4 -4h176c24.667 0 44.167 5.16699 58.5 15.5s26.5 24.166 36.5 41.499l70 -32c-18 -36.667 -41 -64.667 -69 -84s-65.333 -29 -112 -29h-309l14 80
c16.667 7.33301 32.5 16.666 47.5 27.999s28.167 24 39.5 38s20.5 29 27.5 45s10.5 33 10.5 51v4h-96l13 77h66l-25 75c-8.66699 25.333 -13 53 -13 83c0 28.667 5.33301 56.334 16 83.001s26.167 50 46.5 70s45 36 74 48s61.833 18 98.5 18c28 0 52.333 -4 73 -12
s38.334 -18.5 53.001 -31.5s26.5 -28 35.5 -45s16.167 -34.833 21.5 -53.5z" />
    <glyph glyph-name="currency" unicode="&#xa4;" horiz-adv-x="598" 
d="M299 106c-24 0 -46.833 3.66602 -68.5 10.999s-41.167 17.666 -58.5 30.999l-59 -57l-53 54l60 58c-11.333 17.333 -20.333 36.333 -27 57s-10 42.334 -10 65.001s3.33301 44.334 10 65.001s15.667 39.667 27 57l-60 59l53 54l59 -57
c17.333 13.333 36.833 23.5 58.5 30.5s44.5 10.5 68.5 10.5s46.833 -3.5 68.5 -10.5s41.167 -17.167 58.5 -30.5l59 57l53 -54l-59 -58c11.333 -17.333 20.166 -36.333 26.499 -57s9.5 -42.667 9.5 -66c0 -22.667 -3.16699 -44.334 -9.5 -65.001
s-15.166 -39.667 -26.499 -57l59 -58l-53 -54l-59 57c-17.333 -13.333 -36.833 -23.666 -58.5 -30.999s-44.5 -11 -68.5 -11zM299 185.999c18 0 35 3.66699 51 11s30 17.166 42 29.499s21.5 27 28.5 44s10.5 35.167 10.5 54.5s-3.5 37.5 -10.5 54.5s-16.5 31.667 -28.5 44
s-26 22.166 -42 29.499s-33 11 -51 11s-35 -3.66699 -51 -11s-30 -17.166 -42 -29.499s-21.5 -27 -28.5 -44s-10.5 -35.167 -10.5 -54.5s3.5 -37.5 10.5 -54.5s16.5 -31.667 28.5 -44s26 -22.166 42 -29.499s33 -11 51 -11z" />
    <glyph glyph-name="yen" unicode="&#xa5;" horiz-adv-x="572" 
d="M328 326l-15 -84h167l-14 -76h-167l-29 -166h-92l29 166h-171l14 76h171l15 84h-171l13 76h122l-131 282h101l121 -282h4l216 282h106l-228 -282h119l-13 -76h-167z" />
    <glyph glyph-name="brokenbar" unicode="&#xa6;" horiz-adv-x="228" 
d="M82 376l67 380h84l-67 -380h-84zM-5 -120l72 412h84l-73 -412h-83z" />
    <glyph glyph-name="section" unicode="&#xa7;" horiz-adv-x="535" 
d="M192 -232c-26 0 -51.3271 4.16797 -75.9941 12.501s-46.834 20.666 -66.501 36.999s-36 36.5 -49 60.5s-20.833 51.667 -23.5 83l87 35c2 -18.667 6.33301 -36.334 13 -53.001s15.667 -31.5 27 -44.5s25 -23.333 41 -31s35 -11.5 57 -11.5
c18.667 0 36.167 2.33301 52.5 7s30.666 11.834 42.999 21.501s22.166 21.5 29.499 35.5s11 30 11 48c0 32.667 -10.833 58 -32.5 76s-54.167 33.667 -97.5 47l-3 1c-47.333 15.333 -86 37.333 -116 66s-45 63.667 -45 105c0 17.333 3.16699 34 9.5 50
s14.833 30.833 25.5 44.5s23.167 26 37.5 37s29.166 20.167 44.499 27.5c-18 15.333 -32.5 33.666 -43.5 54.999s-16.5 44.666 -16.5 69.999s5.16699 49.166 15.5 71.499s25 42 44 59s42.167 30.333 69.5 40s58 14.5 92 14.5c30 0 56.333 -4.16699 79 -12.5
s42 -19.166 58 -32.499s29 -28.833 39 -46.5s17 -35.5 21 -53.5l-91 -35c-1.33301 9.33301 -4.33301 19.5 -9 30.5s-11.667 21 -21 30s-21 16.5 -35 22.5s-30.667 9 -50 9c-14 0 -28 -1.83301 -42 -5.5s-26.5 -9.16699 -37.5 -16.5s-19.833 -16.333 -26.5 -27
s-10 -23 -10 -37c0 -25.333 10.167 -46.166 30.5 -62.499s50.833 -32.166 91.5 -47.499l3 -1c24 -9.33301 46.167 -19.833 66.5 -31.5s37.666 -25 51.999 -40s25.666 -31.833 33.999 -50.5s12.5 -39.667 12.5 -63c0 -38 -9.16699 -70.333 -27.5 -97s-42.5 -48.667 -72.5 -66
c14 -14 25.167 -30.667 33.5 -50s12.5 -42.333 12.5 -69c0 -28.667 -5.66699 -55.834 -17 -81.501s-27.333 -48.167 -48 -67.5s-46 -34.666 -76 -45.999s-63.333 -17 -100 -17zM250.006 174.001c12 -4 23.667 -8.33301 35 -13s22.666 -9.66699 33.999 -15
c18.667 9.33301 35.334 22.833 50.001 40.5s22 37.5 22 59.5c0 54 -41.333 95.333 -124 124l-19 6c-13.333 -4 -26.333 -9.16699 -39 -15.5s-24 -14 -34 -23s-18.167 -19.167 -24.5 -30.5s-9.5 -23.333 -9.5 -36c0 -23.333 9.5 -42.5 28.5 -57.5s45.833 -28.167 80.5 -39.5z
" />
    <glyph glyph-name="dieresis" unicode="&#xa8;" horiz-adv-x="400" 
d="M335 602c-15.333 0 -28.666 5.66699 -39.999 17s-17 24.666 -17 39.999c0 16.667 5.66699 30.334 17 41.001s24.666 16 39.999 16c16.667 0 30.334 -5.33301 41.001 -16s16 -24.334 16 -41.001c0 -15.333 -5.33301 -28.666 -16 -39.999s-24.334 -17 -41.001 -17zM167 602
c-15.333 0 -28.666 5.66699 -39.999 17s-17 24.666 -17 39.999c0 16.667 5.66699 30.334 17 41.001s24.666 16 39.999 16c16.667 0 30.334 -5.33301 41.001 -16s16 -24.334 16 -41.001c0 -15.333 -5.33301 -28.666 -16 -39.999s-24.334 -17 -41.001 -17z" />
    <glyph glyph-name="copyright" unicode="&#xa9;" horiz-adv-x="532" 
d="M266 272c-32 0 -61.833 6 -89.5 18s-52 28.5 -73 49.5s-37.5 45.333 -49.5 73s-18 57.5 -18 89.5c0 31.333 6 61 18 89s28.5 52.5 49.5 73.5s45.333 37.5 73 49.5s57.5 18 89.5 18c31.333 0 61 -6 89 -18s52.5 -28.5 73.5 -49.5s37.5 -45.5 49.5 -73.5s18 -57.667 18 -89
c0 -32 -6 -61.833 -18 -89.5s-28.5 -52 -49.5 -73s-45.5 -37.5 -73.5 -49.5s-57.667 -18 -89 -18zM266 320c25.333 0 49 4.83301 71 14.5s41.333 22.834 58 39.501s29.667 36 39 58s14 45.333 14 70c0 25.333 -4.66699 49 -14 71s-22.333 41.333 -39 58s-36 29.667 -58 39
s-45.667 14 -71 14c-24.667 0 -48 -4.66699 -70 -14s-41.333 -22.333 -58 -39s-29.834 -36 -39.501 -58s-14.5 -45.667 -14.5 -71c0 -24.667 4.83301 -48 14.5 -70s22.834 -41.333 39.501 -58s36 -29.834 58 -39.501s45.333 -14.5 70 -14.5zM270 383
c-17.333 0 -33.167 3.16406 -47.5 9.49707s-26.833 14.833 -37.5 25.5s-19 23.334 -25 38.001s-9 30 -9 46c0 16.667 3 32.167 9 46.5s14.333 26.833 25 37.5s23.167 19.167 37.5 25.5s30.166 9.5 47.499 9.5c20.667 0 37.5 -3.66699 50.5 -11s25.167 -16.666 36.5 -27.999
l-32 -29c-7.33301 7.33301 -14.666 13.166 -21.999 17.499s-18.333 6.5 -33 6.5c-19.333 0 -36.333 -7.16699 -51 -21.5s-22 -32.166 -22 -53.499s7.33301 -39.166 22 -53.499s31.667 -21.5 51 -21.5c14 0 25.667 2.83301 35 8.5s17.666 13.167 24.999 22.5l34 -27
c-10.667 -14 -23.667 -25.5 -39 -34.5s-33.666 -13.5 -54.999 -13.5z" />
    <glyph glyph-name="ordfeminine" unicode="&#xaa;" horiz-adv-x="478" 
d="M200 272c-22 0 -42.3281 3.00293 -60.9951 9.00293s-34.834 14.667 -48.501 26s-24.334 25.166 -32.001 41.499s-11.5 34.833 -11.5 55.5c0 26 6 49 18 69s27.833 36.833 47.5 50.5s42.167 24.167 67.5 31.5s51.666 11 78.999 11c29.333 0 54.166 -3 74.499 -9
s37.166 -12.333 50.499 -19l2 15c0.666992 4 1 7 1 9v7c0 28 -9.5 49.167 -28.5 63.5s-41.167 21.5 -66.5 21.5s-47.5 -3.83301 -66.5 -11.5s-36.167 -21.5 -51.5 -41.5l-68 40c6.66699 11.333 15.667 22.5 27 33.5s25 20.667 41 29s34.333 15.166 55 20.499s44 8 70 8
c24 0 46.5 -3.5 67.5 -10.5s39.333 -17 55 -30s28 -28.833 37 -47.5s13.5 -39.334 13.5 -62.001c0 -11.333 -1 -23 -3 -35l-46 -261h-84l11 62h-4c-15.333 -20 -35.5 -37.667 -60.5 -53s-53.5 -23 -85.5 -23zM218.005 348.003c18.667 0 36.502 2.99902 53.502 8.99902
s32.5 14.333 46.5 25s25.667 23.334 35 38.001s15.666 31 18.999 49c-7.33301 5.33301 -16.333 10.333 -27 15c-9.33301 3.33301 -20.833 6.66602 -34.5 9.99902s-29.834 5 -48.501 5c-14 0 -28.167 -1.5 -42.5 -4.5s-27.5 -8 -39.5 -15s-21.833 -16 -29.5 -27
s-11.5 -24.5 -11.5 -40.5c0 -11.333 2.5 -21 7.5 -29s11.333 -14.667 19 -20s16.167 -9.16602 25.5 -11.499s18.333 -3.5 27 -3.5z" />
    <glyph glyph-name="guillemotleft" unicode="&#xab;" horiz-adv-x="556" 
d="M243 100l-60 -48l-163 219l240 219l47 -53l-187 -171zM443 100l-60 -48l-163 219l240 219l47 -53l-187 -171z" />
    <glyph glyph-name="logicalnot" unicode="&#xac;" horiz-adv-x="562" 
d="M48 385h434l-49 -280h-72l36 204h-362z" />
    <glyph glyph-name="uni00AD" unicode="&#xad;" horiz-adv-x="432" 
d="M53 348h320l-13 -76h-320z" />
    <glyph glyph-name="registered" unicode="&#xae;" horiz-adv-x="532" 
d="M266 272c-32 0 -61.833 6 -89.5 18s-52 28.5 -73 49.5s-37.5 45.333 -49.5 73s-18 57.5 -18 89.5c0 31.333 6 61 18 89s28.5 52.5 49.5 73.5s45.333 37.5 73 49.5s57.5 18 89.5 18c31.333 0 61 -6 89 -18s52.5 -28.5 73.5 -49.5s37.5 -45.5 49.5 -73.5s18 -57.667 18 -89
c0 -32 -6 -61.833 -18 -89.5s-28.5 -52 -49.5 -73s-45.5 -37.5 -73.5 -49.5s-57.667 -18 -89 -18zM266 320c25.333 0 49 4.83301 71 14.5s41.333 22.834 58 39.501s29.667 36 39 58s14 45.333 14 70c0 25.333 -4.66699 49 -14 71s-22.333 41.333 -39 58s-36 29.667 -58 39
s-45.667 14 -71 14c-24.667 0 -48 -4.66699 -70 -14s-41.333 -22.333 -58 -39s-29.834 -36 -39.501 -58s-14.5 -45.667 -14.5 -71c0 -24.667 4.83301 -48 14.5 -70s22.834 -41.333 39.501 -58s36 -29.834 58 -39.501s45.333 -14.5 70 -14.5zM189 389v226h96
c19.333 0 36.333 -6.83301 51 -20.5s22 -30.834 22 -51.501c0 -15.333 -4.83301 -29.166 -14.5 -41.499s-21.5 -20.5 -35.5 -24.5l-2 -2l60 -84v-2h-52l-55 84h-24v-84h-46zM281 515c8 0 15.166 2.5 21.499 7.5s9.5 11.833 9.5 20.5c0 6.66699 -2.66699 13 -8 19
s-12.666 9 -21.999 9h-47v-56h46z" />
    <glyph glyph-name="macron" unicode="&#xaf;" horiz-adv-x="400" 
d="M106 623l13 72h280l-13 -72h-280z" />
    <glyph glyph-name="degree" unicode="&#xb0;" horiz-adv-x="325" 
d="M186 442c-16 0 -31.167 2.66699 -45.5 8s-27 13 -38 23s-19.667 22 -26 36s-9.5 29.667 -9.5 47c0 21.333 3.66699 40.833 11 58.5s17.5 32.834 30.5 45.501s28.333 22.5 46 29.5s37.167 10.5 58.5 10.5c16 0 31.167 -2.83301 45.5 -8.5s27 -13.5 38 -23.5
s19.667 -22 26 -36s9.5 -29.333 9.5 -46c0 -21.333 -3.66699 -40.833 -11 -58.5s-17.5 -32.834 -30.5 -45.501s-28.5 -22.5 -46.5 -29.5s-37.333 -10.5 -58 -10.5zM192 506c19.333 0 36 6.83301 50 20.5s21 30.834 21 51.501c0 17.333 -5.16699 31.333 -15.5 42
s-23.833 16 -40.5 16c-19.333 0 -36 -6.83301 -50 -20.5s-21 -30.834 -21 -51.501c0 -17.333 5.16699 -31.333 15.5 -42s23.833 -16 40.5 -16z" />
    <glyph glyph-name="plusminus" unicode="&#xb1;" horiz-adv-x="550" 
d="M315 372h181l-13 -76h-181l-28 -157h-76l28 157h-181l13 76h181l28 157h76zM-7 0l13 76h438l-14 -76h-437z" />
    <glyph glyph-name="twosuperior" unicode="&#xb2;" horiz-adv-x="304" 
d="M23 350l11.0029 60.001l75 65l28 24l26 22c7.33301 6.66699 13.666 12 18.999 16c4.66699 4 7.66699 6.66699 9 8c11.333 8.66699 23 19.5 35 32.5s18 26.833 18 41.5c0 13.333 -4.5 23.5 -13.5 30.5s-20.167 10.5 -33.5 10.5c-30 0 -52.333 -19.333 -67 -58l-60 27
c9.33301 30.667 26.166 54.167 50.499 70.5s52.166 24.5 83.499 24.5c34 0 61.333 -9.33301 82 -28s31 -42 31 -70c0 -13.333 -2 -25.5 -6 -36.5s-9.5 -21.333 -16.5 -31s-15.167 -18.834 -24.5 -27.501l-29 -26l-28 -24l-36 -30l-44 -37h151l-12 -64h-249z" />
    <glyph glyph-name="threesuperior" unicode="&#xb3;" horiz-adv-x="323" 
d="M161 342c-28.667 0 -54.998 8.00098 -78.998 24.001s-39 41.333 -45 76l65 23c5.33301 -21.333 13.666 -36.5 24.999 -45.5s25 -13.5 41 -13.5c18 0 33.667 5.5 47 16.5s20 24.5 20 40.5c0 31.333 -20.333 47 -61 47h-32l11 60h37c17.333 0 31.833 4.83301 43.5 14.5
s17.5 21.834 17.5 36.501c0 13.333 -4.5 23.166 -13.5 29.499s-19.167 9.5 -30.5 9.5c-18 0 -32 -4.83301 -42 -14.5s-17.667 -19.167 -23 -28.5l-58 25c9.33301 24 25.5 43.667 48.5 59s50.5 23 82.5 23s58.167 -8.83301 78.5 -26.5s30.5 -39.5 30.5 -65.5
c0 -20 -6.83301 -38.333 -20.5 -55s-28.834 -28.334 -45.501 -35.001c14.667 -7.33301 26.5 -17.5 35.5 -30.5s13.5 -28.5 13.5 -46.5c0 -17.333 -3.66699 -33.5 -11 -48.5s-17.5 -28 -30.5 -39s-28.5 -19.667 -46.5 -26s-37.333 -9.5 -58 -9.5z" />
    <glyph glyph-name="acute" unicode="&#xb4;" horiz-adv-x="400" 
d="M188 588l75 128h102l-95 -128h-82z" />
    <glyph glyph-name="mu" unicode="&#xb5;" horiz-adv-x="542" 
d="M336 0l12.001 67.999h-4c-16.667 -24 -39.334 -44 -68.001 -60s-61.334 -24 -98.001 -24c-18.667 0 -36.167 3.66699 -52.5 11s-29.166 17 -38.499 29h-4l-6 -56l-34 -184h-91l124 706h92l-52 -294c-2.66699 -13.333 -4 -26.666 -4 -39.999
c0 -30 9.16699 -52.167 27.5 -66.5s42.833 -21.5 73.5 -21.5c20 0 38.833 4 56.5 12s33.334 18.833 47.001 32.5s25.167 29.667 34.5 48s15.666 37.833 18.999 58.5l48 271h92l-86 -490h-88z" />
    <glyph glyph-name="paragraph" unicode="&#xb6;" horiz-adv-x="624" 
d="M292 -216v512h-44c-30 0 -58.5 4.83301 -85.5 14.5s-50.667 23.5 -71 41.5s-36.666 40 -48.999 66s-18.5 55.333 -18.5 88s6.16699 62 18.5 88s28.666 48 48.999 66s44 31.833 71 41.5s55.5 14.5 85.5 14.5h296v-932h-84v844h-84v-844h-84z" />
    <glyph glyph-name="periodcentered" unicode="&#xb7;" horiz-adv-x="176" 
d="M88 256c-19.333 0 -35.5 6.5 -48.5 19.5s-19.5 29.167 -19.5 48.5s6.5 35.5 19.5 48.5s29.167 19.5 48.5 19.5s35.5 -6.5 48.5 -19.5s19.5 -29.167 19.5 -48.5s-6.5 -35.5 -19.5 -48.5s-29.167 -19.5 -48.5 -19.5z" />
    <glyph glyph-name="cedilla" unicode="&#xb8;" horiz-adv-x="400" 
d="M84 -237c-22.667 0 -42.502 6.5 -59.502 19.5s-27.5 28.833 -31.5 47.5l56 23c1.33301 -9.33301 5.5 -17.333 12.5 -24s15.833 -10 26.5 -10c12 0 22.667 4 32 12s14 19.667 14 35c0 9.33301 -3.16699 17.5 -9.5 24.5s-15.166 10.5 -26.499 10.5
c-7.33301 0 -13.5 -1.33301 -18.5 -4s-10.167 -6.66699 -15.5 -12l-43 22l51 93h56l-29 -48c2.66699 0.666992 5.33398 1.16699 8.00098 1.5s6.66699 0.5 12 0.5c23.333 0 41.833 -8.16699 55.5 -24.5s20.5 -37.5 20.5 -63.5c0 -30 -10 -54.667 -30 -74s-47 -29 -81 -29z
" />
    <glyph glyph-name="onesuperior" unicode="&#xb9;" horiz-adv-x="242" 
d="M110 350l50 282l-63 -25l-22 55l124 54h46l-65 -366h-70z" />
    <glyph glyph-name="ordmasculine" unicode="&#xba;" horiz-adv-x="516" 
d="M249 272c-28.667 0 -55.0029 4.83203 -79.0029 14.499s-44.5 23.167 -61.5 40.5s-30.167 38 -39.5 62s-14 50.667 -14 80c0 32 6 63.667 18 95s29.333 59.5 52 84.5s49.834 45.167 81.501 60.5s67.5 23 107.5 23c29.333 0 56 -4.66699 80 -14s44.333 -22.5 61 -39.5
s29.5 -37.5 38.5 -61.5s13.5 -51 13.5 -81c0 -35.333 -6.66699 -68.833 -20 -100.5s-31.666 -59.667 -54.999 -84s-50.666 -43.666 -81.999 -57.999s-65 -21.5 -101 -21.5zM255.997 351.999c21.333 0 41.8291 4.3291 61.4961 12.9961s36.834 20.834 51.501 36.501
s26.334 34.5 35.001 56.5s13 46.333 13 73c0 18.667 -3.16699 35.334 -9.5 50.001s-14.666 27.334 -24.999 38.001s-22.5 18.834 -36.5 24.501s-28.333 8.5 -43 8.5c-22.667 0 -43.667 -4.83301 -63 -14.5s-36 -22.5 -50 -38.5s-25 -34.667 -33 -56s-12 -44 -12 -68
c0 -38 10.833 -68 32.5 -90s47.834 -33 78.501 -33z" />
    <glyph glyph-name="guillemotright" unicode="&#xbb;" horiz-adv-x="556" 
d="M78 442l60 48l163 -219l-240 -219l-47 53l187 171zM278 442l60 48l163 -219l-240 -219l-47 53l187 171z" />
    <glyph glyph-name="onequarter" unicode="&#xbc;" horiz-adv-x="736" 
d="M494 0l13 72h-171l8 48l218 246h67l-41 -234h48l-11 -60h-48l-13 -72h-70zM518 132l22 126h-4l-112 -126h94zM50 34l592 690l53 -42l-589 -691zM135 350l50 282l-63 -25l-22 55l124 54h46l-65 -366h-70z" />
    <glyph glyph-name="onehalf" unicode="&#xbd;" horiz-adv-x="776" 
d="M436 0l11.0029 60.001l75 65l28 24l26 22c7.33301 6.66699 13.666 12 18.999 16c4.66699 4 7.66699 6.66699 9 8c11.333 8.66699 23 19.5 35 32.5s18 26.833 18 41.5c0 13.333 -4.5 23.5 -13.5 30.5s-20.167 10.5 -33.5 10.5c-30 0 -52.333 -19.333 -67 -58l-60 27
c9.33301 30.667 26.166 54.167 50.499 70.5s52.166 24.5 83.499 24.5c34 0 61.333 -9.33301 82 -28s31 -42 31 -70c0 -13.333 -2 -25.5 -6 -36.5s-9.5 -21.333 -16.5 -31s-15.167 -18.834 -24.5 -27.501l-29 -26l-28 -24l-36 -30l-44 -37h151l-12 -64h-249zM50.0029 34.001
l592 690l53 -42l-589 -691zM135.003 350.001l50 282l-63 -25l-22 55l124 54h46l-65 -366h-70z" />
    <glyph glyph-name="threequarters" unicode="&#xbe;" horiz-adv-x="829" 
d="M588 0l13 72h-171l8 48l218 246h67l-41 -234h48l-11 -60h-48l-13 -72h-70zM612 132l22 126h-4l-112 -126h94zM117 34l592 690l53 -42l-589 -691zM185 342c-28.667 0 -54.998 8.00098 -78.998 24.001s-39 41.333 -45 76l65 23c5.33301 -21.333 13.666 -36.5 24.999 -45.5
s25 -13.5 41 -13.5c18 0 33.667 5.5 47 16.5s20 24.5 20 40.5c0 31.333 -20.333 47 -61 47h-32l11 60h37c17.333 0 31.833 4.83301 43.5 14.5s17.5 21.834 17.5 36.501c0 13.333 -4.5 23.166 -13.5 29.499s-19.167 9.5 -30.5 9.5c-18 0 -32 -4.83301 -42 -14.5
s-17.667 -19.167 -23 -28.5l-58 25c9.33301 24 25.5 43.667 48.5 59s50.5 23 82.5 23s58.167 -8.83301 78.5 -26.5s30.5 -39.5 30.5 -65.5c0 -20 -6.83301 -38.333 -20.5 -55s-28.834 -28.334 -45.501 -35.001c14.667 -7.33301 26.5 -17.5 35.5 -30.5s13.5 -28.5 13.5 -46.5
c0 -17.333 -3.66699 -33.5 -11 -48.5s-17.5 -28 -30.5 -39s-28.5 -19.667 -46.5 -26s-37.333 -9.5 -58 -9.5z" />
    <glyph glyph-name="questiondown" unicode="&#xbf;" horiz-adv-x="482" 
d="M297 278l-8.00391 -47.001c-2.66699 -15.333 -6.33398 -29.166 -11.001 -41.499s-11.334 -24.333 -20.001 -36s-19.5 -23.667 -32.5 -36s-29.5 -25.833 -49.5 -40.5l-34.5 -27c-11.667 -9.33301 -22 -19.5 -31 -30.5s-16.333 -22.667 -22 -35s-8.5 -25.5 -8.5 -39.5
c0 -26 9 -47.333 27 -64s43 -25 75 -25c17.333 0 33 2.66699 47 8s26.333 12.5 37 21.5s19.667 19.167 27 30.5s13 23.333 17 36l80 -36c-7.33301 -20 -17.166 -39 -29.499 -57s-27.666 -33.667 -45.999 -47s-39.666 -24 -63.999 -32s-51.5 -12 -81.5 -12
c-27.333 0 -52.166 4.33301 -74.499 13s-41.666 20.334 -57.999 35.001s-29 32 -38 52s-13.5 41.333 -13.5 64c0 22 3.66699 42.167 11 60.5s17 35.333 29 51s25.833 30.334 41.5 44.001s32.167 27.167 49.5 40.5c22.667 17.333 40.834 34.666 54.501 51.999
s22.167 36.666 25.5 57.999l7 40h94zM278.996 505.999c19.333 0 35.5 -6.5 48.5 -19.5s19.5 -29.167 19.5 -48.5s-6.5 -35.5 -19.5 -48.5s-29.167 -19.5 -48.5 -19.5s-35.5 6.5 -48.5 19.5s-19.5 29.167 -19.5 48.5s6.5 35.5 19.5 48.5s29.167 19.5 48.5 19.5z" />
    <glyph glyph-name="Agrave" unicode="&#xc0;" horiz-adv-x="668" 
d="M345 716h104l143 -716h-99l-34 194h-301l-105 -194h-104zM442 280l-60 323h-4l-174 -323h238zM364 772l-49 128h98l29 -128h-78z" />
    <glyph glyph-name="Aacute" unicode="&#xc1;" horiz-adv-x="668" 
d="M345 716h104l143 -716h-99l-34 194h-301l-105 -194h-104zM442 280l-60 323h-4l-174 -323h238zM363 772l75 128h102l-95 -128h-82z" />
    <glyph glyph-name="Acircumflex" unicode="&#xc2;" horiz-adv-x="668" 
d="M345 716h104l143 -716h-99l-34 194h-301l-105 -194h-104zM442 280l-60 323h-4l-174 -323h238zM248 783l124 117h80l82 -117l-1 -5h-83l-41 60h-8l-59 -60h-95z" />
    <glyph glyph-name="Atilde" unicode="&#xc3;" horiz-adv-x="668" 
d="M345 716h104l143 -716h-99l-34 194h-301l-105 -194h-104zM442 280l-60 323h-4l-174 -323h238zM470 778c-12 0 -23.168 2.33301 -33.501 7s-20.166 10 -29.499 16c-10 5.33301 -20 10.333 -30 15s-21 7 -33 7c-20 0 -33 -11.667 -39 -35h-76
c5.33301 40 18.333 69.667 39 89s45.667 29 75 29c12 0 23.333 -2.33301 34 -7s21 -9.66699 31 -15c9.33301 -6 19 -11.333 29 -16s20.667 -7 32 -7c20 0 33 11.667 39 35h76c-5.33301 -40 -18.333 -69.667 -39 -89s-45.667 -29 -75 -29z" />
    <glyph glyph-name="Adieresis" unicode="&#xc4;" horiz-adv-x="668" 
d="M345 716h104l143 -716h-99l-34 194h-301l-105 -194h-104zM442 280l-60 323h-4l-174 -323h238zM490 786c-15.333 0 -28.666 5.66699 -39.999 17s-17 24.666 -17 39.999c0 16.667 5.66699 30.334 17 41.001s24.666 16 39.999 16c16.667 0 30.334 -5.33301 41.001 -16
s16 -24.334 16 -41.001c0 -15.333 -5.33301 -28.666 -16 -39.999s-24.334 -17 -41.001 -17zM322 786c-15.333 0 -28.666 5.66699 -39.999 17s-17 24.666 -17 39.999c0 16.667 5.66699 30.334 17 41.001s24.666 16 39.999 16c16.667 0 30.334 -5.33301 41.001 -16
s16 -24.334 16 -41.001c0 -15.333 -5.33301 -28.666 -16 -39.999s-24.334 -17 -41.001 -17z" />
    <glyph glyph-name="Aring" unicode="&#xc5;" horiz-adv-x="668" 
d="M326 682c-9.33301 9.33301 -16.835 20.3301 -22.502 32.9971s-8.5 26.334 -8.5 41.001c0 29.333 10 54 30 74s44.667 30 74 30c14 0 27.333 -2.66699 40 -8s23.834 -12.666 33.501 -21.999s17.167 -20.333 22.5 -33s8 -26.334 8 -41.001
c0 -17.333 -4.16699 -33.666 -12.5 -48.999s-19.166 -27.666 -32.499 -36.999l134 -670h-99l-34 194h-301l-105 -194h-104zM441.998 279.997l-60 323h-4l-174 -323h238zM398.998 715.997c11.333 0 20.833 3.83496 28.5 11.502s11.5 17.167 11.5 28.5
s-3.83301 20.833 -11.5 28.5s-17.167 11.5 -28.5 11.5s-20.833 -3.83301 -28.5 -11.5s-11.5 -17.167 -11.5 -28.5c0 -10.667 3.5 -19.834 10.5 -27.501s15.5 -11.834 25.5 -12.501h4z" />
    <glyph glyph-name="AE" unicode="&#xc6;" horiz-adv-x="960" 
d="M-59 0l552 716h478l-16 -88h-326l-40 -227h294l-15 -86h-294l-40 -227h326l-16 -88h-418l34 194h-259l-148 -194h-112zM267 280h208l62 348h-4l-39 -51z" />
    <glyph glyph-name="Ccedilla" unicode="&#xc7;" horiz-adv-x="729" 
d="M316 -237c-22.667 0 -42.502 6.50293 -59.502 19.5029s-27.5 28.833 -31.5 47.5l56 23c1.33301 -9.33301 5.5 -17.333 12.5 -24s15.833 -10 26.5 -10c12 0 22.667 4 32 12s14 19.667 14 35c0 9.33301 -3.16699 17.5 -9.5 24.5s-15.166 10.5 -26.499 10.5
c-7.33301 0 -13.5 -1.33301 -18.5 -4s-10.167 -6.66699 -15.5 -12l-43 22l44 81c-39.333 4.66699 -75.333 15.667 -108 33s-60.667 39.666 -84 66.999s-41.5 59.333 -54.5 96s-19.5 77 -19.5 121c0 55.333 10.833 108.666 32.5 159.999s51.834 96.833 90.501 136.5
s84.5 71.334 137.5 95.001s110.833 35.5 173.5 35.5c28 0 54.333 -3.16699 79 -9.5s47.5 -14.833 68.5 -25.5s39.833 -23.334 56.5 -38.001s30.334 -30.334 41.001 -47.001l-74 -61c-22 32 -47.333 55.5 -76 70.5s-63.667 22.5 -105 22.5c-46 0 -89.167 -9.33301 -129.5 -28
s-75.333 -43.5 -105 -74.5s-53 -66.5 -70 -106.5s-25.5 -81.667 -25.5 -125c0 -36 5.83301 -68.667 17.5 -98s28 -54.333 49 -75s45.667 -36.667 74 -48s59.166 -17 92.499 -17c50 0 93.333 9.5 130 28.5s71.667 44.833 105 77.5l59 -67
c-22.667 -21.333 -45.334 -40 -68.001 -56s-46.167 -29.333 -70.5 -40s-50 -18.5 -77 -23.5s-55.833 -7.5 -86.5 -7.5l-19 -32c2.66699 0.666992 5.33398 1.16699 8.00098 1.5s6.66699 0.5 12 0.5c23.333 0 41.833 -8.16699 55.5 -24.5s20.5 -37.5 20.5 -63.5
c0 -30 -10 -54.667 -30 -74s-47 -29 -81 -29z" />
    <glyph glyph-name="Egrave" unicode="&#xc8;" horiz-adv-x="542" 
d="M211 628l-40 -227h294l-15 -86h-294l-40 -227h326l-16 -88h-418l127 716h418l-16 -88h-326zM312 772l-49 128h98l29 -128h-78z" />
    <glyph glyph-name="Eacute" unicode="&#xc9;" horiz-adv-x="542" 
d="M211 628l-40 -227h294l-15 -86h-294l-40 -227h326l-16 -88h-418l127 716h418l-16 -88h-326zM298 772l75 128h102l-95 -128h-82z" />
    <glyph glyph-name="Ecircumflex" unicode="&#xca;" horiz-adv-x="542" 
d="M211 628l-40 -227h294l-15 -86h-294l-40 -227h326l-16 -88h-418l127 716h418l-16 -88h-326zM198 783l124 117h80l82 -117l-1 -5h-83l-41 60h-8l-59 -60h-95z" />
    <glyph glyph-name="Edieresis" unicode="&#xcb;" horiz-adv-x="542" 
d="M211 628l-40 -227h294l-15 -86h-294l-40 -227h326l-16 -88h-418l127 716h418l-16 -88h-326zM431 786c-15.333 0 -28.666 5.66699 -39.999 17s-17 24.666 -17 39.999c0 16.667 5.66699 30.334 17 41.001s24.666 16 39.999 16c16.667 0 30.334 -5.33301 41.001 -16
s16 -24.334 16 -41.001c0 -15.333 -5.33301 -28.666 -16 -39.999s-24.334 -17 -41.001 -17zM263 786c-15.333 0 -28.666 5.66699 -39.999 17s-17 24.666 -17 39.999c0 16.667 5.66699 30.334 17 41.001s24.666 16 39.999 16c16.667 0 30.334 -5.33301 41.001 -16
s16 -24.334 16 -41.001c0 -15.333 -5.33301 -28.666 -16 -39.999s-24.334 -17 -41.001 -17z" />
    <glyph glyph-name="Igrave" unicode="&#xcc;" horiz-adv-x="236" 
d="M135 716h92l-127 -716h-92zM159 772l-49 128h98l29 -128h-78z" />
    <glyph glyph-name="Iacute" unicode="&#xcd;" horiz-adv-x="236" 
d="M135 716h92l-127 -716h-92zM143 772l75 128h102l-95 -128h-82z" />
    <glyph glyph-name="Icircumflex" unicode="&#xce;" horiz-adv-x="236" 
d="M135 716h92l-127 -716h-92zM38 783l124 117h80l82 -117l-1 -5h-83l-41 60h-8l-59 -60h-95z" />
    <glyph glyph-name="Idieresis" unicode="&#xcf;" horiz-adv-x="236" 
d="M131 787c-15.333 0 -28.666 5.66699 -39.999 17s-17 24.666 -17 39.999c0 16.667 5.66699 30.334 17 41.001s24.666 16 39.999 16c16.667 0 30.334 -5.33301 41.001 -16s16 -24.334 16 -41.001c0 -15.333 -5.33301 -28.666 -16 -39.999s-24.334 -17 -41.001 -17zM267 787
c-15.333 0 -28.666 5.66699 -39.999 17s-17 24.666 -17 39.999c0 16.667 5.66699 30.334 17 41.001s24.666 16 39.999 16c16.667 0 30.334 -5.33301 41.001 -16s16 -24.334 16 -41.001c0 -15.333 -5.33301 -28.666 -16 -39.999s-24.334 -17 -41.001 -17zM135 716h92
l-127 -716h-92z" />
    <glyph glyph-name="Eth" unicode="&#xd0;" horiz-adv-x="751" 
d="M124 319l-74.999 0.000976562l13 76h76l57 321h219c50 0 94.167 -8 132.5 -24s70.333 -37.833 96 -65.5s45.167 -60.334 58.5 -98.001s20 -78.167 20 -121.5c0 -53.333 -9.5 -104.5 -28.5 -153.5s-46.5 -92.333 -82.5 -130s-80.333 -67.667 -133 -90
s-112.334 -33.5 -179.001 -33.5h-230zM303.001 88.001c46 0 88.667 8 128 24s73.5 38.167 102.5 66.5s51.667 61.5 68 99.5s24.5 79 24.5 123c0 74 -20 130.333 -60 169s-96 58 -168 58h-127l-41 -233h200l-13 -76h-201l-40 -231h127z" />
    <glyph glyph-name="Ntilde" unicode="&#xd1;" horiz-adv-x="696" 
d="M135 716h105l256 -557h4l21 138l74 419h92l-127 -716h-88l-269 584h-4l-20 -138l-79 -446h-92zM543 778c-12 0 -23.168 2.33301 -33.501 7s-20.166 10 -29.499 16c-10 5.33301 -20 10.333 -30 15s-21 7 -33 7c-20 0 -33 -11.667 -39 -35h-76
c5.33301 40 18.333 69.667 39 89s45.667 29 75 29c12 0 23.333 -2.33301 34 -7s21 -9.66699 31 -15c9.33301 -6 19 -11.333 29 -16s20.667 -7 32 -7c20 0 33 11.667 39 35h76c-5.33301 -40 -18.333 -69.667 -39 -89s-45.667 -29 -75 -29z" />
    <glyph glyph-name="Ograve" unicode="&#xd2;" horiz-adv-x="810" 
d="M358 -16c-46 0 -88.8301 7.83301 -128.497 23.5s-74.334 37.834 -104.001 66.501s-52.834 62.834 -69.501 102.501s-25 83.5 -25 131.5c0 54.667 10.167 107.5 30.5 158.5s49 96.167 86 135.5s81.5 70.833 133.5 94.5s109.667 35.5 173 35.5
c45.333 0 87.833 -7.83301 127.5 -23.5s74.167 -37.834 103.5 -66.501s52.333 -62.834 69 -102.501s25 -83.5 25 -131.5c0 -54.667 -10.167 -107.5 -30.5 -158.5s-49 -96.167 -86 -135.5s-81.333 -70.833 -133 -94.5s-108.834 -35.5 -171.501 -35.5zM367.003 72
c44.667 0 86.167 9.33203 124.5 27.999s71.833 43.334 100.5 74.001s51.167 65.834 67.5 105.501s24.5 80.167 24.5 121.5c0 38 -6.33301 72 -19 102s-29.834 55.5 -51.501 76.5s-47.167 37 -76.5 48s-60.666 16.5 -93.999 16.5c-44.667 0 -86.334 -9.33301 -125.001 -28
s-72.167 -43.334 -100.5 -74.001s-50.666 -65.667 -66.999 -105s-24.5 -80 -24.5 -122c0 -38 6.33301 -72 19 -102s29.834 -55.5 51.501 -76.5s47.167 -37 76.5 -48s60.666 -16.5 93.999 -16.5zM422.003 771.999l-49 128h98l29 -128h-78z" />
    <glyph glyph-name="Oacute" unicode="&#xd3;" horiz-adv-x="810" 
d="M358 -16c-46 0 -88.8301 7.83301 -128.497 23.5s-74.334 37.834 -104.001 66.501s-52.834 62.834 -69.501 102.501s-25 83.5 -25 131.5c0 54.667 10.167 107.5 30.5 158.5s49 96.167 86 135.5s81.5 70.833 133.5 94.5s109.667 35.5 173 35.5
c45.333 0 87.833 -7.83301 127.5 -23.5s74.167 -37.834 103.5 -66.501s52.333 -62.834 69 -102.501s25 -83.5 25 -131.5c0 -54.667 -10.167 -107.5 -30.5 -158.5s-49 -96.167 -86 -135.5s-81.333 -70.833 -133 -94.5s-108.834 -35.5 -171.501 -35.5zM367.003 72
c44.667 0 86.167 9.33203 124.5 27.999s71.833 43.334 100.5 74.001s51.167 65.834 67.5 105.501s24.5 80.167 24.5 121.5c0 38 -6.33301 72 -19 102s-29.834 55.5 -51.501 76.5s-47.167 37 -76.5 48s-60.666 16.5 -93.999 16.5c-44.667 0 -86.334 -9.33301 -125.001 -28
s-72.167 -43.334 -100.5 -74.001s-50.666 -65.667 -66.999 -105s-24.5 -80 -24.5 -122c0 -38 6.33301 -72 19 -102s29.834 -55.5 51.501 -76.5s47.167 -37 76.5 -48s60.666 -16.5 93.999 -16.5zM425.003 771.999l75 128h102l-95 -128h-82z" />
    <glyph glyph-name="Ocircumflex" unicode="&#xd4;" horiz-adv-x="810" 
d="M358 -16c-46 0 -88.8301 7.83301 -128.497 23.5s-74.334 37.834 -104.001 66.501s-52.834 62.834 -69.501 102.501s-25 83.5 -25 131.5c0 54.667 10.167 107.5 30.5 158.5s49 96.167 86 135.5s81.5 70.833 133.5 94.5s109.667 35.5 173 35.5
c45.333 0 87.833 -7.83301 127.5 -23.5s74.167 -37.834 103.5 -66.501s52.333 -62.834 69 -102.501s25 -83.5 25 -131.5c0 -54.667 -10.167 -107.5 -30.5 -158.5s-49 -96.167 -86 -135.5s-81.333 -70.833 -133 -94.5s-108.834 -35.5 -171.501 -35.5zM367.003 72
c44.667 0 86.167 9.33203 124.5 27.999s71.833 43.334 100.5 74.001s51.167 65.834 67.5 105.501s24.5 80.167 24.5 121.5c0 38 -6.33301 72 -19 102s-29.834 55.5 -51.501 76.5s-47.167 37 -76.5 48s-60.666 16.5 -93.999 16.5c-44.667 0 -86.334 -9.33301 -125.001 -28
s-72.167 -43.334 -100.5 -74.001s-50.666 -65.667 -66.999 -105s-24.5 -80 -24.5 -122c0 -38 6.33301 -72 19 -102s29.834 -55.5 51.501 -76.5s47.167 -37 76.5 -48s60.666 -16.5 93.999 -16.5zM326.003 783.999l124 117h80l82 -117l-1 -5h-83l-41 60h-8l-59 -60h-95z" />
    <glyph glyph-name="Otilde" unicode="&#xd5;" horiz-adv-x="810" 
d="M358 -16c-46 0 -88.8301 7.83301 -128.497 23.5s-74.334 37.834 -104.001 66.501s-52.834 62.834 -69.501 102.501s-25 83.5 -25 131.5c0 54.667 10.167 107.5 30.5 158.5s49 96.167 86 135.5s81.5 70.833 133.5 94.5s109.667 35.5 173 35.5
c45.333 0 87.833 -7.83301 127.5 -23.5s74.167 -37.834 103.5 -66.501s52.333 -62.834 69 -102.501s25 -83.5 25 -131.5c0 -54.667 -10.167 -107.5 -30.5 -158.5s-49 -96.167 -86 -135.5s-81.333 -70.833 -133 -94.5s-108.834 -35.5 -171.501 -35.5zM367.003 72
c44.667 0 86.167 9.33203 124.5 27.999s71.833 43.334 100.5 74.001s51.167 65.834 67.5 105.501s24.5 80.167 24.5 121.5c0 38 -6.33301 72 -19 102s-29.834 55.5 -51.501 76.5s-47.167 37 -76.5 48s-60.666 16.5 -93.999 16.5c-44.667 0 -86.334 -9.33301 -125.001 -28
s-72.167 -43.334 -100.5 -74.001s-50.666 -65.667 -66.999 -105s-24.5 -80 -24.5 -122c0 -38 6.33301 -72 19 -102s29.834 -55.5 51.501 -76.5s47.167 -37 76.5 -48s60.666 -16.5 93.999 -16.5zM538.003 777.999c-12 0 -23.168 2.33301 -33.501 7s-20.166 10 -29.499 16
c-10 5.33301 -20 10.333 -30 15s-21 7 -33 7c-20 0 -33 -11.667 -39 -35h-76c5.33301 40 18.333 69.667 39 89s45.667 29 75 29c12 0 23.333 -2.33301 34 -7s21 -9.66699 31 -15c9.33301 -6 19 -11.333 29 -16s20.667 -7 32 -7c20 0 33 11.667 39 35h76
c-5.33301 -40 -18.333 -69.667 -39 -89s-45.667 -29 -75 -29z" />
    <glyph glyph-name="Odieresis" unicode="&#xd6;" horiz-adv-x="810" 
d="M358 -16c-46 0 -88.8301 7.83301 -128.497 23.5s-74.334 37.834 -104.001 66.501s-52.834 62.834 -69.501 102.501s-25 83.5 -25 131.5c0 54.667 10.167 107.5 30.5 158.5s49 96.167 86 135.5s81.5 70.833 133.5 94.5s109.667 35.5 173 35.5
c45.333 0 87.833 -7.83301 127.5 -23.5s74.167 -37.834 103.5 -66.501s52.333 -62.834 69 -102.501s25 -83.5 25 -131.5c0 -54.667 -10.167 -107.5 -30.5 -158.5s-49 -96.167 -86 -135.5s-81.333 -70.833 -133 -94.5s-108.834 -35.5 -171.501 -35.5zM367.003 72
c44.667 0 86.167 9.33203 124.5 27.999s71.833 43.334 100.5 74.001s51.167 65.834 67.5 105.501s24.5 80.167 24.5 121.5c0 38 -6.33301 72 -19 102s-29.834 55.5 -51.501 76.5s-47.167 37 -76.5 48s-60.666 16.5 -93.999 16.5c-44.667 0 -86.334 -9.33301 -125.001 -28
s-72.167 -43.334 -100.5 -74.001s-50.666 -65.667 -66.999 -105s-24.5 -80 -24.5 -122c0 -38 6.33301 -72 19 -102s29.834 -55.5 51.501 -76.5s47.167 -37 76.5 -48s60.666 -16.5 93.999 -16.5zM558.003 785.999c-15.333 0 -28.666 5.66699 -39.999 17
s-17 24.666 -17 39.999c0 16.667 5.66699 30.334 17 41.001s24.666 16 39.999 16c16.667 0 30.334 -5.33301 41.001 -16s16 -24.334 16 -41.001c0 -15.333 -5.33301 -28.666 -16 -39.999s-24.334 -17 -41.001 -17zM390.003 785.999c-15.333 0 -28.666 5.66699 -39.999 17
s-17 24.666 -17 39.999c0 16.667 5.66699 30.334 17 41.001s24.666 16 39.999 16c16.667 0 30.334 -5.33301 41.001 -16s16 -24.334 16 -41.001c0 -15.333 -5.33301 -28.666 -16 -39.999s-24.334 -17 -41.001 -17z" />
    <glyph glyph-name="multiply" unicode="&#xd7;" horiz-adv-x="542" 
d="M203 274l-130 153l57 49l131 -154l187 156l46 -56l-186 -155l130 -152l-57 -49l-131 153l-188 -156l-46 56z" />
    <glyph glyph-name="Oslash" unicode="&#xd8;" horiz-adv-x="810" 
d="M73 6l52.999 67c-30 28.667 -53.333 62.834 -70 102.501s-25 83.834 -25 132.501c0 54.667 10.167 107.5 30.5 158.5s49 96.167 86 135.5s81.5 70.833 133.5 94.5s109.667 35.5 173 35.5c30.667 0 59.834 -3.66699 87.501 -11s53.834 -17.666 78.501 -30.999l54 68
l63 -48l-54 -67c30 -28.667 53.5 -62.834 70.5 -102.501s25.5 -83.834 25.5 -132.501c0 -54.667 -10.167 -107.5 -30.5 -158.5s-49 -96.167 -86 -135.5s-81.333 -70.833 -133 -94.5s-108.834 -35.5 -171.501 -35.5c-31.333 0 -61 3.66699 -89 11s-54.333 17.666 -79 30.999
l-53 -67zM125.999 315c0 -35.333 5.16797 -66.999 15.501 -94.999s25.166 -52.333 44.499 -73l375 469c-36 18.667 -75.333 28 -118 28c-44.667 0 -86.334 -9.33301 -125.001 -28s-72.167 -43.334 -100.5 -74.001s-50.666 -65.667 -66.999 -105s-24.5 -80 -24.5 -122z
M367 72.001c44.667 0 86.168 9.33203 124.501 27.999s71.833 43.334 100.5 74.001s51.167 65.834 67.5 105.501s24.5 80.167 24.5 121.5c0 35.333 -5.33301 67 -16 95s-25.334 52.333 -44.001 73l-375 -470c17.333 -8.66699 36 -15.334 56 -20.001s40.667 -7 62 -7z" />
    <glyph glyph-name="Ugrave" unicode="&#xd9;" horiz-adv-x="642" 
d="M258 -16c-29.333 0 -57.333 5.00098 -84 15.001s-50.167 24.167 -70.5 42.5s-36.5 40.833 -48.5 67.5s-18 56.667 -18 90c0 10 0.333008 22.167 1 36.5s3.33398 34.833 8.00098 61.5l74 419h92l-78 -442c-2.66699 -14.667 -4.33398 -26.5 -5.00098 -35.5
s-1 -17.167 -1 -24.5c0 -42 11.667 -76.167 35 -102.5s60 -39.5 110 -39.5c28.667 0 54.5 4.83301 77.5 14.5s43.167 23 60.5 40s31.666 37 42.999 60s19.333 48.167 24 75.5l80 454h92l-82 -465c-15.333 -84.667 -49.166 -150.334 -101.499 -197.001
s-121.833 -70 -208.5 -70zM356 772.001l-49 128h98l29 -128h-78z" />
    <glyph glyph-name="Uacute" unicode="&#xda;" horiz-adv-x="642" 
d="M258 -16c-29.333 0 -57.333 5.00098 -84 15.001s-50.167 24.167 -70.5 42.5s-36.5 40.833 -48.5 67.5s-18 56.667 -18 90c0 10 0.333008 22.167 1 36.5s3.33398 34.833 8.00098 61.5l74 419h92l-78 -442c-2.66699 -14.667 -4.33398 -26.5 -5.00098 -35.5
s-1 -17.167 -1 -24.5c0 -42 11.667 -76.167 35 -102.5s60 -39.5 110 -39.5c28.667 0 54.5 4.83301 77.5 14.5s43.167 23 60.5 40s31.666 37 42.999 60s19.333 48.167 24 75.5l80 454h92l-82 -465c-15.333 -84.667 -49.166 -150.334 -101.499 -197.001
s-121.833 -70 -208.5 -70zM340 772.001l75 128h102l-95 -128h-82z" />
    <glyph glyph-name="Ucircumflex" unicode="&#xdb;" horiz-adv-x="642" 
d="M258 -16c-29.333 0 -57.333 5.00098 -84 15.001s-50.167 24.167 -70.5 42.5s-36.5 40.833 -48.5 67.5s-18 56.667 -18 90c0 10 0.333008 22.167 1 36.5s3.33398 34.833 8.00098 61.5l74 419h92l-78 -442c-2.66699 -14.667 -4.33398 -26.5 -5.00098 -35.5
s-1 -17.167 -1 -24.5c0 -42 11.667 -76.167 35 -102.5s60 -39.5 110 -39.5c28.667 0 54.5 4.83301 77.5 14.5s43.167 23 60.5 40s31.666 37 42.999 60s19.333 48.167 24 75.5l80 454h92l-82 -465c-15.333 -84.667 -49.166 -150.334 -101.499 -197.001
s-121.833 -70 -208.5 -70zM237 783.001l124 117h80l82 -117l-1 -5h-83l-41 60h-8l-59 -60h-95z" />
    <glyph glyph-name="Udieresis" unicode="&#xdc;" horiz-adv-x="642" 
d="M258 -16c-29.333 0 -57.333 5.00098 -84 15.001s-50.167 24.167 -70.5 42.5s-36.5 40.833 -48.5 67.5s-18 56.667 -18 90c0 10 0.333008 22.167 1 36.5s3.33398 34.833 8.00098 61.5l74 419h92l-78 -442c-2.66699 -14.667 -4.33398 -26.5 -5.00098 -35.5
s-1 -17.167 -1 -24.5c0 -42 11.667 -76.167 35 -102.5s60 -39.5 110 -39.5c28.667 0 54.5 4.83301 77.5 14.5s43.167 23 60.5 40s31.666 37 42.999 60s19.333 48.167 24 75.5l80 454h92l-82 -465c-15.333 -84.667 -49.166 -150.334 -101.499 -197.001
s-121.833 -70 -208.5 -70zM475 786.001c-15.333 0 -28.666 5.66699 -39.999 17s-17 24.666 -17 39.999c0 16.667 5.66699 30.334 17 41.001s24.666 16 39.999 16c16.667 0 30.334 -5.33301 41.001 -16s16 -24.334 16 -41.001c0 -15.333 -5.33301 -28.666 -16 -39.999
s-24.334 -17 -41.001 -17zM307 786.001c-15.333 0 -28.666 5.66699 -39.999 17s-17 24.666 -17 39.999c0 16.667 5.66699 30.334 17 41.001s24.666 16 39.999 16c16.667 0 30.334 -5.33301 41.001 -16s16 -24.334 16 -41.001c0 -15.333 -5.33301 -28.666 -16 -39.999
s-24.334 -17 -41.001 -17z" />
    <glyph glyph-name="Yacute" unicode="&#xdd;" horiz-adv-x="594" 
d="M189 0l59 333l-173 383h105l125 -291h4l225 291h111l-305 -383l-59 -333h-92zM311 772l75 128h102l-95 -128h-82z" />
    <glyph glyph-name="Thorn" unicode="&#xde;" horiz-adv-x="564" 
d="M8 0l126.998 716.002h92l-22 -122h147c28 0 54 -4.5 78 -13.5s44.667 -21.667 62 -38s30.833 -36 40.5 -59s14.5 -48.167 14.5 -75.5c0 -38 -6.66699 -71.833 -20 -101.5s-31.666 -54.834 -54.999 -75.501s-51.166 -36.334 -83.499 -47.001s-67.5 -16 -105.5 -16h-153
l-30 -168h-92zM299.998 256.002c20.667 0 40.168 2.66699 58.501 8s34.5 13.666 48.5 24.999s25 25.833 33 43.5s12 38.834 12 63.501c0 34 -10.333 60.833 -31 80.5s-46.334 29.5 -77.001 29.5h-154l-44 -250h154z" />
    <glyph glyph-name="germandbls" unicode="&#xdf;" horiz-adv-x="562" 
d="M416 385c25.333 -12.667 46.668 -31.9951 64.001 -57.9951s26 -58 26 -96c0 -36 -6.83301 -68.833 -20.5 -98.5s-32.167 -54.834 -55.5 -75.501s-51 -36.667 -83 -48s-66.333 -17 -103 -17c-11.333 0 -22 0.333008 -32 1s-19.667 1.66699 -29 3l15 88
c10 -1.33301 19.667 -2.33301 29 -3s17.333 -1 24 -1c22 0 42.667 3 62 9s36.333 15 51 27s26.167 26.833 34.5 44.5s12.5 38.167 12.5 61.5c0 34 -10.167 62.167 -30.5 84.5s-52.833 33.5 -97.5 33.5h-31l15 86h25c18 0 35.667 2.66699 53 8s32.833 13.166 46.5 23.499
s24.667 23.166 33 38.499s12.5 33 12.5 53c0 30 -10 53.333 -30 70s-46 25 -78 25c-36.667 0 -66.834 -11.833 -90.501 -35.5s-38.834 -54.5 -45.501 -92.5l-91 -516h-94l91 516c5.33301 30.667 14 59.167 26 85.5s27.833 49.166 47.5 68.499s43.334 34.5 71.001 45.5
s59.5 16.5 95.5 16.5c29.333 0 56 -4.5 80 -13.5s44.333 -21.5 61 -37.5s29.5 -34.667 38.5 -56s13.5 -44 13.5 -68c0 -42.667 -11 -77.834 -33 -105.501s-49.667 -48.5 -83 -62.5v-4z" />
    <glyph glyph-name="agrave" unicode="&#xe0;" horiz-adv-x="510" 
d="M287 506c63.333 0 111.168 -14.666 143.501 -43.999s48.5 -69 48.5 -119c0 -8 -0.5 -16.5 -1.5 -25.5s-2.16699 -18.167 -3.5 -27.5l-52 -290h-88l12 68h-4c-16 -23.333 -38 -43.166 -66 -59.499s-59.333 -24.5 -94 -24.5c-24 0 -46.333 3.5 -67 10.5
s-38.5 17.167 -53.5 30.5s-26.833 29.166 -35.5 47.499s-13 39.166 -13 62.499c0 28 6.16699 53.333 18.5 76s29.166 41.834 50.499 57.501s46.5 27.834 75.5 36.501s60.5 13 94.5 13c27.333 0 51.5 -2.83301 72.5 -8.5s41.167 -12.834 60.5 -21.501l4 21
c1.33301 5.33301 2 12 2 20c0 28.667 -10.333 51.667 -31 69s-48 26 -82 26c-26 0 -49.167 -5 -69.5 -15s-40.166 -26.667 -59.499 -50l-72 51c23.333 31.333 53.166 55.166 89.499 71.499s76.5 24.5 120.5 24.5zM201.002 66.001c20.667 0 40.502 3.66895 59.502 11.002
s36 17.5 51 30.5s27.833 28.333 38.5 46s17.667 36.5 21 56.5c-8 6 -18 11.667 -30 17c-10.667 4 -23.834 7.83301 -39.501 11.5s-34.5 5.5 -56.5 5.5c-16.667 0 -33.167 -2 -49.5 -6s-30.833 -10.333 -43.5 -19s-23 -19.334 -31 -32.001s-12 -27.334 -12 -44.001
c0 -12.667 2.66699 -23.834 8 -33.501s12.166 -17.667 20.499 -24s18 -11.166 29 -14.499s22.5 -5 34.5 -5zM265.004 588.003l-49 128h98l29 -128h-78z" />
    <glyph glyph-name="aacute" unicode="&#xe1;" horiz-adv-x="510" 
d="M287 506c63.333 0 111.168 -14.666 143.501 -43.999s48.5 -69 48.5 -119c0 -8 -0.5 -16.5 -1.5 -25.5s-2.16699 -18.167 -3.5 -27.5l-52 -290h-88l12 68h-4c-16 -23.333 -38 -43.166 -66 -59.499s-59.333 -24.5 -94 -24.5c-24 0 -46.333 3.5 -67 10.5
s-38.5 17.167 -53.5 30.5s-26.833 29.166 -35.5 47.499s-13 39.166 -13 62.499c0 28 6.16699 53.333 18.5 76s29.166 41.834 50.499 57.501s46.5 27.834 75.5 36.501s60.5 13 94.5 13c27.333 0 51.5 -2.83301 72.5 -8.5s41.167 -12.834 60.5 -21.501l4 21
c1.33301 5.33301 2 12 2 20c0 28.667 -10.333 51.667 -31 69s-48 26 -82 26c-26 0 -49.167 -5 -69.5 -15s-40.166 -26.667 -59.499 -50l-72 51c23.333 31.333 53.166 55.166 89.499 71.499s76.5 24.5 120.5 24.5zM201.002 66.001c20.667 0 40.502 3.66895 59.502 11.002
s36 17.5 51 30.5s27.833 28.333 38.5 46s17.667 36.5 21 56.5c-8 6 -18 11.667 -30 17c-10.667 4 -23.834 7.83301 -39.501 11.5s-34.5 5.5 -56.5 5.5c-16.667 0 -33.167 -2 -49.5 -6s-30.833 -10.333 -43.5 -19s-23 -19.334 -31 -32.001s-12 -27.334 -12 -44.001
c0 -12.667 2.66699 -23.834 8 -33.501s12.166 -17.667 20.499 -24s18 -11.166 29 -14.499s22.5 -5 34.5 -5zM244.004 588.003l75 128h102l-95 -128h-82z" />
    <glyph glyph-name="acircumflex" unicode="&#xe2;" horiz-adv-x="510" 
d="M287 506c63.333 0 111.168 -14.666 143.501 -43.999s48.5 -69 48.5 -119c0 -8 -0.5 -16.5 -1.5 -25.5s-2.16699 -18.167 -3.5 -27.5l-52 -290h-88l12 68h-4c-16 -23.333 -38 -43.166 -66 -59.499s-59.333 -24.5 -94 -24.5c-24 0 -46.333 3.5 -67 10.5
s-38.5 17.167 -53.5 30.5s-26.833 29.166 -35.5 47.499s-13 39.166 -13 62.499c0 28 6.16699 53.333 18.5 76s29.166 41.834 50.499 57.501s46.5 27.834 75.5 36.501s60.5 13 94.5 13c27.333 0 51.5 -2.83301 72.5 -8.5s41.167 -12.834 60.5 -21.501l4 21
c1.33301 5.33301 2 12 2 20c0 28.667 -10.333 51.667 -31 69s-48 26 -82 26c-26 0 -49.167 -5 -69.5 -15s-40.166 -26.667 -59.499 -50l-72 51c23.333 31.333 53.166 55.166 89.499 71.499s76.5 24.5 120.5 24.5zM201.002 66.001c20.667 0 40.502 3.66895 59.502 11.002
s36 17.5 51 30.5s27.833 28.333 38.5 46s17.667 36.5 21 56.5c-8 6 -18 11.667 -30 17c-10.667 4 -23.834 7.83301 -39.501 11.5s-34.5 5.5 -56.5 5.5c-16.667 0 -33.167 -2 -49.5 -6s-30.833 -10.333 -43.5 -19s-23 -19.334 -31 -32.001s-12 -27.334 -12 -44.001
c0 -12.667 2.66699 -23.834 8 -33.501s12.166 -17.667 20.499 -24s18 -11.166 29 -14.499s22.5 -5 34.5 -5zM148.004 599.003l124 117h80l82 -117l-1 -5h-83l-41 60h-8l-59 -60h-95z" />
    <glyph glyph-name="atilde" unicode="&#xe3;" horiz-adv-x="510" 
d="M287 506c63.333 0 111.168 -14.666 143.501 -43.999s48.5 -69 48.5 -119c0 -8 -0.5 -16.5 -1.5 -25.5s-2.16699 -18.167 -3.5 -27.5l-52 -290h-88l12 68h-4c-16 -23.333 -38 -43.166 -66 -59.499s-59.333 -24.5 -94 -24.5c-24 0 -46.333 3.5 -67 10.5
s-38.5 17.167 -53.5 30.5s-26.833 29.166 -35.5 47.499s-13 39.166 -13 62.499c0 28 6.16699 53.333 18.5 76s29.166 41.834 50.499 57.501s46.5 27.834 75.5 36.501s60.5 13 94.5 13c27.333 0 51.5 -2.83301 72.5 -8.5s41.167 -12.834 60.5 -21.501l4 21
c1.33301 5.33301 2 12 2 20c0 28.667 -10.333 51.667 -31 69s-48 26 -82 26c-26 0 -49.167 -5 -69.5 -15s-40.166 -26.667 -59.499 -50l-72 51c23.333 31.333 53.166 55.166 89.499 71.499s76.5 24.5 120.5 24.5zM201.002 66.001c20.667 0 40.502 3.66895 59.502 11.002
s36 17.5 51 30.5s27.833 28.333 38.5 46s17.667 36.5 21 56.5c-8 6 -18 11.667 -30 17c-10.667 4 -23.834 7.83301 -39.501 11.5s-34.5 5.5 -56.5 5.5c-16.667 0 -33.167 -2 -49.5 -6s-30.833 -10.333 -43.5 -19s-23 -19.334 -31 -32.001s-12 -27.334 -12 -44.001
c0 -12.667 2.66699 -23.834 8 -33.501s12.166 -17.667 20.499 -24s18 -11.166 29 -14.499s22.5 -5 34.5 -5zM374.004 595.003c-12 0 -23.168 2.33301 -33.501 7s-20.166 10 -29.499 16c-10 5.33301 -20 10.333 -30 15s-21 7 -33 7c-20 0 -33 -11.667 -39 -35h-76
c5.33301 40 18.333 69.667 39 89s45.667 29 75 29c12 0 23.333 -2.33301 34 -7s21 -9.66699 31 -15c9.33301 -6 19 -11.333 29 -16s20.667 -7 32 -7c20 0 33 11.667 39 35h76c-5.33301 -40 -18.333 -69.667 -39 -89s-45.667 -29 -75 -29z" />
    <glyph glyph-name="adieresis" unicode="&#xe4;" horiz-adv-x="510" 
d="M287 506c63.333 0 111.168 -14.666 143.501 -43.999s48.5 -69 48.5 -119c0 -8 -0.5 -16.5 -1.5 -25.5s-2.16699 -18.167 -3.5 -27.5l-52 -290h-88l12 68h-4c-16 -23.333 -38 -43.166 -66 -59.499s-59.333 -24.5 -94 -24.5c-24 0 -46.333 3.5 -67 10.5
s-38.5 17.167 -53.5 30.5s-26.833 29.166 -35.5 47.499s-13 39.166 -13 62.499c0 28 6.16699 53.333 18.5 76s29.166 41.834 50.499 57.501s46.5 27.834 75.5 36.501s60.5 13 94.5 13c27.333 0 51.5 -2.83301 72.5 -8.5s41.167 -12.834 60.5 -21.501l4 21
c1.33301 5.33301 2 12 2 20c0 28.667 -10.333 51.667 -31 69s-48 26 -82 26c-26 0 -49.167 -5 -69.5 -15s-40.166 -26.667 -59.499 -50l-72 51c23.333 31.333 53.166 55.166 89.499 71.499s76.5 24.5 120.5 24.5zM201.002 66.001c20.667 0 40.502 3.66895 59.502 11.002
s36 17.5 51 30.5s27.833 28.333 38.5 46s17.667 36.5 21 56.5c-8 6 -18 11.667 -30 17c-10.667 4 -23.834 7.83301 -39.501 11.5s-34.5 5.5 -56.5 5.5c-16.667 0 -33.167 -2 -49.5 -6s-30.833 -10.333 -43.5 -19s-23 -19.334 -31 -32.001s-12 -27.334 -12 -44.001
c0 -12.667 2.66699 -23.834 8 -33.501s12.166 -17.667 20.499 -24s18 -11.166 29 -14.499s22.5 -5 34.5 -5zM391.004 602.003c-15.333 0 -28.666 5.66699 -39.999 17s-17 24.666 -17 39.999c0 16.667 5.66699 30.334 17 41.001s24.666 16 39.999 16
c16.667 0 30.334 -5.33301 41.001 -16s16 -24.334 16 -41.001c0 -15.333 -5.33301 -28.666 -16 -39.999s-24.334 -17 -41.001 -17zM223.004 602.003c-15.333 0 -28.666 5.66699 -39.999 17s-17 24.666 -17 39.999c0 16.667 5.66699 30.334 17 41.001s24.666 16 39.999 16
c16.667 0 30.334 -5.33301 41.001 -16s16 -24.334 16 -41.001c0 -15.333 -5.33301 -28.666 -16 -39.999s-24.334 -17 -41.001 -17z" />
    <glyph glyph-name="aring" unicode="&#xe5;" horiz-adv-x="510" 
d="M287 506c63.333 0 111.168 -14.666 143.501 -43.999s48.5 -69 48.5 -119c0 -8 -0.5 -16.5 -1.5 -25.5s-2.16699 -18.167 -3.5 -27.5l-52 -290h-88l12 68h-4c-16 -23.333 -38 -43.166 -66 -59.499s-59.333 -24.5 -94 -24.5c-24 0 -46.333 3.5 -67 10.5
s-38.5 17.167 -53.5 30.5s-26.833 29.166 -35.5 47.499s-13 39.166 -13 62.499c0 28 6.16699 53.333 18.5 76s29.166 41.834 50.499 57.501s46.5 27.834 75.5 36.501s60.5 13 94.5 13c27.333 0 51.5 -2.83301 72.5 -8.5s41.167 -12.834 60.5 -21.501l4 21
c1.33301 5.33301 2 12 2 20c0 28.667 -10.333 51.667 -31 69s-48 26 -82 26c-26 0 -49.167 -5 -69.5 -15s-40.166 -26.667 -59.499 -50l-72 51c23.333 31.333 53.166 55.166 89.499 71.499s76.5 24.5 120.5 24.5zM201.002 66.001c20.667 0 40.502 3.66895 59.502 11.002
s36 17.5 51 30.5s27.833 28.333 38.5 46s17.667 36.5 21 56.5c-8 6 -18 11.667 -30 17c-10.667 4 -23.834 7.83301 -39.501 11.5s-34.5 5.5 -56.5 5.5c-16.667 0 -33.167 -2 -49.5 -6s-30.833 -10.333 -43.5 -19s-23 -19.334 -31 -32.001s-12 -27.334 -12 -44.001
c0 -12.667 2.66699 -23.834 8 -33.501s12.166 -17.667 20.499 -24s18 -11.166 29 -14.499s22.5 -5 34.5 -5zM307.004 565.003c-14.667 0 -28.334 2.66699 -41.001 8s-23.667 12.833 -33 22.5s-16.666 20.834 -21.999 33.501s-8 26 -8 40c0 29.333 10 54 30 74
s44.667 30 74 30c14 0 27.333 -2.66699 40 -8s23.834 -12.666 33.501 -21.999s17.167 -20.333 22.5 -33s8 -26.334 8 -41.001c0 -14 -2.66699 -27.333 -8 -40s-12.833 -23.834 -22.5 -33.501s-20.834 -17.167 -33.501 -22.5s-26 -8 -40 -8zM307.004 624.003
c12 0 22.333 4.5 31 13.5s13 19.5 13 31.5s-4.33301 22.333 -13 31s-19 13 -31 13s-22.333 -4.33301 -31 -13s-13 -19 -13 -31s4.33301 -22.5 13 -31.5s19 -13.5 31 -13.5z" />
    <glyph glyph-name="ae" unicode="&#xe6;" horiz-adv-x="905" 
d="M828 116c-26 -43.333 -59.498 -76.167 -100.498 -98.5s-85.833 -33.5 -134.5 -33.5c-48 0 -87.833 10.667 -119.5 32s-55.5 49 -71.5 83c-25.333 -34.667 -56.166 -62.5 -92.499 -83.5s-77.5 -31.5 -123.5 -31.5c-25.333 0 -48.5 3.5 -69.5 10.5
s-39.167 17.167 -54.5 30.5s-27.333 29.166 -36 47.499s-13 39.166 -13 62.499c0 28 6.16699 53.333 18.5 76s29.166 41.834 50.499 57.501s46.666 27.834 75.999 36.501s60.666 13 93.999 13c27.333 0 51.5 -2.83301 72.5 -8.5s41.167 -12.834 60.5 -21.501l4 21
c1.33301 6.66699 2 13.334 2 20.001c0 29.333 -10.333 52.5 -31 69.5s-47 25.5 -79 25.5c-27.333 0 -53.166 -6.16699 -77.499 -18.5s-42.5 -29.166 -54.5 -50.499l-77 41c20.667 32 48.667 58.333 84 79s80.666 31 135.999 31c40 0 73.667 -8.83301 101 -26.5
s48 -40.5 62 -68.5c24.667 28.667 54.5 51.667 89.5 69s73.833 26 116.5 26c33.333 0 62.666 -5.16699 87.999 -15.5s46.5 -24.833 63.5 -43.5s29.833 -40.5 38.5 -65.5s13 -51.833 13 -80.5c0 -12 -0.666992 -24.333 -2 -37s-3.66602 -24.667 -6.99902 -36h-385
c-0.666992 -3.33301 -1.16699 -7.83301 -1.5 -13.5s-0.5 -10.834 -0.5 -15.501c0 -22 3.83301 -41.333 11.5 -58s17.667 -30.334 30 -41.001s26.333 -18.667 42 -24s31.5 -8 47.5 -8c34.667 0 65 7.83301 91 23.5s47.667 36.834 65 63.501zM201.002 65.999
c20.667 0 40.502 3.66699 59.502 11s36 17.5 51 30.5s27.833 28.333 38.5 46s17.667 36.5 21 56.5c-8 6 -18 11.667 -30 17c-10.667 4 -23.834 7.83301 -39.501 11.5s-34.5 5.5 -56.5 5.5c-16.667 0 -33.167 -2 -49.5 -6s-30.833 -10.167 -43.5 -18.5s-23 -18.833 -31 -31.5
s-12 -27.667 -12 -45c0 -12.667 2.66699 -23.834 8 -33.501s12.166 -17.667 20.499 -24s18 -11.166 29 -14.499s22.5 -5 34.5 -5zM771.004 303.999l-0.000976562 10.998c0 10.667 -1.66699 22.334 -5 35.001s-9.66602 24.334 -18.999 35.001s-22 19.5 -38 26.5
s-36.333 10.5 -61 10.5c-38 0 -71.333 -10.833 -100 -32.5s-48.667 -50.167 -60 -85.5h283z" />
    <glyph glyph-name="ccedilla" unicode="&#xe7;" horiz-adv-x="522" 
d="M188 -237c-22.667 0 -42.502 6.5 -59.502 19.5s-27.5 28.833 -31.5 47.5l56 23c1.33301 -9.33301 5.5 -17.333 12.5 -24s15.833 -10 26.5 -10c12 0 22.667 4 32 12s14 19.667 14 35c0 9.33301 -3.16699 17.5 -9.5 24.5s-15.166 10.5 -26.499 10.5
c-7.33301 0 -13.5 -1.33301 -18.5 -4s-10.167 -6.66699 -15.5 -12l-43 22l45 82c-25.333 5.33301 -48.166 14.666 -68.499 27.999s-37.666 29.833 -51.999 49.5s-25.333 41.667 -33 66s-11.5 50.166 -11.5 77.499c0 42.667 7.66699 82.167 23 118.5
s36.166 67.666 62.499 93.999s57.333 46.833 93 61.5s73.834 22 114.501 22c30 0 56.333 -4.16699 79 -12.5s42.167 -19.166 58.5 -32.499s29.5 -28.5 39.5 -45.5s17.333 -33.833 22 -50.5l-86 -33c-8 28 -22.167 50 -42.5 66s-47.5 24 -81.5 24
c-26.667 0 -51.5 -5.16699 -74.5 -15.5s-42.833 -24.666 -59.5 -42.999s-29.834 -40 -39.501 -65s-14.5 -52.167 -14.5 -81.5c0 -20 3 -39.167 9 -57.5s14.667 -34.166 26 -47.499s25.666 -24 42.999 -32s37 -12 59 -12c31.333 0 59.5 8.33301 84.5 25
s46.167 39.334 63.5 68.001l74 -35c-15.333 -24 -30.833 -45 -46.5 -63s-33 -32.833 -52 -44.5s-39.667 -20.334 -62 -26.001s-47.5 -8.5 -75.5 -8.5l-19 -32c2.66699 0.666992 5.33398 1.16699 8.00098 1.5s6.66699 0.5 12 0.5c23.333 0 41.833 -8.16699 55.5 -24.5
s20.5 -37.5 20.5 -63.5c0 -30 -10 -54.667 -30 -74s-47 -29 -81 -29z" />
    <glyph glyph-name="egrave" unicode="&#xe8;" horiz-adv-x="536" 
d="M459 116c-26 -43.333 -59.332 -76.1631 -99.999 -98.4961s-84.334 -33.5 -131.001 -33.5c-36 0 -67.833 6 -95.5 18s-51 28.167 -70 48.5s-33.333 44 -43 71s-14.5 55.833 -14.5 86.5c0 38 6.5 74.833 19.5 110.5s31.833 67.5 56.5 95.5s54.5 50.333 89.5 67
s74.167 25 117.5 25c34 0 64 -5.33301 90 -16s47.667 -25.334 65 -44.001s30.333 -40.334 39 -65.001s13 -51.334 13 -80.001c0 -12 -0.666992 -24.667 -2 -38s-3.66602 -25 -6.99902 -35h-386c-0.666992 -6.66699 -1 -12 -1 -16v-13c0 -22 3.83301 -41.333 11.5 -58
s17.834 -30.334 30.501 -41.001s27 -18.667 43 -24s32.333 -8 49 -8c33.333 0 63.166 8 89.499 24s48.166 37.333 65.499 64zM402.001 304.003l-0.00195312 11c0 14 -2.5 27.5 -7.5 40.5s-12.667 24.333 -23 34s-23.166 17.5 -38.499 23.5s-33.333 9 -54 9
c-40 0 -74.167 -10.833 -102.5 -32.5s-48.166 -50.167 -59.499 -85.5h285zM271.999 588.003l-49 128h98l29 -128h-78z" />
    <glyph glyph-name="eacute" unicode="&#xe9;" horiz-adv-x="536" 
d="M459 116c-26 -43.333 -59.332 -76.1631 -99.999 -98.4961s-84.334 -33.5 -131.001 -33.5c-36 0 -67.833 6 -95.5 18s-51 28.167 -70 48.5s-33.333 44 -43 71s-14.5 55.833 -14.5 86.5c0 38 6.5 74.833 19.5 110.5s31.833 67.5 56.5 95.5s54.5 50.333 89.5 67
s74.167 25 117.5 25c34 0 64 -5.33301 90 -16s47.667 -25.334 65 -44.001s30.333 -40.334 39 -65.001s13 -51.334 13 -80.001c0 -12 -0.666992 -24.667 -2 -38s-3.66602 -25 -6.99902 -35h-386c-0.666992 -6.66699 -1 -12 -1 -16v-13c0 -22 3.83301 -41.333 11.5 -58
s17.834 -30.334 30.501 -41.001s27 -18.667 43 -24s32.333 -8 49 -8c33.333 0 63.166 8 89.499 24s48.166 37.333 65.499 64zM402.001 304.003l-0.00195312 11c0 14 -2.5 27.5 -7.5 40.5s-12.667 24.333 -23 34s-23.166 17.5 -38.499 23.5s-33.333 9 -54 9
c-40 0 -74.167 -10.833 -102.5 -32.5s-48.166 -50.167 -59.499 -85.5h285zM255.999 588.003l75 128h102l-95 -128h-82z" />
    <glyph glyph-name="ecircumflex" unicode="&#xea;" horiz-adv-x="536" 
d="M459 116c-26 -43.333 -59.332 -76.1631 -99.999 -98.4961s-84.334 -33.5 -131.001 -33.5c-36 0 -67.833 6 -95.5 18s-51 28.167 -70 48.5s-33.333 44 -43 71s-14.5 55.833 -14.5 86.5c0 38 6.5 74.833 19.5 110.5s31.833 67.5 56.5 95.5s54.5 50.333 89.5 67
s74.167 25 117.5 25c34 0 64 -5.33301 90 -16s47.667 -25.334 65 -44.001s30.333 -40.334 39 -65.001s13 -51.334 13 -80.001c0 -12 -0.666992 -24.667 -2 -38s-3.66602 -25 -6.99902 -35h-386c-0.666992 -6.66699 -1 -12 -1 -16v-13c0 -22 3.83301 -41.333 11.5 -58
s17.834 -30.334 30.501 -41.001s27 -18.667 43 -24s32.333 -8 49 -8c33.333 0 63.166 8 89.499 24s48.166 37.333 65.499 64zM402.001 304.003l-0.00195312 11c0 14 -2.5 27.5 -7.5 40.5s-12.667 24.333 -23 34s-23.166 17.5 -38.499 23.5s-33.333 9 -54 9
c-40 0 -74.167 -10.833 -102.5 -32.5s-48.166 -50.167 -59.499 -85.5h285zM168.999 590.003l124 117h80l82 -117l-1 -5h-83l-41 60h-8l-59 -60h-95z" />
    <glyph glyph-name="edieresis" unicode="&#xeb;" horiz-adv-x="536" 
d="M459 116c-26 -43.333 -59.332 -76.1631 -99.999 -98.4961s-84.334 -33.5 -131.001 -33.5c-36 0 -67.833 6 -95.5 18s-51 28.167 -70 48.5s-33.333 44 -43 71s-14.5 55.833 -14.5 86.5c0 38 6.5 74.833 19.5 110.5s31.833 67.5 56.5 95.5s54.5 50.333 89.5 67
s74.167 25 117.5 25c34 0 64 -5.33301 90 -16s47.667 -25.334 65 -44.001s30.333 -40.334 39 -65.001s13 -51.334 13 -80.001c0 -12 -0.666992 -24.667 -2 -38s-3.66602 -25 -6.99902 -35h-386c-0.666992 -6.66699 -1 -12 -1 -16v-13c0 -22 3.83301 -41.333 11.5 -58
s17.834 -30.334 30.501 -41.001s27 -18.667 43 -24s32.333 -8 49 -8c33.333 0 63.166 8 89.499 24s48.166 37.333 65.499 64zM402.001 304.003l-0.00195312 11c0 14 -2.5 27.5 -7.5 40.5s-12.667 24.333 -23 34s-23.166 17.5 -38.499 23.5s-33.333 9 -54 9
c-40 0 -74.167 -10.833 -102.5 -32.5s-48.166 -50.167 -59.499 -85.5h285zM400.999 602.003c-15.333 0 -28.666 5.66699 -39.999 17s-17 24.666 -17 39.999c0 16.667 5.66699 30.334 17 41.001s24.666 16 39.999 16c16.667 0 30.334 -5.33301 41.001 -16
s16 -24.334 16 -41.001c0 -15.333 -5.33301 -28.666 -16 -39.999s-24.334 -17 -41.001 -17zM232.999 602.003c-15.333 0 -28.666 5.66699 -39.999 17s-17 24.666 -17 39.999c0 16.667 5.66699 30.334 17 41.001s24.666 16 39.999 16c16.667 0 30.334 -5.33301 41.001 -16
s16 -24.334 16 -41.001c0 -15.333 -5.33301 -28.666 -16 -39.999s-24.334 -17 -41.001 -17z" />
    <glyph glyph-name="igrave" unicode="&#xec;" horiz-adv-x="220" 
d="M0 0l86 490h92l-86 -490h-92zM114 588l-49 128h98l29 -128h-78z" />
    <glyph glyph-name="iacute" unicode="&#xed;" horiz-adv-x="220" 
d="M0 0l86 490h92l-86 -490h-92zM105 588l75 128h102l-95 -128h-82z" />
    <glyph glyph-name="icircumflex" unicode="&#xee;" horiz-adv-x="220" 
d="M0 0l86 490h92l-86 -490h-92zM6 599l124 117h80l82 -117l-1 -5h-83l-41 60h-8l-59 -60h-95z" />
    <glyph glyph-name="idieresis" unicode="&#xef;" horiz-adv-x="220" 
d="M93 602c-15.333 0 -28.666 5.66699 -39.999 17s-17 24.666 -17 39.999c0 16.667 5.66699 30.334 17 41.001s24.666 16 39.999 16c16.667 0 30.334 -5.33301 41.001 -16s16 -24.334 16 -41.001c0 -15.333 -5.33301 -28.666 -16 -39.999s-24.334 -17 -41.001 -17zM229 602
c-15.333 0 -28.666 5.66699 -39.999 17s-17 24.666 -17 39.999c0 16.667 5.66699 30.334 17 41.001s24.666 16 39.999 16c16.667 0 30.334 -5.33301 41.001 -16s16 -24.334 16 -41.001c0 -15.333 -5.33301 -28.666 -16 -39.999s-24.334 -17 -41.001 -17zM0 0l86 490h92
l-86 -490h-92z" />
    <glyph glyph-name="eth" unicode="&#xf0;" horiz-adv-x="571" 
d="M421 426c-7.33301 28 -16.998 52.832 -28.998 74.499s-26.333 41.167 -43 58.5l-130 -53l-26 63l94 38c-28.667 17.333 -61.334 30.666 -98.001 39.999l31 77c32 -8.66699 61.333 -19.667 88 -33s51 -28.666 73 -45.999l113 47l25 -62l-86 -36
c30 -36.667 52.333 -78 67 -124s22 -95.667 22 -149c0 -42.667 -5.66699 -84.167 -17 -124.5s-28.5 -76.333 -51.5 -108s-52 -57 -87 -76s-76.167 -28.5 -123.5 -28.5c-31.333 0 -60.833 5.33301 -88.5 16s-52 25.5 -73 44.5s-37.5 41.833 -49.5 68.5s-18 56.334 -18 89.001
c0 36 6.83301 70.5 20.5 103.5s32.5 62 56.5 87s52.667 44.833 86 59.5s69.666 22 108.999 22c30 0 55.667 -5 77 -15s39 -22 53 -36zM252.002 71.999c21.333 0 42.002 4.5 62.002 13.5s37.667 21.167 53 36.5s27.666 33.666 36.999 54.999s14 44 14 68
c0 42 -11.167 76.5 -33.5 103.5s-56.5 40.5 -102.5 40.5c-25.333 0 -48.5 -4.66699 -69.5 -14s-39.167 -22.333 -54.5 -39s-27.333 -36 -36 -58s-13 -46 -13 -72c0 -21.333 3.83301 -40.166 11.5 -56.499s18 -30.333 31 -42s28.167 -20.5 45.5 -26.5s35.666 -9 54.999 -9z
" />
    <glyph glyph-name="ntilde" unicode="&#xf1;" horiz-adv-x="542" 
d="M155 422l3.99805 0.000976562c16.667 24 39.334 44 68.001 60s61.334 24 98.001 24c48 0 86.5 -13.667 115.5 -41s43.5 -64 43.5 -110c0 -10 -0.5 -21.333 -1.5 -34s-2.83301 -25.667 -5.5 -39l-50 -282h-92l52 294c2.66699 13.333 4 26.666 4 39.999
c0 30 -9.16699 52.167 -27.5 66.5s-42.833 21.5 -73.5 21.5c-20 0 -38.833 -4 -56.5 -12s-33.334 -18.833 -47.001 -32.5s-25.167 -29.667 -34.5 -48s-15.666 -37.833 -18.999 -58.5l-48 -271h-92l86 490h88zM393.998 595.001c-12 0 -23.168 2.33301 -33.501 7
s-20.166 10 -29.499 16c-10 5.33301 -20 10.333 -30 15s-21 7 -33 7c-20 0 -33 -11.667 -39 -35h-76c5.33301 40 18.333 69.667 39 89s45.667 29 75 29c12 0 23.333 -2.33301 34 -7s21 -9.66699 31 -15c9.33301 -6 19 -11.333 29 -16s20.667 -7 32 -7c20 0 33 11.667 39 35
h76c-5.33301 -40 -18.333 -69.667 -39 -89s-45.667 -29 -75 -29z" />
    <glyph glyph-name="ograve" unicode="&#xf2;" horiz-adv-x="560" 
d="M298 506c34 0 65.167 -6.16699 93.5 -18.5s52.5 -29.166 72.5 -50.499s35.5 -46.166 46.5 -74.499s16.5 -58.5 16.5 -90.5c0 -40.667 -7.33301 -78.5 -22 -113.5s-35 -65.5 -61 -91.5s-57 -46.333 -93 -61s-75 -22 -117 -22c-34 0 -65.167 6.16699 -93.5 18.5
s-52.5 29.166 -72.5 50.499s-35.5 46.166 -46.5 74.499s-16.5 58.5 -16.5 90.5c0 40.667 7.33301 78.5 22 113.5s35 65.5 61 91.5s57 46.333 93 61s75 22 117 22zM243 68c29.333 0 55.833 5.5 79.5 16.5s43.667 25.667 60 44s28.833 39.333 37.5 63s13 48.5 13 74.5
c0 22.667 -3.83301 43.5 -11.5 62.5s-18 35.5 -31 49.5s-28.333 24.833 -46 32.5s-36.167 11.5 -55.5 11.5c-29.333 0 -55.833 -5.5 -79.5 -16.5s-43.667 -25.667 -60 -44s-28.833 -39.333 -37.5 -63s-13 -48.5 -13 -74.5c0 -22.667 3.83301 -43.5 11.5 -62.5
s18 -35.5 31 -49.5s28.333 -24.833 46 -32.5s36.167 -11.5 55.5 -11.5zM276 588l-49 128h98l29 -128h-78z" />
    <glyph glyph-name="oacute" unicode="&#xf3;" horiz-adv-x="560" 
d="M298 506c34 0 65.167 -6.16699 93.5 -18.5s52.5 -29.166 72.5 -50.499s35.5 -46.166 46.5 -74.499s16.5 -58.5 16.5 -90.5c0 -40.667 -7.33301 -78.5 -22 -113.5s-35 -65.5 -61 -91.5s-57 -46.333 -93 -61s-75 -22 -117 -22c-34 0 -65.167 6.16699 -93.5 18.5
s-52.5 29.166 -72.5 50.499s-35.5 46.166 -46.5 74.499s-16.5 58.5 -16.5 90.5c0 40.667 7.33301 78.5 22 113.5s35 65.5 61 91.5s57 46.333 93 61s75 22 117 22zM243 68c29.333 0 55.833 5.5 79.5 16.5s43.667 25.667 60 44s28.833 39.333 37.5 63s13 48.5 13 74.5
c0 22.667 -3.83301 43.5 -11.5 62.5s-18 35.5 -31 49.5s-28.333 24.833 -46 32.5s-36.167 11.5 -55.5 11.5c-29.333 0 -55.833 -5.5 -79.5 -16.5s-43.667 -25.667 -60 -44s-28.833 -39.333 -37.5 -63s-13 -48.5 -13 -74.5c0 -22.667 3.83301 -43.5 11.5 -62.5
s18 -35.5 31 -49.5s28.333 -24.833 46 -32.5s36.167 -11.5 55.5 -11.5zM272 588l75 128h102l-95 -128h-82z" />
    <glyph glyph-name="ocircumflex" unicode="&#xf4;" horiz-adv-x="560" 
d="M298 506c34 0 65.167 -6.16699 93.5 -18.5s52.5 -29.166 72.5 -50.499s35.5 -46.166 46.5 -74.499s16.5 -58.5 16.5 -90.5c0 -40.667 -7.33301 -78.5 -22 -113.5s-35 -65.5 -61 -91.5s-57 -46.333 -93 -61s-75 -22 -117 -22c-34 0 -65.167 6.16699 -93.5 18.5
s-52.5 29.166 -72.5 50.499s-35.5 46.166 -46.5 74.499s-16.5 58.5 -16.5 90.5c0 40.667 7.33301 78.5 22 113.5s35 65.5 61 91.5s57 46.333 93 61s75 22 117 22zM243 68c29.333 0 55.833 5.5 79.5 16.5s43.667 25.667 60 44s28.833 39.333 37.5 63s13 48.5 13 74.5
c0 22.667 -3.83301 43.5 -11.5 62.5s-18 35.5 -31 49.5s-28.333 24.833 -46 32.5s-36.167 11.5 -55.5 11.5c-29.333 0 -55.833 -5.5 -79.5 -16.5s-43.667 -25.667 -60 -44s-28.833 -39.333 -37.5 -63s-13 -48.5 -13 -74.5c0 -22.667 3.83301 -43.5 11.5 -62.5
s18 -35.5 31 -49.5s28.333 -24.833 46 -32.5s36.167 -11.5 55.5 -11.5zM175 599l124 117h80l82 -117l-1 -5h-83l-41 60h-8l-59 -60h-95z" />
    <glyph glyph-name="otilde" unicode="&#xf5;" horiz-adv-x="560" 
d="M298 506c34 0 65.167 -6.16699 93.5 -18.5s52.5 -29.166 72.5 -50.499s35.5 -46.166 46.5 -74.499s16.5 -58.5 16.5 -90.5c0 -40.667 -7.33301 -78.5 -22 -113.5s-35 -65.5 -61 -91.5s-57 -46.333 -93 -61s-75 -22 -117 -22c-34 0 -65.167 6.16699 -93.5 18.5
s-52.5 29.166 -72.5 50.499s-35.5 46.166 -46.5 74.499s-16.5 58.5 -16.5 90.5c0 40.667 7.33301 78.5 22 113.5s35 65.5 61 91.5s57 46.333 93 61s75 22 117 22zM243 68c29.333 0 55.833 5.5 79.5 16.5s43.667 25.667 60 44s28.833 39.333 37.5 63s13 48.5 13 74.5
c0 22.667 -3.83301 43.5 -11.5 62.5s-18 35.5 -31 49.5s-28.333 24.833 -46 32.5s-36.167 11.5 -55.5 11.5c-29.333 0 -55.833 -5.5 -79.5 -16.5s-43.667 -25.667 -60 -44s-28.833 -39.333 -37.5 -63s-13 -48.5 -13 -74.5c0 -22.667 3.83301 -43.5 11.5 -62.5
s18 -35.5 31 -49.5s28.333 -24.833 46 -32.5s36.167 -11.5 55.5 -11.5zM395 595c-12 0 -23.168 2.33301 -33.501 7s-20.166 10 -29.499 16c-10 5.33301 -20 10.333 -30 15s-21 7 -33 7c-20 0 -33 -11.667 -39 -35h-76c5.33301 40 18.333 69.667 39 89s45.667 29 75 29
c12 0 23.333 -2.33301 34 -7s21 -9.66699 31 -15c9.33301 -6 19 -11.333 29 -16s20.667 -7 32 -7c20 0 33 11.667 39 35h76c-5.33301 -40 -18.333 -69.667 -39 -89s-45.667 -29 -75 -29z" />
    <glyph glyph-name="odieresis" unicode="&#xf6;" horiz-adv-x="560" 
d="M298 506c34 0 65.167 -6.16699 93.5 -18.5s52.5 -29.166 72.5 -50.499s35.5 -46.166 46.5 -74.499s16.5 -58.5 16.5 -90.5c0 -40.667 -7.33301 -78.5 -22 -113.5s-35 -65.5 -61 -91.5s-57 -46.333 -93 -61s-75 -22 -117 -22c-34 0 -65.167 6.16699 -93.5 18.5
s-52.5 29.166 -72.5 50.499s-35.5 46.166 -46.5 74.499s-16.5 58.5 -16.5 90.5c0 40.667 7.33301 78.5 22 113.5s35 65.5 61 91.5s57 46.333 93 61s75 22 117 22zM243 68c29.333 0 55.833 5.5 79.5 16.5s43.667 25.667 60 44s28.833 39.333 37.5 63s13 48.5 13 74.5
c0 22.667 -3.83301 43.5 -11.5 62.5s-18 35.5 -31 49.5s-28.333 24.833 -46 32.5s-36.167 11.5 -55.5 11.5c-29.333 0 -55.833 -5.5 -79.5 -16.5s-43.667 -25.667 -60 -44s-28.833 -39.333 -37.5 -63s-13 -48.5 -13 -74.5c0 -22.667 3.83301 -43.5 11.5 -62.5
s18 -35.5 31 -49.5s28.333 -24.833 46 -32.5s36.167 -11.5 55.5 -11.5zM415 602c-15.333 0 -28.666 5.66699 -39.999 17s-17 24.666 -17 39.999c0 16.667 5.66699 30.334 17 41.001s24.666 16 39.999 16c16.667 0 30.334 -5.33301 41.001 -16s16 -24.334 16 -41.001
c0 -15.333 -5.33301 -28.666 -16 -39.999s-24.334 -17 -41.001 -17zM247 602c-15.333 0 -28.666 5.66699 -39.999 17s-17 24.666 -17 39.999c0 16.667 5.66699 30.334 17 41.001s24.666 16 39.999 16c16.667 0 30.334 -5.33301 41.001 -16s16 -24.334 16 -41.001
c0 -15.333 -5.33301 -28.666 -16 -39.999s-24.334 -17 -41.001 -17z" />
    <glyph glyph-name="divide" unicode="&#xf7;" horiz-adv-x="550" 
d="M33 233l14 76h438l-14 -76h-438zM227 20c-19.333 0 -35.5 6.5 -48.5 19.5s-19.5 29.167 -19.5 48.5s6.5 35.5 19.5 48.5s29.167 19.5 48.5 19.5s35.5 -6.5 48.5 -19.5s19.5 -29.167 19.5 -48.5s-6.5 -35.5 -19.5 -48.5s-29.167 -19.5 -48.5 -19.5zM291 386
c-19.333 0 -35.5 6.5 -48.5 19.5s-19.5 29.167 -19.5 48.5s6.5 35.5 19.5 48.5s29.167 19.5 48.5 19.5s35.5 -6.5 48.5 -19.5s19.5 -29.167 19.5 -48.5s-6.5 -35.5 -19.5 -48.5s-29.167 -19.5 -48.5 -19.5z" />
    <glyph glyph-name="oslash" unicode="&#xf8;" horiz-adv-x="560" 
d="M298 506c44.667 0 84.667 -11.001 120 -33.001l45 57l57 -44l-48 -59c17.333 -21.333 30.833 -45 40.5 -71s14.5 -54 14.5 -84c0 -40.667 -7.33301 -78.5 -22 -113.5s-35 -65.5 -61 -91.5s-57 -46.333 -93 -61s-75 -22 -117 -22c-18.667 0 -36.167 1.83301 -52.5 5.5
s-31.833 8.83398 -46.5 15.501l-34 -42l-58 43l32 40c-22 21.333 -39.167 46.833 -51.5 76.5s-18.5 61.5 -18.5 95.5c0 40.667 7.33301 78.5 22 113.5s35 65.5 61 91.5s57 46.333 93 61s75 22 117 22zM99 223.999c0 -20.667 3 -39.833 9 -57.5s14.667 -33.167 26 -46.5
l226 282c-21.333 13.333 -45 20 -71 20c-29.333 0 -55.833 -5.5 -79.5 -16.5s-43.667 -25.667 -60 -44s-28.833 -39.333 -37.5 -63s-13 -48.5 -13 -74.5zM243 68c29.333 0 55.832 5.50098 79.499 16.501s43.667 25.667 60 44s28.833 39.333 37.5 63s13 48.5 13 74.5
c0 15.333 -2 30.166 -6 44.499s-9.33301 27.5 -16 39.5l-218 -273c14.667 -6 31.334 -9 50.001 -9z" />
    <glyph glyph-name="ugrave" unicode="&#xf9;" horiz-adv-x="542" 
d="M348 68l-3.99805 -0.000976562c-16.667 -24 -39.334 -44 -68.001 -60s-61.334 -24 -98.001 -24c-48 0 -86.5 13.667 -115.5 41s-43.5 64 -43.5 110c0 10 0.5 21.333 1.5 34s2.83301 25.667 5.5 39l50 282h92l-52 -294c-2.66699 -13.333 -4 -26.666 -4 -39.999
c0 -30 9.16699 -52.167 27.5 -66.5s42.833 -21.5 73.5 -21.5c20 0 38.833 4 56.5 12s33.334 18.833 47.001 32.5s25.167 29.667 34.5 48s15.666 37.833 18.999 58.5l48 271h92l-86 -490h-88zM278.002 587.999l-49 128h98l29 -128h-78z" />
    <glyph glyph-name="uacute" unicode="&#xfa;" horiz-adv-x="542" 
d="M348 68l-3.99805 -0.000976562c-16.667 -24 -39.334 -44 -68.001 -60s-61.334 -24 -98.001 -24c-48 0 -86.5 13.667 -115.5 41s-43.5 64 -43.5 110c0 10 0.5 21.333 1.5 34s2.83301 25.667 5.5 39l50 282h92l-52 -294c-2.66699 -13.333 -4 -26.666 -4 -39.999
c0 -30 9.16699 -52.167 27.5 -66.5s42.833 -21.5 73.5 -21.5c20 0 38.833 4 56.5 12s33.334 18.833 47.001 32.5s25.167 29.667 34.5 48s15.666 37.833 18.999 58.5l48 271h92l-86 -490h-88zM259.002 587.999l75 128h102l-95 -128h-82z" />
    <glyph glyph-name="ucircumflex" unicode="&#xfb;" horiz-adv-x="542" 
d="M348 68l-3.99805 -0.000976562c-16.667 -24 -39.334 -44 -68.001 -60s-61.334 -24 -98.001 -24c-48 0 -86.5 13.667 -115.5 41s-43.5 64 -43.5 110c0 10 0.5 21.333 1.5 34s2.83301 25.667 5.5 39l50 282h92l-52 -294c-2.66699 -13.333 -4 -26.666 -4 -39.999
c0 -30 9.16699 -52.167 27.5 -66.5s42.833 -21.5 73.5 -21.5c20 0 38.833 4 56.5 12s33.334 18.833 47.001 32.5s25.167 29.667 34.5 48s15.666 37.833 18.999 58.5l48 271h92l-86 -490h-88zM169.002 583.999l124 117h80l82 -117l-1 -5h-83l-41 60h-8l-59 -60h-95z" />
    <glyph glyph-name="udieresis" unicode="&#xfc;" horiz-adv-x="542" 
d="M348 68l-3.99805 -0.000976562c-16.667 -24 -39.334 -44 -68.001 -60s-61.334 -24 -98.001 -24c-48 0 -86.5 13.667 -115.5 41s-43.5 64 -43.5 110c0 10 0.5 21.333 1.5 34s2.83301 25.667 5.5 39l50 282h92l-52 -294c-2.66699 -13.333 -4 -26.666 -4 -39.999
c0 -30 9.16699 -52.167 27.5 -66.5s42.833 -21.5 73.5 -21.5c20 0 38.833 4 56.5 12s33.334 18.833 47.001 32.5s25.167 29.667 34.5 48s15.666 37.833 18.999 58.5l48 271h92l-86 -490h-88zM408.002 601.999c-15.333 0 -28.666 5.66699 -39.999 17s-17 24.666 -17 39.999
c0 16.667 5.66699 30.334 17 41.001s24.666 16 39.999 16c16.667 0 30.334 -5.33301 41.001 -16s16 -24.334 16 -41.001c0 -15.333 -5.33301 -28.666 -16 -39.999s-24.334 -17 -41.001 -17zM240.002 601.999c-15.333 0 -28.666 5.66699 -39.999 17s-17 24.666 -17 39.999
c0 16.667 5.66699 30.334 17 41.001s24.666 16 39.999 16c16.667 0 30.334 -5.33301 41.001 -16s16 -24.334 16 -41.001c0 -15.333 -5.33301 -28.666 -16 -39.999s-24.334 -17 -41.001 -17z" />
    <glyph glyph-name="yacute" unicode="&#xfd;" horiz-adv-x="498" 
d="M246 588l75 128h102l-95 -128h-82zM5 -216l158 247l-121 459h97l86 -353h2l205 353h102l-432 -706h-97z" />
    <glyph glyph-name="thorn" unicode="&#xfe;" horiz-adv-x="576" 
d="M349 506c28.667 0 55.333 -5.33496 80 -16.002s46.167 -25.834 64.5 -45.501s32.666 -43.667 42.999 -72s15.5 -60.166 15.5 -95.499c0 -38 -7.16699 -74.5 -21.5 -109.5s-34.166 -66.167 -59.499 -93.5s-55.333 -49.166 -90 -65.499s-72.334 -24.5 -113.001 -24.5
c-33.333 0 -63.5 8 -90.5 24s-47.5 36 -61.5 60h-4l-8 -68l-38 -216h-92l164 932h92l-40 -226l-16 -68h4c16.667 22.667 38.834 42.334 66.501 59.001s62.5 25 104.5 25zM274.999 67.998c25.333 0 49.167 5.16699 71.5 15.5s41.666 24.666 57.999 42.999
s29.333 39.833 39 64.5s14.5 51.334 14.5 80.001c0 47.333 -11.5 84.333 -34.5 111s-56.5 40 -100.5 40c-26 0 -50.333 -5.83301 -73 -17.5s-42.167 -27.167 -58.5 -46.5s-29.166 -41.5 -38.499 -66.5s-14 -50.833 -14 -77.5c0 -48 13 -84.333 39 -109s58.333 -37 97 -37z
" />
    <glyph glyph-name="ydieresis" unicode="&#xff;" horiz-adv-x="498" 
d="M5 -216l158 247l-121 459h97l86 -353h2l205 353h102l-432 -706h-97zM385 602c-15.333 0 -28.666 5.66699 -39.999 17s-17 24.666 -17 39.999c0 16.667 5.66699 30.334 17 41.001s24.666 16 39.999 16c16.667 0 30.334 -5.33301 41.001 -16s16 -24.334 16 -41.001
c0 -15.333 -5.33301 -28.666 -16 -39.999s-24.334 -17 -41.001 -17zM217 602c-15.333 0 -28.666 5.66699 -39.999 17s-17 24.666 -17 39.999c0 16.667 5.66699 30.334 17 41.001s24.666 16 39.999 16c16.667 0 30.334 -5.33301 41.001 -16s16 -24.334 16 -41.001
c0 -15.333 -5.33301 -28.666 -16 -39.999s-24.334 -17 -41.001 -17z" />
    <glyph glyph-name="dotlessi" unicode="&#x131;" horiz-adv-x="220" 
d="M0 0l86 490h92l-86 -490h-92z" />
    <glyph glyph-name="OE" unicode="&#x152;" horiz-adv-x="1149" 
d="M821 628l-39.9971 -227.003h294l-15 -86h-294l-40 -227h326l-16 -88h-418l16 91c-36.667 -33.333 -78 -59.5 -124 -78.5s-96.667 -28.5 -152 -28.5c-46 0 -88.833 7.83301 -128.5 23.5s-74.334 37.834 -104.001 66.501s-52.834 62.834 -69.501 102.501
s-25 83.5 -25 131.5c0 54.667 10.167 107.5 30.5 158.5s49 96.167 86 135.5s81.667 70.833 134 94.5s110.166 35.5 173.499 35.5c57.333 0 109.333 -12.167 156 -36.5s84 -58.166 112 -101.499l22 122h418l-16 -88h-326zM367.003 71.9971
c44.667 0 86.167 9.33203 124.5 27.999s71.833 43.334 100.5 74.001s51.167 65.834 67.5 105.501s24.5 80.167 24.5 121.5c0 38 -6.33301 72 -19 102s-29.834 55.5 -51.501 76.5s-47.167 37 -76.5 48s-60.666 16.5 -93.999 16.5c-44.667 0 -86.334 -9.33301 -125.001 -28
s-72.167 -43.334 -100.5 -74.001s-50.666 -65.667 -66.999 -105s-24.5 -80 -24.5 -122c0 -38 6.33301 -72 19 -102s29.834 -55.5 51.501 -76.5s47.167 -37 76.5 -48s60.666 -16.5 93.999 -16.5z" />
    <glyph glyph-name="oe" unicode="&#x153;" horiz-adv-x="952" 
d="M892 116c-26 -43.333 -59.501 -76.1641 -100.501 -98.4971s-85.833 -33.5 -134.5 -33.5c-44.667 0 -82.167 9.5 -112.5 28.5s-53.833 44.167 -70.5 75.5c-25.333 -32 -57 -57.333 -95 -76s-81 -28 -129 -28c-34 0 -65.167 6.16699 -93.5 18.5s-52.5 29.166 -72.5 50.499
s-35.5 46.166 -46.5 74.499s-16.5 58.5 -16.5 90.5c0 40.667 7.33301 78.5 22 113.5s35 65.5 61 91.5s57 46.333 93 61s75 22 117 22c44.667 0 83.334 -10.167 116.001 -30.5s58 -47.5 76 -81.5c24 34 54.333 61.167 91 81.5s79.334 30.5 128.001 30.5
c33.333 0 62.666 -5.16699 87.999 -15.5s46.5 -24.833 63.5 -43.5s29.833 -40.5 38.5 -65.5s13 -51.833 13 -80.5c0 -24.667 -3 -49 -9 -73h-385c-0.666992 -3.33301 -1.16699 -7.83301 -1.5 -13.5s-0.5 -10.834 -0.5 -15.501c0 -22 3.83301 -41.333 11.5 -58
s17.667 -30.334 30 -41.001s26.333 -18.667 42 -24s31.5 -8 47.5 -8c34.667 0 65 7.83301 91 23.5s47.667 36.834 65 63.501zM258.999 68.002c29.333 0 55.833 5.5 79.5 16.5s43.667 25.667 60 44s28.833 39.333 37.5 63s13 48.5 13 74.5c0 22.667 -3.83301 43.5 -11.5 62.5
s-18 35.5 -31 49.5s-28.333 24.833 -46 32.5s-36.167 11.5 -55.5 11.5c-29.333 0 -55.833 -5.5 -79.5 -16.5s-43.667 -25.667 -60 -44s-28.833 -39.333 -37.5 -63s-13 -48.5 -13 -74.5c0 -22.667 3.83301 -43.5 11.5 -62.5s18 -35.5 31 -49.5s28.333 -24.833 46 -32.5
s36.167 -11.5 55.5 -11.5zM834.999 304.002l-0.000976562 10.998c0 10.667 -1.66699 22.334 -5 35.001s-9.66602 24.334 -18.999 35.001s-22 19.5 -38 26.5s-36.333 10.5 -61 10.5c-38 0 -71.333 -10.833 -100 -32.5s-48.667 -50.167 -60 -85.5h283z" />
    <glyph glyph-name="circumflex" unicode="&#x2c6;" horiz-adv-x="400" 
d="M98 599l124 117h80l82 -117l-1 -5h-83l-41 60h-8l-59 -60h-95z" />
    <glyph glyph-name="ring" unicode="&#x2da;" horiz-adv-x="400" 
d="M250 568c-14.667 0 -28.334 2.66699 -41.001 8s-23.667 12.833 -33 22.5s-16.666 20.834 -21.999 33.501s-8 26 -8 40c0 29.333 10 54 30 74s44.667 30 74 30c14 0 27.333 -2.66699 40 -8s23.834 -12.666 33.501 -21.999s17.167 -20.333 22.5 -33s8 -26.334 8 -41.001
c0 -14 -2.66699 -27.333 -8 -40s-12.833 -23.834 -22.5 -33.501s-20.834 -17.167 -33.501 -22.5s-26 -8 -40 -8zM250 627c12 0 22.333 4.5 31 13.5s13 19.5 13 31.5s-4.33301 22.333 -13 31s-19 13 -31 13s-22.333 -4.33301 -31 -13s-13 -19 -13 -31s4.33301 -22.5 13 -31.5
s19 -13.5 31 -13.5z" />
    <glyph glyph-name="tilde" unicode="&#x2dc;" horiz-adv-x="400" 
d="M315 594c-12 0 -23.168 2.33301 -33.501 7s-20.166 10 -29.499 16c-10 5.33301 -20 10.333 -30 15s-21 7 -33 7c-20 0 -33 -11.667 -39 -35h-76c5.33301 40 18.333 69.667 39 89s45.667 29 75 29c12 0 23.333 -2.33301 34 -7s21 -9.66699 31 -15
c9.33301 -6 19 -11.333 29 -16s20.667 -7 32 -7c20 0 33 11.667 39 35h76c-5.33301 -40 -18.333 -69.667 -39 -89s-45.667 -29 -75 -29z" />
    <glyph glyph-name="endash" unicode="&#x2013;" horiz-adv-x="592" 
d="M55 348h480l-13 -76h-480z" />
    <glyph glyph-name="emdash" unicode="&#x2014;" horiz-adv-x="892" 
d="M55 348h780l-13 -76h-780z" />
    <glyph glyph-name="quoteleft" unicode="&#x2018;" horiz-adv-x="232" 
d="M231 701l-60 -73c6.66699 -2.66699 15 -9 25 -19s15 -24.333 15 -43c0 -19.333 -6.83301 -35.5 -20.5 -48.5s-29.167 -19.5 -46.5 -19.5c-19.333 0 -35.666 6.5 -48.999 19.5s-20 29.167 -20 48.5c0 11.333 4.16699 23 12.5 35s18.166 25 29.499 39l77 92z" />
    <glyph glyph-name="quoteright" unicode="&#x2019;" horiz-adv-x="232" 
d="M88 529l60 73.001c-3.33301 1.33301 -7.33301 3.5 -12 6.5s-9 7 -13 12s-7.5 11.167 -10.5 18.5s-4.5 15.666 -4.5 24.999c0 19.333 6.83301 35.5 20.5 48.5s29.167 19.5 46.5 19.5c19.333 0 35.666 -6.5 48.999 -19.5s20 -29.167 20 -48.5
c0 -11.333 -4.16699 -23 -12.5 -35s-18.166 -25 -29.499 -39l-77 -92z" />
    <glyph glyph-name="quotesinglbase" unicode="&#x201a;" horiz-adv-x="232" 
d="M-21 -72l60 73.001c-3.33301 1.33301 -7.33301 3.5 -12 6.5s-9 7 -13 12s-7.5 11.167 -10.5 18.5s-4.5 15.666 -4.5 24.999c0 19.333 6.83301 35.5 20.5 48.5s29.167 19.5 46.5 19.5c19.333 0 35.666 -6.5 48.999 -19.5s20 -29.167 20 -48.5
c0 -11.333 -4.16699 -23 -12.5 -35s-18.166 -25 -29.499 -39l-77 -92z" />
    <glyph glyph-name="quotedblleft" unicode="&#x201c;" horiz-adv-x="408" 
d="M231 701l-60 -73c6.66699 -2.66699 15 -9 25 -19s15 -24.333 15 -43c0 -19.333 -6.83301 -35.5 -20.5 -48.5s-29.167 -19.5 -46.5 -19.5c-19.333 0 -35.666 6.5 -48.999 19.5s-20 29.167 -20 48.5c0 11.333 4.16699 23 12.5 35s18.166 25 29.499 39l77 92zM407 701
l-60 -73c6.66699 -2.66699 15 -9 25 -19s15 -24.333 15 -43c0 -19.333 -6.83301 -35.5 -20.5 -48.5s-29.167 -19.5 -46.5 -19.5c-19.333 0 -35.666 6.5 -48.999 19.5s-20 29.167 -20 48.5c0 11.333 4.16699 23 12.5 35s18.166 25 29.499 39l77 92z" />
    <glyph glyph-name="quotedblright" unicode="&#x201d;" horiz-adv-x="408" 
d="M88 529l60 73.001c-3.33301 1.33301 -7.33301 3.5 -12 6.5s-9 7 -13 12s-7.5 11.167 -10.5 18.5s-4.5 15.666 -4.5 24.999c0 19.333 6.83301 35.5 20.5 48.5s29.167 19.5 46.5 19.5c19.333 0 35.666 -6.5 48.999 -19.5s20 -29.167 20 -48.5
c0 -11.333 -4.16699 -23 -12.5 -35s-18.166 -25 -29.499 -39l-77 -92zM264 529.001l60 73.001c-3.33301 1.33301 -7.33301 3.5 -12 6.5s-9 7 -13 12s-7.5 11.167 -10.5 18.5s-4.5 15.666 -4.5 24.999c0 19.333 6.83301 35.5 20.5 48.5s29.167 19.5 46.5 19.5
c19.333 0 35.666 -6.5 48.999 -19.5s20 -29.167 20 -48.5c0 -11.333 -4.16699 -23 -12.5 -35s-18.166 -25 -29.499 -39l-77 -92z" />
    <glyph glyph-name="quotedblbase" unicode="&#x201e;" horiz-adv-x="408" 
d="M-21 -72l60 73.001c-3.33301 1.33301 -7.33301 3.5 -12 6.5s-9 7 -13 12s-7.5 11.167 -10.5 18.5s-4.5 15.666 -4.5 24.999c0 19.333 6.83301 35.5 20.5 48.5s29.167 19.5 46.5 19.5c19.333 0 35.666 -6.5 48.999 -19.5s20 -29.167 20 -48.5
c0 -11.333 -4.16699 -23 -12.5 -35s-18.166 -25 -29.499 -39l-77 -92zM154 -71.999l60 73.001c-3.33301 1.33301 -7.33301 3.5 -12 6.5s-9 7 -13 12s-7.5 11.167 -10.5 18.5s-4.5 15.666 -4.5 24.999c0 19.333 6.83301 35.5 20.5 48.5s29.167 19.5 46.5 19.5
c19.333 0 35.666 -6.5 48.999 -19.5s20 -29.167 20 -48.5c0 -11.333 -4.16699 -23 -12.5 -35s-18.166 -25 -29.499 -39l-77 -92z" />
    <glyph glyph-name="bullet" unicode="&#x2022;" horiz-adv-x="400" 
d="M194 204c-16.667 0 -32.167 3.16699 -46.5 9.5s-27 15 -38 26s-19.667 23.667 -26 38s-9.5 29.833 -9.5 46.5s3.16699 32.167 9.5 46.5s15 27 26 38s23.667 19.667 38 26s29.833 9.5 46.5 9.5s32.167 -3.16699 46.5 -9.5s27 -15 38 -26s19.667 -23.667 26 -38
s9.5 -29.833 9.5 -46.5s-3.16699 -32.167 -9.5 -46.5s-15 -27 -26 -38s-23.667 -19.667 -38 -26s-29.833 -9.5 -46.5 -9.5z" />
    <glyph glyph-name="ellipsis" unicode="&#x2026;" horiz-adv-x="704" 
d="M64 -6c-19.333 0 -35.5 6.5 -48.5 19.5s-19.5 29.167 -19.5 48.5s6.5 35.5 19.5 48.5s29.167 19.5 48.5 19.5s35.5 -6.5 48.5 -19.5s19.5 -29.167 19.5 -48.5s-6.5 -35.5 -19.5 -48.5s-29.167 -19.5 -48.5 -19.5zM300 -6c-19.333 0 -35.5 6.5 -48.5 19.5
s-19.5 29.167 -19.5 48.5s6.5 35.5 19.5 48.5s29.167 19.5 48.5 19.5s35.5 -6.5 48.5 -19.5s19.5 -29.167 19.5 -48.5s-6.5 -35.5 -19.5 -48.5s-29.167 -19.5 -48.5 -19.5zM536 -6c-19.333 0 -35.5 6.5 -48.5 19.5s-19.5 29.167 -19.5 48.5s6.5 35.5 19.5 48.5
s29.167 19.5 48.5 19.5s35.5 -6.5 48.5 -19.5s19.5 -29.167 19.5 -48.5s-6.5 -35.5 -19.5 -48.5s-29.167 -19.5 -48.5 -19.5z" />
    <glyph glyph-name="guilsinglleft" unicode="&#x2039;" horiz-adv-x="356" 
d="M243 100l-60 -48l-163 219l240 219l47 -53l-187 -171z" />
    <glyph glyph-name="guilsinglright" unicode="&#x203a;" horiz-adv-x="356" 
d="M78 442l60 48l163 -219l-240 -219l-47 53l187 171z" />
    <glyph glyph-name="fraction" unicode="&#x2044;" horiz-adv-x="170" 
d="M-238 34l592 690l53 -42l-589 -691z" />
    <glyph glyph-name="uni2074" unicode="&#x2074;" horiz-adv-x="345" 
d="M197 350l13 72h-171l8 48l218 246h67l-41 -234h48l-11 -60h-48l-13 -72h-70zM221 482l22 126h-4l-112 -126h94z" />
    <glyph glyph-name="Euro" unicode="&#x20ac;" horiz-adv-x="629" 
d="M42 460l87 0.000976562c14.667 34 34 65.5 58 94.5s51.5 54.333 82.5 76s65.333 38.667 103 51s78.167 18.5 121.5 18.5c32.667 0 60.667 -4 84 -12s44.666 -18.667 63.999 -32l-50 -76c-13.333 9.33301 -29.166 16.833 -47.499 22.5s-40.166 8.5 -65.499 8.5
c-56.667 0 -106.5 -14 -149.5 -42s-76.5 -64.333 -100.5 -109h230l-13 -76h-246c-6.66699 -26 -10 -54 -10 -84h241l-13 -76h-219c13.333 -52.667 37.833 -91 73.5 -115s75.167 -36 118.5 -36c44 0 86.667 10.667 128 32l36 -77c-28.667 -16 -57 -27.333 -85 -34
s-58.333 -10 -91 -10c-35.333 0 -68.5 5.16699 -99.5 15.5s-58.667 25.666 -83 45.999s-44.833 45.333 -61.5 75s-28.334 64.167 -35.001 103.5h-99l13 76h81c0 14 0.833008 28 2.5 42s4.16699 28 7.5 42h-76z" />
    <glyph glyph-name="minus" unicode="&#x2212;" horiz-adv-x="550" 
d="M34 233l13 76h438l-13 -76h-438z" />
    <glyph glyph-name="uni2215" unicode="&#x2215;" horiz-adv-x="437" 
d="M-38 0l423 716h88l-424 -716h-87z" />
    <glyph glyph-name="Lslash" horiz-adv-x="574" 
d="M133 276l-69 -38l-37 67l123 69l61 342h92l-49 -278l133 75l37 -68l-188 -105l-44 -252h310l-16 -88h-402z" />
    <glyph glyph-name="uniF8FF" horiz-adv-x="1000" 
d="M891 451c2.66699 -14 4.50195 -28.0039 5.50195 -42.0039s1.5 -28.667 1.5 -44c0 -59.333 -9.5 -113.833 -28.5 -163.5s-46 -92.5 -81 -128.5s-77 -64 -126 -84s-103.5 -30 -163.5 -30c-57.333 0 -111.333 10.833 -162 32.5s-94.834 51.334 -132.501 89.001
s-67.334 81.834 -89.001 132.501s-32.5 104.667 -32.5 162s10.833 111.333 32.5 162s51.334 94.834 89.001 132.501s81.834 67.334 132.501 89.001s104.667 32.5 162 32.5c56.667 0 108.167 -9.5 154.5 -28.5s87.5 -45.5 123.5 -79.5l-119 -120
c-43.333 41.333 -96.333 62 -159 62c-34 0 -66 -6.66699 -96 -20s-56 -31.333 -78 -54s-39.5 -49.167 -52.5 -79.5s-19.5 -62.5 -19.5 -96.5s6.5 -66.167 19.5 -96.5s30.5 -57 52.5 -80s48 -41.167 78 -54.5s62 -20 96 -20c30.667 0 58.667 4.16699 84 12.5
s47.666 19.833 66.999 34.5s35.166 32.167 47.499 52.5s20.833 42.5 25.5 66.5h-224v161h392z" />
    <glyph glyph-name="one.numerator" horiz-adv-x="242" 
d="M110 350l50 282l-63 -25l-22 55l124 54h46l-65 -366h-70z" />
    <glyph glyph-name="two.denominator" horiz-adv-x="304" 
d="M-37 0l11.0029 60.001l75 65l28 24l26 22c7.33301 6.66699 13.666 12 18.999 16c4.66699 4 7.66699 6.66699 9 8c11.333 8.66699 23 19.5 35 32.5s18 26.833 18 41.5c0 13.333 -4.5 23.5 -13.5 30.5s-20.167 10.5 -33.5 10.5c-30 0 -52.333 -19.333 -67 -58l-60 27
c9.33301 30.667 26.166 54.167 50.499 70.5s52.166 24.5 83.499 24.5c34 0 61.333 -9.33301 82 -28s31 -42 31 -70c0 -13.333 -2 -25.5 -6 -36.5s-9.5 -21.333 -16.5 -31s-15.167 -18.834 -24.5 -27.501l-29 -26l-28 -24l-36 -30l-44 -37h151l-12 -64h-249z" />
    <glyph glyph-name="two.numerator" horiz-adv-x="304" 
d="M23 350l11.0029 60.001l75 65l28 24l26 22c7.33301 6.66699 13.666 12 18.999 16c4.66699 4 7.66699 6.66699 9 8c11.333 8.66699 23 19.5 35 32.5s18 26.833 18 41.5c0 13.333 -4.5 23.5 -13.5 30.5s-20.167 10.5 -33.5 10.5c-30 0 -52.333 -19.333 -67 -58l-60 27
c9.33301 30.667 26.166 54.167 50.499 70.5s52.166 24.5 83.499 24.5c34 0 61.333 -9.33301 82 -28s31 -42 31 -70c0 -13.333 -2 -25.5 -6 -36.5s-9.5 -21.333 -16.5 -31s-15.167 -18.834 -24.5 -27.501l-29 -26l-28 -24l-36 -30l-44 -37h151l-12 -64h-249z" />
    <glyph glyph-name="three.numerator" horiz-adv-x="323" 
d="M161 342c-28.667 0 -54.998 8.00098 -78.998 24.001s-39 41.333 -45 76l65 23c5.33301 -21.333 13.666 -36.5 24.999 -45.5s25 -13.5 41 -13.5c18 0 33.667 5.5 47 16.5s20 24.5 20 40.5c0 31.333 -20.333 47 -61 47h-32l11 60h37c17.333 0 31.833 4.83301 43.5 14.5
s17.5 21.834 17.5 36.501c0 13.333 -4.5 23.166 -13.5 29.499s-19.167 9.5 -30.5 9.5c-18 0 -32 -4.83301 -42 -14.5s-17.667 -19.167 -23 -28.5l-58 25c9.33301 24 25.5 43.667 48.5 59s50.5 23 82.5 23s58.167 -8.83301 78.5 -26.5s30.5 -39.5 30.5 -65.5
c0 -20 -6.83301 -38.333 -20.5 -55s-28.834 -28.334 -45.501 -35.001c14.667 -7.33301 26.5 -17.5 35.5 -30.5s13.5 -28.5 13.5 -46.5c0 -17.333 -3.66699 -33.5 -11 -48.5s-17.5 -28 -30.5 -39s-28.5 -19.667 -46.5 -26s-37.333 -9.5 -58 -9.5z" />
    <glyph glyph-name="four.denominator" horiz-adv-x="345" 
d="M134 0l13 72h-171l8 48l218 246h67l-41 -234h48l-11 -60h-48l-13 -72h-70zM158 132l22 126h-4l-112 -126h94z" />
    <glyph glyph-name="four.numerator" horiz-adv-x="345" 
d="M197 350l13 72h-171l8 48l218 246h67l-41 -234h48l-11 -60h-48l-13 -72h-70zM221 482l22 126h-4l-112 -126h94z" />
    <glyph glyph-name="r.alt" horiz-adv-x="360" 
d="M153 410l4 0.000976562c14.667 31.333 37.834 54.833 69.501 70.5s65.834 23.5 102.501 23.5c9.33301 0 16 -0.166992 20 -0.5s8.33301 -0.833008 13 -1.5l-17 -96c-4.66699 1.33301 -10.334 2.33301 -17.001 3s-14.667 1 -24 1c-20.667 0 -40.5 -3.5 -59.5 -10.5
s-36.333 -17.167 -52 -30.5s-28.834 -29.333 -39.501 -48s-18 -39.334 -22 -62.001l-46 -259h-92l86 490h88z" />
    <glyph glyph-name="uni03BC" horiz-adv-x="542" 
d="M336 0l12.001 67.999h-4c-16.667 -24 -39.334 -44 -68.001 -60s-61.334 -24 -98.001 -24c-18.667 0 -36.167 3.66699 -52.5 11s-29.166 17 -38.499 29h-4l-6 -56l-34 -184h-91l124 706h92l-52 -294c-2.66699 -13.333 -4 -26.666 -4 -39.999
c0 -30 9.16699 -52.167 27.5 -66.5s42.833 -21.5 73.5 -21.5c20 0 38.833 4 56.5 12s33.334 18.833 47.001 32.5s25.167 29.667 34.5 48s15.666 37.833 18.999 58.5l48 271h92l-86 -490h-88z" />
    <glyph glyph-name="uni2103" horiz-adv-x="973" 
d="M600 -16c-46 0 -87.498 8.16602 -124.498 24.499s-68.5 38.5 -94.5 66.5s-45.833 60.667 -59.5 98s-20.5 77 -20.5 119c0 54 9.83301 105.667 29.5 155s47.5 92.666 83.5 129.999s79.333 67.166 130 89.499s106.667 33.5 168 33.5c49.333 0 93.833 -10.167 133.5 -30.5
s73.167 -48.166 100.5 -83.499l-74 -62c-9.33301 12.667 -19.333 24.334 -30 35.001s-23 19.834 -37 27.501s-29.833 13.667 -47.5 18s-37.834 6.5 -60.501 6.5c-42.667 0 -82.334 -7.83301 -119.001 -23.5s-68.5 -37.5 -95.5 -65.5s-48.167 -61.333 -63.5 -100
s-23 -81.334 -23 -128.001c0 -34.667 5.5 -65.667 16.5 -93s26.333 -50.5 46 -69.5s42.834 -33.5 69.501 -43.5s56 -15 88 -15c24 0 45.833 2.16699 65.5 6.5s38 10.5 55 18.5s33.167 17.833 48.5 29.5s30.666 24.834 45.999 39.501l53 -63c-20 -20 -40 -37.5 -60 -52.5
s-41.333 -27.5 -64 -37.5s-47 -17.5 -73 -22.5s-55 -7.5 -87 -7.5zM186.002 441.999c-16 0 -31.167 2.66699 -45.5 8s-27 13 -38 23s-19.667 22 -26 36s-9.5 29.667 -9.5 47c0 21.333 3.66699 40.833 11 58.5s17.5 32.834 30.5 45.501s28.333 22.5 46 29.5
s37.167 10.5 58.5 10.5c16 0 31.167 -2.83301 45.5 -8.5s27 -13.5 38 -23.5s19.667 -22 26 -36s9.5 -29.333 9.5 -46c0 -21.333 -3.66699 -40.833 -11 -58.5s-17.5 -32.834 -30.5 -45.501s-28.5 -22.5 -46.5 -29.5s-37.333 -10.5 -58 -10.5zM192.002 505.999
c19.333 0 36 6.83301 50 20.5s21 30.834 21 51.501c0 17.333 -5.16699 31.333 -15.5 42s-23.833 16 -40.5 16c-19.333 0 -36 -6.83301 -50 -20.5s-21 -30.834 -21 -51.501c0 -17.333 5.16699 -31.333 15.5 -42s23.833 -16 40.5 -16z" />
    <glyph glyph-name="uni2109" horiz-adv-x="813" 
d="M313 0l121 684h404l-16 -88h-312l-38 -219h281l-15 -86h-281l-52 -291h-92zM186 442c-16 0 -31.167 2.66699 -45.5 8s-27 13 -38 23s-19.667 22 -26 36s-9.5 29.667 -9.5 47c0 21.333 3.66699 40.833 11 58.5s17.5 32.834 30.5 45.501s28.333 22.5 46 29.5
s37.167 10.5 58.5 10.5c16 0 31.167 -2.83301 45.5 -8.5s27 -13.5 38 -23.5s19.667 -22 26 -36s9.5 -29.333 9.5 -46c0 -21.333 -3.66699 -40.833 -11 -58.5s-17.5 -32.834 -30.5 -45.501s-28.5 -22.5 -46.5 -29.5s-37.333 -10.5 -58 -10.5zM192 506
c19.333 0 36 6.83301 50 20.5s21 30.834 21 51.501c0 17.333 -5.16699 31.333 -15.5 42s-23.833 16 -40.5 16c-19.333 0 -36 -6.83301 -50 -20.5s-21 -30.834 -21 -51.501c0 -17.333 5.16699 -31.333 15.5 -42s23.833 -16 40.5 -16z" />
    <glyph glyph-name="uni2190" horiz-adv-x="1082" 
d="M246 272v-160l-198 198l198 198v-160h780v-76h-780z" />
    <glyph glyph-name="uni2191" horiz-adv-x="476" 
d="M276 -120h-76v742h-160l198 198l198 -198h-160v-742z" />
    <glyph glyph-name="uni2192" horiz-adv-x="1082" 
d="M56 272v76h780v160l198 -198l-198 -198v160h-780z" />
    <glyph glyph-name="uni2193" horiz-adv-x="476" 
d="M276 50h160l-198 -198l-198 198h160v742h76v-742z" />
    <glyph glyph-name="uni2196" horiz-adv-x="772" 
d="M772 38l-54 -54l-565 565l-113 -113v280h280l-113 -113z" />
    <glyph glyph-name="uni2197" horiz-adv-x="772" 
d="M565 603l-113 113h280v-280l-113 113l-565 -565l-54 54z" />
    <glyph glyph-name="uni2198" horiz-adv-x="772" 
d="M207 113l113 -113h-280v280l113 -113l565 565l54 -54z" />
    <glyph glyph-name="uni2199" horiz-adv-x="772" 
d="M0 678l54 54l565 -565l113 113v-280h-280l113 113z" />
    <glyph glyph-name="uni2639" 
d="M287 395c-15.333 0 -28.5 5.5 -39.5 16.5s-16.5 24.5 -16.5 40.5c0 15.333 5.5 28.333 16.5 39s24.167 16 39.5 16s28.5 -5.33301 39.5 -16s16.5 -23.667 16.5 -39c0 -16 -5.5 -29.5 -16.5 -40.5s-24.167 -16.5 -39.5 -16.5zM549 395c-15.333 0 -28.5 5.5 -39.5 16.5
s-16.5 24.5 -16.5 40.5c0 15.333 5.5 28.333 16.5 39s24.167 16 39.5 16s28.5 -5.33301 39.5 -16s16.5 -23.667 16.5 -39c0 -16 -5.5 -29.5 -16.5 -40.5s-24.167 -16.5 -39.5 -16.5zM418 -16c-51.333 0 -99.666 9.83301 -144.999 29.5s-85 46.5 -119 80.5
s-60.833 73.667 -80.5 119s-29.5 93.666 -29.5 144.999s9.83301 99.666 29.5 144.999s46.5 85 80.5 119s73.667 60.833 119 80.5s93.666 29.5 144.999 29.5s99.666 -9.83301 144.999 -29.5s85 -46.5 119 -80.5s60.833 -73.667 80.5 -119s29.5 -93.666 29.5 -144.999
s-9.83301 -99.666 -29.5 -144.999s-46.5 -85 -80.5 -119s-73.667 -60.833 -119 -80.5s-93.666 -29.5 -144.999 -29.5zM418 48c42.667 0 82.834 8.16699 120.501 24.5s70.5 38.666 98.5 66.999s50.167 61.333 66.5 99s24.5 77.5 24.5 119.5
c0 42.667 -8.16699 82.834 -24.5 120.501s-38.5 70.5 -66.5 98.5s-60.833 50.167 -98.5 66.5s-77.834 24.5 -120.501 24.5c-42 0 -81.833 -8.16699 -119.5 -24.5s-70.667 -38.5 -99 -66.5s-50.666 -60.833 -66.999 -98.5s-24.5 -77.834 -24.5 -120.501
c0 -42 8.16699 -81.833 24.5 -119.5s38.666 -70.667 66.999 -99s61.333 -50.666 99 -66.999s77.5 -24.5 119.5 -24.5zM418 301c42 0 79.668 -10.833 113.001 -32.5s58 -50.5 74 -86.5l-67 -31c-11.333 23.333 -27.833 41.666 -49.5 54.999s-45.167 20 -70.5 20
s-48.833 -6.66699 -70.5 -20s-37.834 -31.666 -48.501 -54.999l-68 31c16 36 40.667 64.833 74 86.5s71 32.5 113 32.5z" />
    <glyph glyph-name="uni263A" 
d="M549 395c-15.333 0 -28.5 5.5 -39.5 16.5s-16.5 24.5 -16.5 40.5c0 15.333 5.5 28.333 16.5 39s24.167 16 39.5 16s28.5 -5.33301 39.5 -16s16.5 -23.667 16.5 -39c0 -16 -5.5 -29.5 -16.5 -40.5s-24.167 -16.5 -39.5 -16.5zM287 395c-15.333 0 -28.5 5.5 -39.5 16.5
s-16.5 24.5 -16.5 40.5c0 15.333 5.5 28.333 16.5 39s24.167 16 39.5 16s28.5 -5.33301 39.5 -16s16.5 -23.667 16.5 -39c0 -16 -5.5 -29.5 -16.5 -40.5s-24.167 -16.5 -39.5 -16.5zM418 152c-42 0 -79.668 10.833 -113.001 32.5s-58 50.5 -74 86.5l68 31
c10.667 -23.333 26.834 -41.666 48.501 -54.999s45.167 -20 70.5 -20s48.833 6.66699 70.5 20s38.167 31.666 49.5 54.999l67 -31c-16 -36 -40.667 -64.833 -74 -86.5s-71 -32.5 -113 -32.5zM417.999 -16c-51.333 0 -99.666 9.83301 -144.999 29.5s-85 46.5 -119 80.5
s-60.833 73.667 -80.5 119s-29.5 93.666 -29.5 144.999s9.83301 99.666 29.5 144.999s46.5 85 80.5 119s73.667 60.833 119 80.5s93.666 29.5 144.999 29.5s99.666 -9.83301 144.999 -29.5s85 -46.5 119 -80.5s60.833 -73.667 80.5 -119s29.5 -93.666 29.5 -144.999
s-9.83301 -99.666 -29.5 -144.999s-46.5 -85 -80.5 -119s-73.667 -60.833 -119 -80.5s-93.666 -29.5 -144.999 -29.5zM417.999 48c42.667 0 82.834 8.16699 120.501 24.5s70.5 38.666 98.5 66.999s50.167 61.333 66.5 99s24.5 77.5 24.5 119.5
c0 42.667 -8.16699 82.834 -24.5 120.501s-38.5 70.5 -66.5 98.5s-60.833 50.167 -98.5 66.5s-77.834 24.5 -120.501 24.5c-42 0 -81.833 -8.16699 -119.5 -24.5s-70.667 -38.5 -99 -66.5s-50.666 -60.833 -66.999 -98.5s-24.5 -77.834 -24.5 -120.501
c0 -42 8.16699 -81.833 24.5 -119.5s38.666 -70.667 66.999 -99s61.333 -50.666 99 -66.999s77.5 -24.5 119.5 -24.5z" />
    <glyph glyph-name="uni2780" 
d="M396 177v285l-64 -26l-24 54l112 53h46v-366h-70zM418 -16c-51.333 0 -99.666 9.83301 -144.999 29.5s-85 46.5 -119 80.5s-60.833 73.667 -80.5 119s-29.5 93.666 -29.5 144.999s9.83301 99.666 29.5 144.999s46.5 85 80.5 119s73.667 60.833 119 80.5
s93.666 29.5 144.999 29.5s99.666 -9.83301 144.999 -29.5s85 -46.5 119 -80.5s60.833 -73.667 80.5 -119s29.5 -93.666 29.5 -144.999s-9.83301 -99.666 -29.5 -144.999s-46.5 -85 -80.5 -119s-73.667 -60.833 -119 -80.5s-93.666 -29.5 -144.999 -29.5zM418 48
c42.667 0 82.834 8.16699 120.501 24.5s70.5 38.666 98.5 66.999s50.167 61.333 66.5 99s24.5 77.5 24.5 119.5c0 42.667 -8.16699 82.834 -24.5 120.501s-38.5 70.5 -66.5 98.5s-60.833 50.167 -98.5 66.5s-77.834 24.5 -120.501 24.5c-42 0 -81.833 -8.16699 -119.5 -24.5
s-70.667 -38.5 -99 -66.5s-50.666 -60.833 -66.999 -98.5s-24.5 -77.834 -24.5 -120.501c0 -42 8.16699 -81.833 24.5 -119.5s38.666 -70.667 66.999 -99s61.333 -50.666 99 -66.999s77.5 -24.5 119.5 -24.5z" />
    <glyph glyph-name="uni2781" 
d="M293 177l-0.00292969 60.001l64 65l70 70c8.66699 8.66699 17.834 19.167 27.501 31.5s14.5 25.5 14.5 39.5c0 13.333 -5 24 -15 32s-22.333 12 -37 12s-27.5 -4.66699 -38.5 -14s-18.5 -24 -22.5 -44l-65 27c6.66699 30 21.834 53.333 45.501 70s50.167 25 79.5 25
c16 0 31.5 -2.5 46.5 -7.5s28.333 -12.167 40 -21.5s21 -20.666 28 -33.999s10.5 -28.333 10.5 -45c0 -12 -2.33301 -23.333 -7 -34s-10.167 -20.834 -16.5 -30.501s-13.166 -18.334 -20.499 -26.001l-20 -20.5l-24 -24l-31 -30l-37 -37h158v-64h-250zM417.997 -15.999
c-51.333 0 -99.666 9.83301 -144.999 29.5s-85 46.5 -119 80.5s-60.833 73.667 -80.5 119s-29.5 93.666 -29.5 144.999s9.83301 99.666 29.5 144.999s46.5 85 80.5 119s73.667 60.833 119 80.5s93.666 29.5 144.999 29.5s99.666 -9.83301 144.999 -29.5s85 -46.5 119 -80.5
s60.833 -73.667 80.5 -119s29.5 -93.666 29.5 -144.999s-9.83301 -99.666 -29.5 -144.999s-46.5 -85 -80.5 -119s-73.667 -60.833 -119 -80.5s-93.666 -29.5 -144.999 -29.5zM417.997 48.001c42.667 0 82.834 8.16699 120.501 24.5s70.5 38.666 98.5 66.999
s50.167 61.333 66.5 99s24.5 77.5 24.5 119.5c0 42.667 -8.16699 82.834 -24.5 120.501s-38.5 70.5 -66.5 98.5s-60.833 50.167 -98.5 66.5s-77.834 24.5 -120.501 24.5c-42 0 -81.833 -8.16699 -119.5 -24.5s-70.667 -38.5 -99 -66.5s-50.666 -60.833 -66.999 -98.5
s-24.5 -77.834 -24.5 -120.501c0 -42 8.16699 -81.833 24.5 -119.5s38.666 -70.667 66.999 -99s61.333 -50.666 99 -66.999s77.5 -24.5 119.5 -24.5z" />
    <glyph glyph-name="uni2782" 
d="M418 -16c-51.333 0 -99.666 9.83301 -144.999 29.5s-85 46.5 -119 80.5s-60.833 73.667 -80.5 119s-29.5 93.666 -29.5 144.999s9.83301 99.666 29.5 144.999s46.5 85 80.5 119s73.667 60.833 119 80.5s93.666 29.5 144.999 29.5s99.666 -9.83301 144.999 -29.5
s85 -46.5 119 -80.5s60.833 -73.667 80.5 -119s29.5 -93.666 29.5 -144.999s-9.83301 -99.666 -29.5 -144.999s-46.5 -85 -80.5 -119s-73.667 -60.833 -119 -80.5s-93.666 -29.5 -144.999 -29.5zM418 48c42.667 0 82.834 8.16699 120.501 24.5s70.5 38.666 98.5 66.999
s50.167 61.333 66.5 99s24.5 77.5 24.5 119.5c0 42.667 -8.16699 82.834 -24.5 120.501s-38.5 70.5 -66.5 98.5s-60.833 50.167 -98.5 66.5s-77.834 24.5 -120.501 24.5c-42 0 -81.833 -8.16699 -119.5 -24.5s-70.667 -38.5 -99 -66.5s-50.666 -60.833 -66.999 -98.5
s-24.5 -77.834 -24.5 -120.501c0 -42 8.16699 -81.833 24.5 -119.5s38.666 -70.667 66.999 -99s61.333 -50.666 99 -66.999s77.5 -24.5 119.5 -24.5zM415 169c-30.667 0 -58.5 8 -83.5 24s-41.833 41.333 -50.5 76l65 24c5.33301 -22.667 14.666 -38.334 27.999 -47.001
s27 -13 41 -13c15.333 0 29.333 4.83301 42 14.5s19 22.834 19 39.501c0 15.333 -5.83301 27.5 -17.5 36.5s-25.834 13.5 -42.501 13.5h-41v60h37c15.333 0 27.833 4.33301 37.5 13s14.5 20 14.5 34c0 13.333 -5 23.833 -15 31.5s-21.667 11.5 -35 11.5
c-18 0 -31.333 -4.83301 -40 -14.5s-14.667 -19.167 -18 -28.5l-62 25c8.66699 24 22.834 43.667 42.501 59s45.5 23 77.5 23c36 0 65.333 -9.83301 88 -29.5s34 -45.167 34 -76.5c0 -16.667 -3.83301 -31 -11.5 -43s-18.834 -22.667 -33.501 -32
c16.667 -9.33301 30.334 -20.833 41.001 -34.5s16 -30.167 16 -49.5c0 -18.667 -3.66699 -35.167 -11 -49.5s-17.166 -26.5 -29.499 -36.5s-26.5 -17.667 -42.5 -23s-32.667 -8 -50 -8z" />
    <glyph glyph-name="uni2783" 
d="M423 177v72h-171v48l174 246h67v-234h48v-60h-48v-72h-70zM423 440h-4l-94 -131h98v131zM418 -16c-51.333 0 -99.666 9.83301 -144.999 29.5s-85 46.5 -119 80.5s-60.833 73.667 -80.5 119s-29.5 93.666 -29.5 144.999s9.83301 99.666 29.5 144.999s46.5 85 80.5 119
s73.667 60.833 119 80.5s93.666 29.5 144.999 29.5s99.666 -9.83301 144.999 -29.5s85 -46.5 119 -80.5s60.833 -73.667 80.5 -119s29.5 -93.666 29.5 -144.999s-9.83301 -99.666 -29.5 -144.999s-46.5 -85 -80.5 -119s-73.667 -60.833 -119 -80.5
s-93.666 -29.5 -144.999 -29.5zM418 48c42.667 0 82.834 8.16699 120.501 24.5s70.5 38.666 98.5 66.999s50.167 61.333 66.5 99s24.5 77.5 24.5 119.5c0 42.667 -8.16699 82.834 -24.5 120.501s-38.5 70.5 -66.5 98.5s-60.833 50.167 -98.5 66.5
s-77.834 24.5 -120.501 24.5c-42 0 -81.833 -8.16699 -119.5 -24.5s-70.667 -38.5 -99 -66.5s-50.666 -60.833 -66.999 -98.5s-24.5 -77.834 -24.5 -120.501c0 -42 8.16699 -81.833 24.5 -119.5s38.666 -70.667 66.999 -99s61.333 -50.666 99 -66.999
s77.5 -24.5 119.5 -24.5z" />
    <glyph glyph-name="uni2784" 
d="M418 -16c-51.333 0 -99.666 9.83301 -144.999 29.5s-85 46.5 -119 80.5s-60.833 73.667 -80.5 119s-29.5 93.666 -29.5 144.999s9.83301 99.666 29.5 144.999s46.5 85 80.5 119s73.667 60.833 119 80.5s93.666 29.5 144.999 29.5s99.666 -9.83301 144.999 -29.5
s85 -46.5 119 -80.5s60.833 -73.667 80.5 -119s29.5 -93.666 29.5 -144.999s-9.83301 -99.666 -29.5 -144.999s-46.5 -85 -80.5 -119s-73.667 -60.833 -119 -80.5s-93.666 -29.5 -144.999 -29.5zM418 48c42.667 0 82.834 8.16699 120.501 24.5s70.5 38.666 98.5 66.999
s50.167 61.333 66.5 99s24.5 77.5 24.5 119.5c0 42.667 -8.16699 82.834 -24.5 120.501s-38.5 70.5 -66.5 98.5s-60.833 50.167 -98.5 66.5s-77.834 24.5 -120.501 24.5c-42 0 -81.833 -8.16699 -119.5 -24.5s-70.667 -38.5 -99 -66.5s-50.666 -60.833 -66.999 -98.5
s-24.5 -77.834 -24.5 -120.501c0 -42 8.16699 -81.833 24.5 -119.5s38.666 -70.667 66.999 -99s61.333 -50.666 99 -66.999s77.5 -24.5 119.5 -24.5zM418 169c-13.333 0 -26.998 1.66992 -40.998 5.00293s-27 8.66602 -39 15.999s-22.667 16.666 -32 27.999
s-16.333 25.333 -21 42l65 25c4 -16.667 12 -29.5 24 -38.5s26.667 -13.5 44 -13.5s32 6.33301 44 19s18 27.667 18 45c0 18 -6 33.167 -18 45.5s-26.667 18.5 -44 18.5c-24.667 0 -45 -11 -61 -33l-61 25l25 189h209v-60h-150l-12 -81
c7.33301 6.66699 16.166 11.667 26.499 15s21.166 5 32.499 5c16.667 0 32.667 -3 48 -9s28.666 -14.333 39.999 -25s20.333 -23.834 27 -39.501s10 -32.834 10 -51.501c0 -18 -3.66699 -34.833 -11 -50.5s-17.166 -29.167 -29.499 -40.5s-26.5 -20.166 -42.5 -26.499
s-33 -9.5 -51 -9.5z" />
    <glyph glyph-name="uni2785" 
d="M418 -16c-51.333 0 -99.666 9.83301 -144.999 29.5s-85 46.5 -119 80.5s-60.833 73.667 -80.5 119s-29.5 93.666 -29.5 144.999s9.83301 99.666 29.5 144.999s46.5 85 80.5 119s73.667 60.833 119 80.5s93.666 29.5 144.999 29.5s99.666 -9.83301 144.999 -29.5
s85 -46.5 119 -80.5s60.833 -73.667 80.5 -119s29.5 -93.666 29.5 -144.999s-9.83301 -99.666 -29.5 -144.999s-46.5 -85 -80.5 -119s-73.667 -60.833 -119 -80.5s-93.666 -29.5 -144.999 -29.5zM418 48c42.667 0 82.834 8.16699 120.501 24.5s70.5 38.666 98.5 66.999
s50.167 61.333 66.5 99s24.5 77.5 24.5 119.5c0 42.667 -8.16699 82.834 -24.5 120.501s-38.5 70.5 -66.5 98.5s-60.833 50.167 -98.5 66.5s-77.834 24.5 -120.501 24.5c-42 0 -81.833 -8.16699 -119.5 -24.5s-70.667 -38.5 -99 -66.5s-50.666 -60.833 -66.999 -98.5
s-24.5 -77.834 -24.5 -120.501c0 -42 8.16699 -81.833 24.5 -119.5s38.666 -70.667 66.999 -99s61.333 -50.666 99 -66.999s77.5 -24.5 119.5 -24.5zM414 169c-18.667 0 -36.166 3.33301 -52.499 10s-30.5 15.667 -42.5 27s-21.5 24.666 -28.5 39.999
s-10.5 31.666 -10.5 48.999c0 20.667 4.16699 40.167 12.5 58.5s19.166 36.833 32.499 55.5l27 38l36 50l45 62l54 -38l-84 -106c2.66699 1.33301 6 2.33301 10 3s7.66699 1 11 1c17.333 0 33.5 -3.5 48.5 -10.5s28 -16.167 39 -27.5s19.667 -24.5 26 -39.5
s9.5 -30.5 9.5 -46.5c0 -17.333 -3.66699 -33.666 -11 -48.999s-17 -28.666 -29 -39.999s-26 -20.333 -42 -27s-33 -10 -51 -10zM413.001 233c18.667 0 33.667 6.33301 45 19s17 27.334 17 44.001c0 16 -5.66699 30.5 -17 43.5s-26.333 19.5 -45 19.5
c-18 0 -32.667 -6.5 -44 -19.5s-17 -27.5 -17 -43.5c0 -16.667 5.5 -31.334 16.5 -44.001s25.833 -19 44.5 -19z" />
    <glyph glyph-name="uni2786" 
d="M418 -16c-51.333 0 -99.666 9.83301 -144.999 29.5s-85 46.5 -119 80.5s-60.833 73.667 -80.5 119s-29.5 93.666 -29.5 144.999s9.83301 99.666 29.5 144.999s46.5 85 80.5 119s73.667 60.833 119 80.5s93.666 29.5 144.999 29.5s99.666 -9.83301 144.999 -29.5
s85 -46.5 119 -80.5s60.833 -73.667 80.5 -119s29.5 -93.666 29.5 -144.999s-9.83301 -99.666 -29.5 -144.999s-46.5 -85 -80.5 -119s-73.667 -60.833 -119 -80.5s-93.666 -29.5 -144.999 -29.5zM418 48c42.667 0 82.834 8.16699 120.501 24.5s70.5 38.666 98.5 66.999
s50.167 61.333 66.5 99s24.5 77.5 24.5 119.5c0 42.667 -8.16699 82.834 -24.5 120.501s-38.5 70.5 -66.5 98.5s-60.833 50.167 -98.5 66.5s-77.834 24.5 -120.501 24.5c-42 0 -81.833 -8.16699 -119.5 -24.5s-70.667 -38.5 -99 -66.5s-50.666 -60.833 -66.999 -98.5
s-24.5 -77.834 -24.5 -120.501c0 -42 8.16699 -81.833 24.5 -119.5s38.666 -70.667 66.999 -99s61.333 -50.666 99 -66.999s77.5 -24.5 119.5 -24.5zM314 195l159 284h-172v64h250v-60l-175 -321z" />
    <glyph glyph-name="uni2787" 
d="M418 -16c-51.333 0 -99.666 9.83301 -144.999 29.5s-85 46.5 -119 80.5s-60.833 73.667 -80.5 119s-29.5 93.666 -29.5 144.999s9.83301 99.666 29.5 144.999s46.5 85 80.5 119s73.667 60.833 119 80.5s93.666 29.5 144.999 29.5s99.666 -9.83301 144.999 -29.5
s85 -46.5 119 -80.5s60.833 -73.667 80.5 -119s29.5 -93.666 29.5 -144.999s-9.83301 -99.666 -29.5 -144.999s-46.5 -85 -80.5 -119s-73.667 -60.833 -119 -80.5s-93.666 -29.5 -144.999 -29.5zM418 48c42.667 0 82.834 8.16699 120.501 24.5s70.5 38.666 98.5 66.999
s50.167 61.333 66.5 99s24.5 77.5 24.5 119.5c0 42.667 -8.16699 82.834 -24.5 120.501s-38.5 70.5 -66.5 98.5s-60.833 50.167 -98.5 66.5s-77.834 24.5 -120.501 24.5c-42 0 -81.833 -8.16699 -119.5 -24.5s-70.667 -38.5 -99 -66.5s-50.666 -60.833 -66.999 -98.5
s-24.5 -77.834 -24.5 -120.501c0 -42 8.16699 -81.833 24.5 -119.5s38.666 -70.667 66.999 -99s61.333 -50.666 99 -66.999s77.5 -24.5 119.5 -24.5zM418 169c-16.667 0 -33 2.66699 -49 8s-30.333 12.833 -43 22.5s-22.834 21.5 -30.501 35.5s-11.5 30 -11.5 48
c0 17.333 4.5 33.5 13.5 48.5s21.5 27.833 37.5 38.5c-11.333 7.33301 -20.666 17.666 -27.999 30.999s-11 27 -11 41c0 16.667 3.33301 31.667 10 45s15.667 24.833 27 34.5s24.333 17 39 22s30 7.5 46 7.5c15.333 0 30.333 -2.5 45 -7.5s27.667 -12.333 39 -22
s20.5 -21.167 27.5 -34.5s10.5 -28.333 10.5 -45c0 -13.333 -3.66699 -26.666 -11 -39.999s-16.666 -24 -27.999 -32c16 -10.667 28.5 -23.5 37.5 -38.5s13.5 -31.167 13.5 -48.5c0 -18 -3.83301 -34 -11.5 -48s-17.834 -26 -30.501 -36s-27 -17.5 -43 -22.5
s-32.333 -7.5 -49 -7.5zM418 397c12.667 0 24.167 4.16699 34.5 12.5s15.5 19.166 15.5 32.499c0 12.667 -4.83301 23.334 -14.5 32.001s-21.5 13 -35.5 13c-14.667 0 -26.667 -4.33301 -36 -13s-14 -19.334 -14 -32.001c0 -13.333 5 -24.166 15 -32.499
s21.667 -12.5 35 -12.5zM418 233c14.667 0 28.667 5 42 15s20 22.667 20 38s-6.66699 27.833 -20 37.5s-27.333 14.5 -42 14.5c-15.333 0 -29.5 -4.83301 -42.5 -14.5s-19.5 -22.167 -19.5 -37.5c0 -16 6.5 -28.833 19.5 -38.5s27.167 -14.5 42.5 -14.5z" />
    <glyph glyph-name="uni2788" 
d="M418 -16c-51.333 0 -99.666 9.83301 -144.999 29.5s-85 46.5 -119 80.5s-60.833 73.667 -80.5 119s-29.5 93.666 -29.5 144.999s9.83301 99.666 29.5 144.999s46.5 85 80.5 119s73.667 60.833 119 80.5s93.666 29.5 144.999 29.5s99.666 -9.83301 144.999 -29.5
s85 -46.5 119 -80.5s60.833 -73.667 80.5 -119s29.5 -93.666 29.5 -144.999s-9.83301 -99.666 -29.5 -144.999s-46.5 -85 -80.5 -119s-73.667 -60.833 -119 -80.5s-93.666 -29.5 -144.999 -29.5zM418 48c42.667 0 82.834 8.16699 120.501 24.5s70.5 38.666 98.5 66.999
s50.167 61.333 66.5 99s24.5 77.5 24.5 119.5c0 42.667 -8.16699 82.834 -24.5 120.501s-38.5 70.5 -66.5 98.5s-60.833 50.167 -98.5 66.5s-77.834 24.5 -120.501 24.5c-42 0 -81.833 -8.16699 -119.5 -24.5s-70.667 -38.5 -99 -66.5s-50.666 -60.833 -66.999 -98.5
s-24.5 -77.834 -24.5 -120.501c0 -42 8.16699 -81.833 24.5 -119.5s38.666 -70.667 66.999 -99s61.333 -50.666 99 -66.999s77.5 -24.5 119.5 -24.5zM415 551c18.667 0 36.166 -3.33301 52.499 -10s30.5 -15.667 42.5 -27s21.5 -24.666 28.5 -39.999
s10.5 -31.666 10.5 -48.999c0 -20.667 -4.16699 -40.167 -12.5 -58.5s-19.166 -36.833 -32.499 -55.5l-27.5 -38.5l-35.5 -49.5l-45 -62l-54 38l84 106c-2.66699 -1.33301 -6 -2.33301 -10 -3s-7.66699 -1 -11 -1c-17.333 0 -33.5 3.5 -48.5 10.5s-28 16.167 -39 27.5
s-19.667 24.5 -26 39.5s-9.5 30.5 -9.5 46.5c0 17.333 3.66699 33.666 11 48.999s17 28.666 29 39.999s26 20.333 42 27s33 10 51 10zM415.999 487c-18.667 0 -33.667 -6.33301 -45 -19s-17 -27.334 -17 -44.001c0 -16 5.66699 -30.5 17 -43.5s26.333 -19.5 45 -19.5
c18 0 32.667 6.5 44 19.5s17 27.5 17 43.5c0 16.667 -5.5 31.334 -16.5 44.001s-25.833 19 -44.5 19z" />
    <glyph glyph-name="uni278A" 
d="M466 543h-46l-112 -53l24 -54l64 26v-285h70v366zM418 -16c-51.333 0 -99.666 9.83301 -144.999 29.5s-85 46.5 -119 80.5s-60.833 73.667 -80.5 119s-29.5 93.666 -29.5 144.999s9.83301 99.666 29.5 144.999s46.5 85 80.5 119s73.667 60.833 119 80.5
s93.666 29.5 144.999 29.5s99.666 -9.83301 144.999 -29.5s85 -46.5 119 -80.5s60.833 -73.667 80.5 -119s29.5 -93.666 29.5 -144.999s-9.83301 -99.666 -29.5 -144.999s-46.5 -85 -80.5 -119s-73.667 -60.833 -119 -80.5s-93.666 -29.5 -144.999 -29.5z" />
    <glyph glyph-name="uni278B" 
d="M543 241l-157.997 -0.000976562l37 37l31 30l24 24l20 20.5c7.33301 7.66699 14.166 16.334 20.499 26.001s11.833 19.834 16.5 30.501s7 22 7 34c0 16.667 -3.5 31.667 -10.5 45s-16.333 24.666 -28 33.999s-25 16.5 -40 21.5s-30.5 7.5 -46.5 7.5
c-29.333 0 -55.833 -8.33301 -79.5 -25s-38.834 -40 -45.501 -70l65 -27c4 20 11.5 34.667 22.5 44s23.833 14 38.5 14s27 -4 37 -12s15 -18.667 15 -32c0 -14 -4.83301 -27.167 -14.5 -39.5s-18.834 -22.833 -27.501 -31.5l-70 -70l-64 -65v-60h250v64zM418.003 -16.001
c-51.333 0 -99.666 9.83301 -144.999 29.5s-85 46.5 -119 80.5s-60.833 73.667 -80.5 119s-29.5 93.666 -29.5 144.999s9.83301 99.666 29.5 144.999s46.5 85 80.5 119s73.667 60.833 119 80.5s93.666 29.5 144.999 29.5s99.666 -9.83301 144.999 -29.5s85 -46.5 119 -80.5
s60.833 -73.667 80.5 -119s29.5 -93.666 29.5 -144.999s-9.83301 -99.666 -29.5 -144.999s-46.5 -85 -80.5 -119s-73.667 -60.833 -119 -80.5s-93.666 -29.5 -144.999 -29.5z" />
    <glyph glyph-name="uni278C" 
d="M418 -16c-51.333 0 -99.666 9.83301 -144.999 29.5s-85 46.5 -119 80.5s-60.833 73.667 -80.5 119s-29.5 93.666 -29.5 144.999s9.83301 99.666 29.5 144.999s46.5 85 80.5 119s73.667 60.833 119 80.5s93.666 29.5 144.999 29.5s99.666 -9.83301 144.999 -29.5
s85 -46.5 119 -80.5s60.833 -73.667 80.5 -119s29.5 -93.666 29.5 -144.999s-9.83301 -99.666 -29.5 -144.999s-46.5 -85 -80.5 -119s-73.667 -60.833 -119 -80.5s-93.666 -29.5 -144.999 -29.5zM415 165c17.333 0 34 2.66602 50 7.99902s30.167 13 42.5 23
s22.166 22.167 29.499 36.5s11 30.833 11 49.5c0 19.333 -5.33301 35.833 -16 49.5s-24.334 25.167 -41.001 34.5c14.667 9.33301 25.834 20 33.501 32s11.5 26.333 11.5 43c0 31.333 -11.333 56.833 -34 76.5s-52 29.5 -88 29.5c-32 0 -57.833 -7.66699 -77.5 -23
s-33.834 -35 -42.501 -59l62 -25c3.33301 9.33301 9.33301 18.833 18 28.5s22 14.5 40 14.5c13.333 0 25 -3.83301 35 -11.5s15 -18.167 15 -31.5c0 -14 -4.83301 -25.333 -14.5 -34s-22.167 -13 -37.5 -13h-37v-60h41c16.667 0 30.834 -4.33301 42.501 -13
s17.5 -20.667 17.5 -36c0 -16.667 -6.33301 -30 -19 -40s-26.667 -15 -42 -15c-14 0 -27.667 4.33301 -41 13s-22.666 24.334 -27.999 47.001l-65 -24c8.66699 -34.667 25.5 -60 50.5 -76s52.833 -24 83.5 -24z" />
    <glyph glyph-name="uni278D" 
d="M493 249h48v60h-48v234h-67l-174 -246v-48h171v-72h70v72zM325 309l94 131h4v-131h-98zM418 -16c-51.333 0 -99.666 9.83301 -144.999 29.5s-85 46.5 -119 80.5s-60.833 73.667 -80.5 119s-29.5 93.666 -29.5 144.999s9.83301 99.666 29.5 144.999s46.5 85 80.5 119
s73.667 60.833 119 80.5s93.666 29.5 144.999 29.5s99.666 -9.83301 144.999 -29.5s85 -46.5 119 -80.5s60.833 -73.667 80.5 -119s29.5 -93.666 29.5 -144.999s-9.83301 -99.666 -29.5 -144.999s-46.5 -85 -80.5 -119s-73.667 -60.833 -119 -80.5
s-93.666 -29.5 -144.999 -29.5z" />
    <glyph glyph-name="uni278E" 
d="M418 -16c-51.333 0 -99.666 9.83301 -144.999 29.5s-85 46.5 -119 80.5s-60.833 73.667 -80.5 119s-29.5 93.666 -29.5 144.999s9.83301 99.666 29.5 144.999s46.5 85 80.5 119s73.667 60.833 119 80.5s93.666 29.5 144.999 29.5s99.666 -9.83301 144.999 -29.5
s85 -46.5 119 -80.5s60.833 -73.667 80.5 -119s29.5 -93.666 29.5 -144.999s-9.83301 -99.666 -29.5 -144.999s-46.5 -85 -80.5 -119s-73.667 -60.833 -119 -80.5s-93.666 -29.5 -144.999 -29.5zM418 169c18 0 34.998 3.16406 50.998 9.49707s30.167 15.166 42.5 26.499
s22.166 24.833 29.499 40.5s11 32.5 11 50.5c0 18.667 -3.33301 35.834 -10 51.501s-15.667 28.834 -27 39.501s-24.666 19 -39.999 25s-31.333 9 -48 9c-11.333 0 -22.166 -1.66699 -32.499 -5s-19.166 -8.33301 -26.499 -15l12 81h150v60h-209l-25 -189l61 -25
c16 22 36.333 33 61 33c17.333 0 32 -6.16699 44 -18.5s18 -27.5 18 -45.5c0 -17.333 -6 -32.333 -18 -45s-26.667 -19 -44 -19s-32 4.5 -44 13.5s-20 21.833 -24 38.5l-65 -25c4.66699 -16.667 11.667 -30.667 21 -42s20 -20.666 32 -27.999s25 -12.666 39 -15.999
s27.667 -5 41 -5z" />
    <glyph glyph-name="uni278F" 
d="M418 -16c-51.333 0 -99.666 9.83301 -144.999 29.5s-85 46.5 -119 80.5s-60.833 73.667 -80.5 119s-29.5 93.666 -29.5 144.999s9.83301 99.666 29.5 144.999s46.5 85 80.5 119s73.667 60.833 119 80.5s93.666 29.5 144.999 29.5s99.666 -9.83301 144.999 -29.5
s85 -46.5 119 -80.5s60.833 -73.667 80.5 -119s29.5 -93.666 29.5 -144.999s-9.83301 -99.666 -29.5 -144.999s-46.5 -85 -80.5 -119s-73.667 -60.833 -119 -80.5s-93.666 -29.5 -144.999 -29.5zM414 169c18 0 34.999 3.33301 50.999 10s30 15.667 42 27
s21.667 24.666 29 39.999s11 31.666 11 48.999c0 16 -3.16699 31.5 -9.5 46.5s-15 28.167 -26 39.5s-24 20.5 -39 27.5s-31.167 10.5 -48.5 10.5c-3.33301 0 -7 -0.333008 -11 -1s-7.33301 -1.66699 -10 -3l84 106l-54 38l-45 -62l-36 -50l-27 -38
c-13.333 -18.667 -24.166 -37.167 -32.499 -55.5s-12.5 -37.833 -12.5 -58.5c0 -17.333 3.5 -33.666 10.5 -48.999s16.5 -28.666 28.5 -39.999s26.167 -20.333 42.5 -27s33.833 -10 52.5 -10zM412.999 233c-18.667 0 -33.5 6.33301 -44.5 19s-16.5 27.334 -16.5 44.001
c0 16 5.66699 30.5 17 43.5s26 19.5 44 19.5c18.667 0 33.667 -6.5 45 -19.5s17 -27.5 17 -43.5c0 -16.667 -5.66699 -31.334 -17 -44.001s-26.333 -19 -45 -19z" />
    <glyph glyph-name="uni2790" 
d="M418 -16c-51.333 0 -99.666 9.83301 -144.999 29.5s-85 46.5 -119 80.5s-60.833 73.667 -80.5 119s-29.5 93.666 -29.5 144.999s9.83301 99.666 29.5 144.999s46.5 85 80.5 119s73.667 60.833 119 80.5s93.666 29.5 144.999 29.5s99.666 -9.83301 144.999 -29.5
s85 -46.5 119 -80.5s60.833 -73.667 80.5 -119s29.5 -93.666 29.5 -144.999s-9.83301 -99.666 -29.5 -144.999s-46.5 -85 -80.5 -119s-73.667 -60.833 -119 -80.5s-93.666 -29.5 -144.999 -29.5zM376 162l175 321v60h-250v-64h172l-159 -284z" />
    <glyph glyph-name="uni2791" 
d="M418 -16c-51.333 0 -99.666 9.83301 -144.999 29.5s-85 46.5 -119 80.5s-60.833 73.667 -80.5 119s-29.5 93.666 -29.5 144.999s9.83301 99.666 29.5 144.999s46.5 85 80.5 119s73.667 60.833 119 80.5s93.666 29.5 144.999 29.5s99.666 -9.83301 144.999 -29.5
s85 -46.5 119 -80.5s60.833 -73.667 80.5 -119s29.5 -93.666 29.5 -144.999s-9.83301 -99.666 -29.5 -144.999s-46.5 -85 -80.5 -119s-73.667 -60.833 -119 -80.5s-93.666 -29.5 -144.999 -29.5zM418 169c16.667 0 33 2.5 49 7.5s30.333 12.5 43 22.5s22.834 22 30.501 36
s11.5 30 11.5 48c0 17.333 -4.5 33.5 -13.5 48.5s-21.5 27.833 -37.5 38.5c11.333 8 20.666 18.667 27.999 32s11 26.666 11 39.999c0 16.667 -3.5 31.667 -10.5 45s-16.167 24.833 -27.5 34.5s-24.333 17 -39 22s-29.667 7.5 -45 7.5c-16 0 -31.333 -2.5 -46 -7.5
s-27.667 -12.333 -39 -22s-20.333 -21.167 -27 -34.5s-10 -28.333 -10 -45c0 -14 3.66699 -27.667 11 -41s16.666 -23.666 27.999 -30.999c-16 -10.667 -28.5 -23.5 -37.5 -38.5s-13.5 -31.167 -13.5 -48.5c0 -18 3.83301 -34 11.5 -48s17.834 -25.833 30.501 -35.5
s27 -17.167 43 -22.5s32.333 -8 49 -8zM418 397c-13.333 0 -25 4.16699 -35 12.5s-15 19.166 -15 32.499c0 12.667 4.66699 23.334 14 32.001s21.333 13 36 13c14 0 25.833 -4.33301 35.5 -13s14.5 -19.334 14.5 -32.001c0 -13.333 -5.16699 -24.166 -15.5 -32.499
s-21.833 -12.5 -34.5 -12.5zM418 233c-15.333 0 -29.5 4.83301 -42.5 14.5s-19.5 22.5 -19.5 38.5c0 15.333 6.5 27.833 19.5 37.5s27.167 14.5 42.5 14.5c14.667 0 28.667 -4.83301 42 -14.5s20 -22.167 20 -37.5s-6.66699 -28 -20 -38s-27.333 -15 -42 -15z" />
    <glyph glyph-name="uni2792" 
d="M418 -16c-51.333 0 -99.666 9.83301 -144.999 29.5s-85 46.5 -119 80.5s-60.833 73.667 -80.5 119s-29.5 93.666 -29.5 144.999s9.83301 99.666 29.5 144.999s46.5 85 80.5 119s73.667 60.833 119 80.5s93.666 29.5 144.999 29.5s99.666 -9.83301 144.999 -29.5
s85 -46.5 119 -80.5s60.833 -73.667 80.5 -119s29.5 -93.666 29.5 -144.999s-9.83301 -99.666 -29.5 -144.999s-46.5 -85 -80.5 -119s-73.667 -60.833 -119 -80.5s-93.666 -29.5 -144.999 -29.5zM415 551c-18 0 -34.999 -3.33301 -50.999 -10s-30 -15.667 -42 -27
s-21.667 -24.666 -29 -39.999s-11 -31.666 -11 -48.999c0 -16 3.16699 -31.5 9.5 -46.5s15 -28.167 26 -39.5s24 -20.5 39 -27.5s31.167 -10.5 48.5 -10.5c3.33301 0 7 0.333008 11 1s7.33301 1.66699 10 3l-84 -106l54 -38l45 62l35.5 49.5l27.5 38.5
c13.333 18.667 24.166 37.167 32.499 55.5s12.5 37.833 12.5 58.5c0 17.333 -3.5 33.666 -10.5 48.999s-16.5 28.666 -28.5 39.999s-26.167 20.333 -42.5 27s-33.833 10 -52.5 10zM416.001 487c18.667 0 33.5 -6.33301 44.5 -19s16.5 -27.334 16.5 -44.001
c0 -16 -5.66699 -30.5 -17 -43.5s-26 -19.5 -44 -19.5c-18.667 0 -33.667 6.5 -45 19.5s-17 27.5 -17 43.5c0 16.667 5.66699 31.334 17 44.001s26.333 19 45 19z" />
    <glyph glyph-name="Google.logo" horiz-adv-x="3284" 
d="M460 -16c-56.667 0 -110.171 10.8311 -160.504 32.498s-94.5 51 -132.5 88s-68 80.333 -90 130s-33 102.834 -33 159.501s11 109.834 33 159.501s52 93 90 130s82.167 66.333 132.5 88s103.833 32.5 160.5 32.5c62.667 0 116.834 -10.833 162.501 -32.5
s85.167 -48.5 118.5 -80.5l-79 -79c-24 22.667 -52.5 41.667 -85.5 57s-71.833 23 -116.5 23c-41.333 0 -79.833 -7.83301 -115.5 -23.5s-66.834 -37 -93.501 -64s-47.5 -58.5 -62.5 -94.5s-22.5 -74.667 -22.5 -116s7.5 -80 22.5 -116s35.833 -67.5 62.5 -94.5
s57.834 -48.333 93.501 -64s74.167 -23.5 115.5 -23.5c26.667 0 50.667 2.5 72 7.5s40.333 11.333 57 19s31.334 16.334 44.001 26.001s24 19.5 34 29.5c32.667 32.667 53 79.667 61 141h-268v112h377c4 -20 6 -43.333 6 -70c0 -21.333 -1.66699 -43.333 -5 -66
s-8.66602 -45.5 -15.999 -68.5s-17.166 -45.333 -29.499 -67s-27.833 -41.834 -46.5 -60.501c-36 -38 -77.333 -66.667 -124 -86s-100.667 -29 -162 -29zM1148 -16.002c-36.667 0 -71 6.66699 -103 20s-60 31.666 -84 54.999s-43 51.166 -57 83.499s-21 67.5 -21 105.5
s7 73.167 21 105.5s33 60.333 57 84s52 42 84 55s66.333 19.5 103 19.5s71 -6.5 103 -19.5s60 -31.333 84 -55s43 -51.667 57 -84s21 -67.5 21 -105.5s-7 -73.167 -21 -105.5s-33 -60.166 -57 -83.499s-52 -41.666 -84 -54.999s-66.333 -20 -103 -20zM1148 87.998
c20 0 39 4 57 12s33.833 19 47.5 33s24.5 30.833 32.5 50.5s12 41.167 12 64.5c0 24 -4 45.833 -12 65.5s-18.833 36.5 -32.5 50.5s-29.5 24.833 -47.5 32.5s-37 11.5 -57 11.5s-39 -3.83301 -57 -11.5s-33.833 -18.5 -47.5 -32.5s-24.5 -30.833 -32.5 -50.5
s-12 -41.5 -12 -65.5c0 -23.333 4 -44.833 12 -64.5s18.833 -36.5 32.5 -50.5s29.5 -25 47.5 -33s37 -12 57 -12zM1726 -16.002c-36.667 0 -71 6.66699 -103 20s-60 31.666 -84 54.999s-43 51.166 -57 83.499s-21 67.5 -21 105.5s7 73.167 21 105.5s33 60.333 57 84
s52 42 84 55s66.333 19.5 103 19.5s71 -6.5 103 -19.5s60 -31.333 84 -55s43 -51.667 57 -84s21 -67.5 21 -105.5s-7 -73.167 -21 -105.5s-33 -60.166 -57 -83.499s-52 -41.666 -84 -54.999s-66.333 -20 -103 -20zM1726 87.998c20 0 39 4 57 12s33.833 19 47.5 33
s24.5 30.833 32.5 50.5s12 41.167 12 64.5c0 24 -4 45.833 -12 65.5s-18.833 36.5 -32.5 50.5s-29.5 24.833 -47.5 32.5s-37 11.5 -57 11.5s-39 -3.83301 -57 -11.5s-33.833 -18.5 -47.5 -32.5s-24.5 -30.833 -32.5 -50.5s-12 -41.5 -12 -65.5c0 -23.333 4 -44.833 12 -64.5
s18.833 -36.5 32.5 -50.5s29.5 -25 47.5 -33s37 -12 57 -12zM2294 -253.002c-32 0 -60.833 4.83301 -86.5 14.5s-48.167 22 -67.5 37s-35.666 31.833 -49 50.5c-13.333 18.667 -23.666 36.667 -31 54l101 42c4.66699 -10.667 10.834 -21.667 18.5 -33
c7.66699 -11.333 17 -21.5 28 -30.5s23.667 -16.333 38 -22s30.5 -8.5 48.5 -8.5c44 0 78.5 13.167 103.5 39.5s37.5 64.833 37.5 115.5v38h-4c-13.333 -16 -31.833 -30 -55.5 -42s-51.5 -18 -83.5 -18c-33.333 0 -65.166 6.83301 -95.5 20.5
c-30.333 13.667 -57.166 32.167 -80.5 55.5c-23.333 23.333 -42 51 -56 83s-21 66.667 -21 104s7 72.166 21 104.499s32.667 60.333 56 84s50.166 42.334 80.5 56.001c30.333 13.667 62.166 20.5 95.5 20.5c32 0 59.833 -6 83.5 -18s42.167 -25.667 55.5 -41h4v43h110v-474
c0 -48.667 -6.66699 -90.334 -20 -125.001s-31.5 -63.167 -54.5 -85.5s-49.667 -38.666 -80 -48.999s-62.5 -15.5 -96.5 -15.5zM2302 87.998c20 0 38.5 4 55.5 12s31.833 19 44.5 33s22.667 30.667 30 50s11 40.666 11 63.999s-3.66699 44.833 -11 64.5
s-17.333 36.667 -30 51s-27.5 25.5 -44.5 33.5s-35.5 12 -55.5 12s-38.833 -4 -56.5 -12s-33.334 -19.167 -47 -33.5c-13.667 -14.333 -24.334 -31.333 -32 -51c-7.66699 -19.667 -11.5 -41.167 -11.5 -64.5s3.83301 -44.666 11.5 -63.999s18.334 -36 32 -50
c13.667 -14 29.334 -25 47 -33c17.667 -8 36.5 -12 56.5 -12zM2741 -0.00195312h-116v776h116v-776zM3059 -16.002c-37.333 0 -72 6.83398 -104 20.501s-59.667 32.334 -83 56.001s-41.666 51.5 -55 83.5c-13.333 32 -20 66.667 -20 104c0 39.333 6.66699 75.166 20 107.499
s31.166 60.166 53.5 83.499c22.333 23.333 48.666 41.333 79 54c30.333 12.667 62.5 19 96.5 19s64 -6 90 -18s48.167 -26.667 66.5 -44s33.166 -35.666 44.5 -54.999c11.333 -19.333 19.666 -36.333 25 -51l12 -30l-353 -146c27.333 -53.333 70 -80 128 -80
c30 0 55.333 6.66699 76 20s38.667 31 54 53l90 -60c-7.33301 -10.667 -17.166 -22.834 -29.5 -36.501c-12.333 -13.667 -27.666 -26.5 -46 -38.5c-18.333 -12 -39.5 -22 -63.5 -30s-51 -12 -81 -12zM3148 353.999c-6.66699 16.667 -18.834 30.166 -36.5 40.499
c-17.667 10.333 -38.167 15.5 -61.5 15.5c-14.667 0 -30.334 -3.16699 -47 -9.5c-16.667 -6.33301 -31.834 -16 -45.5 -29c-13.667 -13 -24.834 -29.167 -33.5 -48.5c-8.66699 -19.333 -12.667 -41.666 -12 -66.999z" />
    <glyph glyph-name="G.logo" horiz-adv-x="861" 
d="M460 -16c-56.667 0 -110.171 10.8311 -160.504 32.498s-94.5 51 -132.5 88s-68 80.333 -90 130s-33 102.834 -33 159.501s11 109.834 33 159.501s52 93 90 130s82.167 66.333 132.5 88s103.833 32.5 160.5 32.5c62.667 0 116.834 -10.833 162.501 -32.5
s85.167 -48.5 118.5 -80.5l-79 -79c-24 22.667 -52.5 41.667 -85.5 57s-71.833 23 -116.5 23c-41.333 0 -79.833 -7.83301 -115.5 -23.5s-66.834 -37 -93.501 -64s-47.5 -58.5 -62.5 -94.5s-22.5 -74.667 -22.5 -116s7.5 -80 22.5 -116s35.833 -67.5 62.5 -94.5
s57.834 -48.333 93.501 -64s74.167 -23.5 115.5 -23.5c26.667 0 50.667 2.5 72 7.5s40.333 11.333 57 19s31.334 16.334 44.001 26.001s24 19.5 34 29.5c32.667 32.667 53 79.667 61 141h-268v112h377c4 -20 6 -43.333 6 -70c0 -21.333 -1.66699 -43.333 -5 -66
s-8.66602 -45.5 -15.999 -68.5s-17.166 -45.333 -29.499 -67s-27.833 -41.834 -46.5 -60.501c-36 -38 -77.333 -66.667 -124 -86s-100.667 -29 -162 -29z" />
    <glyph glyph-name="o.logo" horiz-adv-x="578" 
d="M287 -16c-36.667 0 -71 6.66699 -103 20s-60 31.666 -84 54.999s-43 51.166 -57 83.499s-21 67.5 -21 105.5s7 73.167 21 105.5s33 60.333 57 84s52 42 84 55s66.333 19.5 103 19.5s71 -6.5 103 -19.5s60 -31.333 84 -55s43 -51.667 57 -84s21 -67.5 21 -105.5
s-7 -73.167 -21 -105.5s-33 -60.166 -57 -83.499s-52 -41.666 -84 -54.999s-66.333 -20 -103 -20zM287 88c20 0 39 4 57 12s33.833 19 47.5 33s24.5 30.833 32.5 50.5s12 41.167 12 64.5c0 24 -4 45.833 -12 65.5s-18.833 36.5 -32.5 50.5s-29.5 24.833 -47.5 32.5
s-37 11.5 -57 11.5s-39 -3.83301 -57 -11.5s-33.833 -18.5 -47.5 -32.5s-24.5 -30.833 -32.5 -50.5s-12 -41.5 -12 -65.5c0 -23.333 4 -44.833 12 -64.5s18.833 -36.5 32.5 -50.5s29.5 -25 47.5 -33s37 -12 57 -12z" />
    <glyph glyph-name="g.logo" horiz-adv-x="566" 
d="M277 -253c-32 0 -60.8359 4.83301 -86.5029 14.5s-48.167 22 -67.5 37s-35.666 31.833 -48.999 50.5s-23.666 36.667 -30.999 54l101 42c4.66699 -10.667 10.834 -21.667 18.501 -33s17 -21.5 28 -30.5s23.667 -16.333 38 -22s30.5 -8.5 48.5 -8.5
c44 0 78.5 13.167 103.5 39.5s37.5 64.833 37.5 115.5v38h-4c-13.333 -16 -31.833 -30 -55.5 -42s-51.5 -18 -83.5 -18c-33.333 0 -65.166 6.83301 -95.499 20.5s-57.166 32.167 -80.499 55.5s-42 51 -56 83s-21 66.667 -21 104s7 72.166 21 104.499s32.667 60.333 56 84
s50.166 42.334 80.499 56.001s62.166 20.5 95.499 20.5c32 0 59.833 -6 83.5 -18s42.167 -25.667 55.5 -41h4v43h110v-474c0 -48.667 -6.66699 -90.334 -20 -125.001s-31.5 -63.167 -54.5 -85.5s-49.667 -38.666 -80 -48.999s-62.5 -15.5 -96.5 -15.5zM284.997 88
c20 0 38.5 4 55.5 12s31.833 19 44.5 33s22.667 30.667 30 50s11 40.666 11 63.999s-3.66699 44.833 -11 64.5s-17.333 36.667 -30 51s-27.5 25.5 -44.5 33.5s-35.5 12 -55.5 12s-38.833 -4 -56.5 -12s-33.334 -19.167 -47.001 -33.5s-24.334 -31.333 -32.001 -51
s-11.5 -41.167 -11.5 -64.5s3.83301 -44.666 11.5 -63.999s18.334 -36 32.001 -50s29.334 -25 47.001 -33s36.5 -12 56.5 -12z" />
    <glyph glyph-name="l.logo" horiz-adv-x="187" 
d="M158 0h-116v776h116v-776z" />
    <glyph glyph-name="e.logo" horiz-adv-x="514" 
d="M289 -16c-37.333 0 -71.999 6.83398 -103.999 20.501s-59.667 32.334 -83 56.001s-41.666 51.5 -54.999 83.5s-20 66.667 -20 104c0 39.333 6.66699 75.166 20 107.499s31.166 60.166 53.499 83.499s48.666 41.333 78.999 54s62.5 19 96.5 19s64 -6 90 -18
s48.167 -26.667 66.5 -44s33.166 -35.666 44.499 -54.999s19.666 -36.333 24.999 -51l12 -30l-353 -146c27.333 -53.333 70 -80 128 -80c30 0 55.333 6.66699 76 20s38.667 31 54 53l90 -60c-7.33301 -10.667 -17.166 -22.834 -29.499 -36.501s-27.666 -26.5 -45.999 -38.5
s-39.5 -22 -63.5 -30s-51 -12 -81 -12zM378.001 354.001c-6.66699 16.667 -18.8301 30.166 -36.4971 40.499s-38.167 15.5 -61.5 15.5c-14.667 0 -30.334 -3.16699 -47.001 -9.5s-31.834 -16 -45.501 -29s-24.834 -29.167 -33.501 -48.5s-12.667 -41.666 -12 -66.999z" />
    </font>
</defs>
</svg>
